<svg width="48" height="48" viewBox="0 0 48 48" fill="none" xmlns="http://www.w3.org/2000/svg">
<path fill-rule="evenodd" clip-rule="evenodd" d="M16.74 32.52C16.3 33.42 15.36 34 14.34 34C12.34 34 11.04 31.9 11.94 30.12L14 26H10C8.9 26 8 25.1 8 24V16C8 14.9 8.9 14 10 14H18C19.1 14 20 14.9 20 16V25.06C20 25.68 19.86 26.28 19.58 26.84L16.74 32.52ZM36.74 32.52C36.3 33.42 35.36 34 34.34 34C32.34 34 31.04 31.9 31.94 30.12L34 26H30C28.9 26 28 25.1 28 24V16C28 14.9 28.9 14 30 14H38C39.1 14 40 14.9 40 16V25.06C40 25.68 39.86 26.28 39.58 26.84L36.74 32.52Z" fill="#0074CE"/>
</svg>
