<svg width="18" height="21" viewBox="0 0 18 21" fill="none" xmlns="http://www.w3.org/2000/svg">
<path d="M13.8203 0H4.18031C2.05031 0 0.320312 1.74 0.320312 3.86V17.95C0.320312 19.75 1.61031 20.51 3.19031 19.64L8.0703 16.93C8.5903 16.64 9.4303 16.64 9.9403 16.93L14.8203 19.64C16.4003 20.52 17.6903 19.76 17.6903 17.95V3.86C17.6803 1.74 15.9503 0 13.8203 0ZM11.5003 9.4H9.7503V11.21C9.7503 11.62 9.4103 11.96 9.0003 11.96C8.5903 11.96 8.2503 11.62 8.2503 11.21V9.4H6.50031C6.09031 9.4 5.75031 9.06 5.75031 8.65C5.75031 8.24 6.09031 7.9 6.50031 7.9H8.2503V6.21C8.2503 5.8 8.5903 5.46 9.0003 5.46C9.4103 5.46 9.7503 5.8 9.7503 6.21V7.9H11.5003C11.9103 7.9 12.2503 8.24 12.2503 8.65C12.2503 9.06 11.9103 9.4 11.5003 9.4Z" fill="#0BA5EC"/>
</svg>
