<svg width="534" height="330" viewBox="0 0 534 330" fill="none" xmlns="http://www.w3.org/2000/svg">
<g clip-path="url(#clip0_302_11981)">
<path d="M514.672 187.431C497.296 181.753 521.547 166.393 521.547 166.393C521.547 166.393 532.047 193.11 514.672 187.431ZM519.02 174.125C517.859 173.745 516.611 173.721 515.434 174.054C514.256 174.387 513.202 175.063 512.405 175.997C511.609 176.93 511.104 178.079 510.957 179.298C510.809 180.518 511.024 181.752 511.575 182.846C512.127 183.94 512.989 184.844 514.053 185.444C515.118 186.044 516.336 186.313 517.555 186.217C518.774 186.121 519.938 185.664 520.901 184.903C521.863 184.143 522.58 183.115 522.962 181.947C523.216 181.172 523.315 180.354 523.254 179.541C523.194 178.729 522.974 177.936 522.608 177.21C522.242 176.483 521.737 175.837 521.121 175.308C520.505 174.778 519.792 174.376 519.02 174.125Z" fill="#4CB1FF"/>
<path d="M515.425 185.127C514.422 184.8 513.539 184.18 512.888 183.347C512.238 182.515 511.848 181.506 511.769 180.449C511.689 179.391 511.924 178.333 512.443 177.408C512.962 176.483 513.742 175.732 514.684 175.251C515.626 174.77 516.688 174.579 517.736 174.704C518.784 174.829 519.771 175.263 520.571 175.951C521.371 176.64 521.95 177.553 522.233 178.573C522.516 179.594 522.491 180.677 522.162 181.685C521.943 182.355 521.596 182.976 521.139 183.512C520.682 184.047 520.125 184.487 519.499 184.807C518.873 185.127 518.191 185.32 517.492 185.375C516.793 185.43 516.09 185.346 515.425 185.127ZM518.488 175.753C517.647 175.479 516.743 175.461 515.891 175.703C515.039 175.945 514.276 176.435 513.699 177.112C513.123 177.788 512.758 178.62 512.652 179.503C512.545 180.386 512.702 181.28 513.101 182.072C513.501 182.864 514.125 183.518 514.896 183.953C515.667 184.387 516.549 184.581 517.432 184.511C518.314 184.441 519.157 184.11 519.854 183.56C520.551 183.01 521.07 182.265 521.347 181.419C521.53 180.857 521.602 180.265 521.558 179.676C521.513 179.087 521.354 178.513 521.088 177.987C520.823 177.461 520.457 176.992 520.011 176.609C519.564 176.226 519.047 175.935 518.488 175.753Z" fill="#4CB1FF"/>
<path d="M524.862 162.928C524.99 162.536 525 162.114 524.89 161.717C524.78 161.321 524.555 160.966 524.243 160.698C523.932 160.43 523.549 160.261 523.141 160.213C522.734 160.164 522.32 160.238 521.954 160.425C521.588 160.613 521.284 160.905 521.083 161.264C520.881 161.624 520.789 162.036 520.82 162.447C520.851 162.858 521.003 163.25 521.256 163.574C521.509 163.898 521.852 164.139 522.242 164.266C522.765 164.437 523.335 164.392 523.826 164.141C524.318 163.89 524.69 163.454 524.862 162.928Z" fill="#4CB1FF"/>
<path d="M49.6286 37.4381C50.5831 37.2715 51.5637 37.3604 52.4715 37.696C53.3793 38.0315 54.1821 38.6019 54.7992 39.3495L67.6176 54.826C68.0558 55.354 68.6235 55.758 69.265 55.9984C69.9065 56.2389 70.5997 56.3074 71.2767 56.1974L78.8484 54.9596C80.7386 54.6594 82.6705 54.7933 84.4989 55.3514L85.6845 55.7054C85.9009 55.7657 86.0957 55.8866 86.2461 56.054C86.3964 56.2214 86.4962 56.4285 86.5337 56.6511C86.5712 56.8736 86.5449 57.1025 86.4579 57.3111C86.3709 57.5196 86.2267 57.6992 86.0423 57.829L85.0376 58.5625C83.4917 59.6925 81.7125 60.4573 79.8332 60.7997L72.2859 62.1793C71.6116 62.3039 70.9805 62.6024 70.4546 63.0454C69.9286 63.4884 69.5259 64.0607 69.2859 64.7063L62.2652 83.6447C61.9256 84.5561 61.3544 85.3629 60.6085 85.9847C59.8626 86.6065 58.968 87.0215 58.0141 87.1884C60.7953 78.9963 61.5231 69.2386 61.7123 65.1868C61.7187 65.0566 61.6958 64.9267 61.6452 64.8068C61.5947 64.6869 61.5178 64.5802 61.4203 64.4944C61.3228 64.4087 61.2073 64.3463 61.0822 64.3118C60.9572 64.2773 60.826 64.2716 60.6983 64.2952L60.5665 65.9704C60.533 66.3623 60.353 66.7275 60.0628 66.9925C59.7726 67.2575 59.3937 67.4027 59.0022 67.3989L56.8203 67.384C56.5255 67.3791 56.2405 67.2786 56.0077 67.0975C55.764 66.9091 55.463 66.8108 55.155 66.8189L54.3674 66.8248L55.1963 66.5272C55.4543 66.4344 55.6773 66.2633 55.8344 66.0376L56.0991 65.66L56.5579 65.0324L54.9438 65.341C53.9167 65.5295 52.8702 65.5851 51.8299 65.5064L46.5933 65.1203L45.4912 70.9096C45.3774 71.5114 45.065 72.0578 44.6046 72.4603C44.1441 72.8629 43.5624 73.0981 42.9536 73.128L41.0548 73.2139L42.6561 64.8286L41.199 64.7203C41.147 64.7178 41.0974 64.6975 41.0585 64.6629C41.0195 64.6283 40.9935 64.5814 40.9847 64.5299C40.9759 64.4783 40.9849 64.4253 41.0101 64.3794C41.0353 64.3335 41.0752 64.2976 41.1234 64.2775L42.4487 63.6822L38.2041 56.3169L40.0497 55.7579C40.6305 55.5786 41.254 55.601 41.8193 55.8214C42.3846 56.0418 42.8589 56.4474 43.1656 56.9727L46.1389 62.0455L50.9 59.9435C51.8569 59.5193 52.8631 59.2188 53.8945 59.0492L55.4975 58.7872L54.8856 58.3698L54.5119 58.1013C54.2925 57.9445 54.0304 57.8588 53.7607 57.8558L52.8804 57.8524L53.6271 57.6031C53.919 57.5031 54.1684 57.3058 54.3336 57.0439C54.4914 56.7935 54.7278 56.6029 55.0053 56.5026L57.0601 55.7486C57.4284 55.6144 57.833 55.6247 58.1932 55.7773C58.5533 55.9299 58.8425 56.2135 59.0028 56.5716L59.6544 58.1014C59.7819 58.0808 59.9033 58.0317 60.0094 57.9575C60.1156 57.8834 60.2038 57.7862 60.2675 57.6732C60.3312 57.5603 60.3687 57.4344 60.3773 57.305C60.3859 57.1756 60.3653 57.046 60.3171 56.9258C58.821 53.1845 54.9385 44.2277 49.6286 37.4381Z" fill="#4CB1FF"/>
<path d="M106.245 51.9442C106.047 51.8794 105.836 51.868 105.632 51.9112C104.349 52.1859 103.043 52.4821 101.751 52.7832C101.444 52.8553 101.178 53.0469 101.011 53.3157C100.844 53.5845 100.79 53.9086 100.861 54.2167C100.931 54.5248 101.121 54.7916 101.388 54.9585C101.655 55.1253 101.978 55.1785 102.285 55.1064C103.56 54.8042 104.852 54.5156 106.122 54.241C106.377 54.1852 106.606 54.0469 106.775 53.8474C106.944 53.6478 107.043 53.3982 107.057 53.1369C107.071 52.8756 106.999 52.6173 106.853 52.4017C106.706 52.1862 106.492 52.0254 106.245 51.9442Z" fill="#4CB1FF"/>
<path d="M439.78 125.223L438.822 124.91C438.523 124.812 438.197 124.838 437.917 124.981C437.636 125.125 437.423 125.374 437.325 125.675C437.227 125.975 437.251 126.302 437.393 126.584C437.535 126.865 437.782 127.078 438.081 127.176L439.035 127.488C441.18 128.189 443.39 128.932 445.606 129.694C445.905 129.791 446.231 129.766 446.512 129.622C446.792 129.479 447.005 129.229 447.103 128.929C447.202 128.628 447.177 128.301 447.035 128.02C446.893 127.738 446.646 127.525 446.347 127.427C444.161 126.675 441.936 125.927 439.78 125.223ZM431.234 122.534L431.208 122.526C428.642 121.75 426.065 121 423.543 120.297C423.239 120.212 422.915 120.252 422.64 120.408C422.366 120.563 422.163 120.822 422.078 121.127C421.993 121.431 422.032 121.757 422.186 122.033C422.34 122.308 422.596 122.51 422.9 122.595C425.407 123.293 427.966 124.037 430.516 124.808C430.816 124.903 431.141 124.874 431.42 124.727C431.7 124.581 431.91 124.33 432.005 124.028C432.101 123.727 432.073 123.4 431.928 123.12C431.783 122.84 431.534 122.629 431.234 122.534ZM453.867 130.086C453.57 129.984 453.244 130.005 452.961 130.144C452.678 130.283 452.462 130.529 452.359 130.828C452.256 131.127 452.276 131.455 452.414 131.738C452.551 132.022 452.796 132.239 453.093 132.341C455.517 133.217 458.023 134.149 460.539 135.101C460.685 135.156 460.84 135.181 460.996 135.176C461.152 135.171 461.305 135.135 461.447 135.07C461.59 135.005 461.718 134.913 461.825 134.799C461.931 134.684 462.015 134.55 462.07 134.403C462.125 134.257 462.152 134.101 462.147 133.944C462.142 133.788 462.107 133.634 462.043 133.491C461.979 133.348 461.887 133.22 461.774 133.113C461.66 133.006 461.527 132.923 461.381 132.867C458.854 131.912 456.339 130.982 453.905 130.098L453.867 130.086ZM415.903 118.268L415.817 118.24C413.215 117.578 410.6 116.953 408.05 116.375C407.742 116.305 407.418 116.361 407.151 116.531C406.883 116.701 406.693 116.97 406.623 117.28C406.553 117.59 406.608 117.914 406.776 118.182C406.944 118.45 407.211 118.64 407.519 118.71C410.047 119.281 412.642 119.903 415.23 120.557C415.532 120.644 415.857 120.608 416.133 120.455C416.409 120.302 416.614 120.046 416.702 119.742C416.791 119.438 416.755 119.112 416.604 118.835C416.453 118.558 416.198 118.354 415.896 118.266L415.903 118.268ZM468.752 135.715C468.456 135.609 468.13 135.625 467.845 135.76C467.56 135.895 467.34 136.138 467.233 136.435C467.125 136.733 467.14 137.061 467.274 137.346C467.407 137.632 467.648 137.853 467.944 137.96C470.346 138.903 472.829 139.894 475.325 140.907C475.469 140.965 475.624 140.994 475.78 140.993C475.936 140.991 476.091 140.959 476.235 140.897C476.378 140.836 476.509 140.746 476.618 140.634C476.728 140.522 476.815 140.39 476.873 140.244C476.932 140.099 476.962 139.943 476.961 139.786C476.96 139.63 476.928 139.475 476.867 139.33C476.806 139.186 476.718 139.055 476.607 138.946C476.496 138.836 476.364 138.749 476.219 138.691C473.716 137.676 471.226 136.683 468.816 135.736L468.752 135.715ZM483.499 141.693C483.204 141.583 482.877 141.597 482.591 141.729C482.305 141.862 482.082 142.103 481.973 142.4C481.863 142.697 481.875 143.025 482.006 143.312C482.137 143.599 482.377 143.821 482.672 143.931C485.025 144.909 487.493 145.945 489.981 147.005C490.125 147.066 490.28 147.098 490.436 147.099C490.592 147.1 490.748 147.07 490.893 147.011C491.038 146.952 491.17 146.864 491.281 146.754C491.393 146.644 491.482 146.513 491.543 146.368C491.604 146.223 491.636 146.068 491.638 145.911C491.639 145.754 491.61 145.598 491.552 145.453C491.493 145.307 491.407 145.175 491.297 145.063C491.188 144.951 491.058 144.862 490.914 144.801C488.402 143.734 485.931 142.697 483.574 141.717L483.499 141.693ZM400.385 114.769C400.34 114.75 400.293 114.735 400.246 114.723C397.625 114.206 394.98 113.726 392.398 113.296C392.087 113.244 391.769 113.319 391.512 113.503C391.255 113.687 391.082 113.966 391.029 114.278C390.977 114.59 391.05 114.91 391.232 115.167C391.415 115.425 391.692 115.598 392.003 115.65C394.571 116.071 397.195 116.552 399.797 117.064C400.102 117.144 400.426 117.098 400.698 116.938C400.97 116.778 401.168 116.515 401.249 116.209C401.329 115.903 401.285 115.577 401.126 115.304C400.967 115.031 400.707 114.833 400.402 114.754L400.385 114.769ZM498.151 147.894C497.857 147.783 497.53 147.794 497.243 147.925C496.955 148.055 496.731 148.295 496.62 148.591C496.508 148.887 496.518 149.216 496.647 149.504C496.776 149.792 497.015 150.016 497.309 150.127C499.737 151.177 502.164 152.231 504.59 153.289C504.88 153.415 505.208 153.42 505.502 153.303C505.796 153.187 506.033 152.958 506.159 152.666C506.286 152.375 506.292 152.046 506.177 151.75C506.062 151.455 505.835 151.218 505.545 151.092C503.123 150.022 500.689 148.966 498.241 147.924L498.151 147.894ZM225.047 59.2065L224.093 58.8947C223.794 58.797 223.469 58.8227 223.188 58.9662C222.907 59.1096 222.694 59.359 222.596 59.6596C222.498 59.9601 222.522 60.2871 222.664 60.5687C222.806 60.8502 223.054 61.0633 223.353 61.161C225.854 61.9785 228.38 62.8247 230.835 63.7066C231.131 63.8122 231.456 63.7956 231.741 63.6605C232.025 63.5253 232.244 63.2826 232.351 62.9856C232.404 62.8382 232.428 62.6819 232.421 62.5255C232.414 62.3692 232.377 62.2158 232.311 62.0742C232.244 61.9327 232.151 61.8057 232.036 61.7005C231.921 61.5953 231.786 61.514 231.64 61.4613C229.476 60.704 227.252 59.9396 225.044 59.2178L225.047 59.2065ZM216.489 56.581L216.444 56.5663C213.898 55.8345 211.299 55.1358 208.726 54.4871C208.42 54.4105 208.096 54.4591 207.825 54.6222C207.555 54.7854 207.359 55.0497 207.282 55.3571C207.204 55.6644 207.252 55.9896 207.413 56.2612C207.575 56.5327 207.837 56.7283 208.143 56.8049C210.69 57.445 213.265 58.1402 215.786 58.8596C215.935 58.9054 216.091 58.9214 216.246 58.9065C216.402 58.8917 216.552 58.8463 216.69 58.7729C216.828 58.6996 216.95 58.5997 217.05 58.479C217.149 58.3584 217.224 58.2193 217.271 58.0696C217.317 57.92 217.333 57.7629 217.319 57.6071C217.305 57.4513 217.26 57.3 217.187 57.1618C217.115 57.0235 217.016 56.9011 216.896 56.8014C216.776 56.7018 216.638 56.6269 216.489 56.581ZM239.073 64.271C238.778 64.1644 238.451 64.1803 238.166 64.3153C237.881 64.4503 237.661 64.6933 237.554 64.9909C237.446 65.2885 237.461 65.6163 237.595 65.9021C237.728 66.188 237.969 66.4085 238.265 66.5152C240.706 67.4801 243.165 68.5052 245.586 69.5557C245.876 69.6819 246.204 69.6873 246.498 69.5706C246.792 69.4539 247.028 69.2247 247.155 68.9335C247.282 68.6422 247.288 68.3127 247.173 68.0176C247.058 67.7224 246.83 67.4856 246.541 67.3594C244.106 66.3002 241.621 65.2666 239.155 64.2893L239.073 64.271ZM384.691 112.148C384.625 112.121 384.558 112.098 384.488 112.082C381.832 111.724 379.158 111.41 376.542 111.157C376.234 111.134 375.928 111.233 375.69 111.433C375.453 111.633 375.302 111.918 375.27 112.228C375.239 112.537 375.329 112.846 375.521 113.089C375.713 113.332 375.993 113.489 376.3 113.528C378.888 113.788 381.52 114.093 384.163 114.451C384.456 114.489 384.753 114.417 384.997 114.247C385.24 114.078 385.412 113.823 385.478 113.534C385.545 113.244 385.501 112.94 385.356 112.682C385.211 112.424 384.976 112.229 384.695 112.137L384.691 112.148ZM201.058 52.7001L200.941 52.6621C198.341 52.0965 195.703 51.5688 193.102 51.0949C192.946 51.06 192.784 51.057 192.627 51.0863C192.47 51.1156 192.32 51.1764 192.186 51.2653C192.053 51.3541 191.939 51.469 191.85 51.6032C191.762 51.7374 191.702 51.888 191.673 52.046C191.644 52.204 191.647 52.3662 191.682 52.5227C191.717 52.6793 191.783 52.827 191.877 52.957C191.97 53.087 192.089 53.1966 192.225 53.2793C192.362 53.3619 192.514 53.4159 192.673 53.438C195.245 53.9108 197.857 54.4299 200.434 54.9919C200.737 55.0745 201.062 55.0325 201.335 54.8749C201.609 54.7174 201.81 54.4573 201.893 54.1519C201.976 53.8465 201.935 53.5208 201.779 53.2464C201.623 52.972 201.365 52.7714 201.061 52.6888L201.058 52.7001ZM253.66 70.6225C253.515 70.5647 253.36 70.5362 253.204 70.5385C253.048 70.5409 252.894 70.5742 252.75 70.6364C252.461 70.762 252.232 70.9979 252.115 71.2922C251.998 71.5866 252.002 71.9152 252.126 72.2059C252.25 72.4965 252.484 72.7254 252.777 72.8421C255.158 73.9757 257.544 75.1609 259.87 76.364C260.148 76.5105 260.473 76.5396 260.774 76.445C261.075 76.3504 261.326 76.1398 261.473 75.8596C261.619 75.5793 261.65 75.2524 261.556 74.9507C261.463 74.649 261.254 74.3972 260.976 74.2507C258.626 73.0314 256.218 71.8389 253.823 70.6966L253.66 70.6225ZM185.401 49.8659C185.337 49.8461 185.273 49.8319 185.207 49.8234C182.578 49.4326 179.912 49.0797 177.28 48.7756C176.971 48.7449 176.661 48.8377 176.418 49.0341C176.175 49.2304 176.019 49.5145 175.982 49.8251C175.946 50.1357 176.032 50.4479 176.223 50.6944C176.413 50.9408 176.693 51.1018 177.002 51.1426C179.61 51.4431 182.248 51.7912 184.853 52.1784C185.16 52.251 185.483 52.198 185.752 52.0311C186.021 51.8642 186.214 51.5971 186.287 51.2884C186.36 50.9797 186.309 50.6549 186.143 50.3853C185.978 50.1156 185.713 49.9234 185.406 49.8507L185.401 49.8659ZM368.844 110.594C368.749 110.563 368.651 110.544 368.552 110.536C365.899 110.371 363.204 110.26 360.543 110.21C360.234 110.212 359.937 110.335 359.717 110.553C359.496 110.771 359.368 111.067 359.361 111.377C359.354 111.688 359.468 111.989 359.678 112.215C359.889 112.442 360.179 112.577 360.488 112.591C363.119 112.644 365.778 112.752 368.398 112.915C368.685 112.93 368.968 112.841 369.195 112.663C369.422 112.485 369.577 112.231 369.632 111.947C369.686 111.664 369.637 111.37 369.492 111.121C369.347 110.872 369.117 110.685 368.844 110.594ZM267.782 77.9633C267.503 77.8737 267.2 77.8915 266.932 78.0131C266.664 78.1348 266.451 78.3516 266.332 78.6218C266.214 78.892 266.2 79.1963 266.292 79.4759C266.384 79.7556 266.576 79.9906 266.831 80.1357C269.128 81.4257 271.428 82.771 273.664 84.1331C273.933 84.297 274.256 84.3465 274.563 84.271C274.869 84.1954 275.133 84.0009 275.297 83.7302C275.461 83.4594 275.511 83.1347 275.437 82.8275C275.363 82.5202 275.17 82.2555 274.901 82.0917C272.64 80.7172 270.315 79.3596 267.992 78.0571C267.929 78.0146 267.861 77.9785 267.791 77.9494L267.782 77.9633ZM169.592 48.0438C169.503 48.0158 169.411 47.9971 169.319 47.9881C166.665 47.777 163.981 47.6064 161.34 47.4707C161.18 47.4566 161.02 47.475 160.868 47.5249C160.715 47.5747 160.575 47.6549 160.454 47.7607C160.333 47.8665 160.235 47.9956 160.165 48.1404C160.095 48.2852 160.055 48.4425 160.047 48.603C160.039 48.7635 160.064 48.9239 160.119 49.0744C160.175 49.2249 160.26 49.3625 160.37 49.4789C160.48 49.5953 160.612 49.6881 160.759 49.7517C160.905 49.8153 161.063 49.8484 161.223 49.849C163.84 49.9724 166.498 50.1432 169.127 50.3418C169.417 50.366 169.706 50.2823 169.939 50.1066C170.172 49.9309 170.333 49.6756 170.392 49.389C170.45 49.1025 170.401 48.8049 170.255 48.5527C170.109 48.3004 169.875 48.1113 169.599 48.0211L169.592 48.0438ZM281.386 86.2261C281.113 86.1354 280.815 86.1482 280.55 86.2619C280.284 86.3757 280.068 86.5827 279.943 86.8442C279.818 87.1056 279.792 87.4036 279.869 87.6824C279.947 87.9613 280.123 88.2017 280.365 88.3588C282.569 89.8066 284.767 91.3109 286.901 92.8232C287.157 93.0056 287.475 93.0781 287.785 93.0246C288.096 92.9712 288.372 92.7962 288.555 92.5382C288.737 92.2801 288.81 91.9602 288.758 91.6488C288.706 91.3373 288.533 91.0598 288.276 90.8774C286.123 89.3376 283.898 87.8285 281.666 86.3634C281.58 86.303 281.487 86.2543 281.389 86.2185L281.386 86.2261ZM352.932 110.272C352.804 110.231 352.67 110.211 352.535 110.214C349.867 110.274 347.176 110.394 344.521 110.567C344.215 110.598 343.933 110.747 343.734 110.983C343.534 111.218 343.434 111.522 343.453 111.83C343.472 112.138 343.609 112.426 343.835 112.633C344.062 112.841 344.36 112.952 344.667 112.943C347.28 112.773 349.937 112.655 352.57 112.6C352.85 112.593 353.119 112.487 353.329 112.3C353.54 112.114 353.678 111.858 353.719 111.58C353.76 111.301 353.702 111.018 353.554 110.779C353.407 110.54 353.18 110.361 352.914 110.275L352.932 110.272ZM153.693 47.3087C153.58 47.2704 153.461 47.2514 153.342 47.2523C150.68 47.2185 147.989 47.2338 145.341 47.2965C145.185 47.3005 145.032 47.3353 144.889 47.3988C144.747 47.4624 144.618 47.5535 144.51 47.667C144.402 47.7805 144.318 47.9141 144.261 48.0602C144.205 48.2063 144.178 48.362 144.181 48.5185C144.185 48.675 144.219 48.8292 144.282 48.9722C144.344 49.1153 144.435 49.2444 144.547 49.3523C144.66 49.4601 144.793 49.5446 144.938 49.6008C145.083 49.657 145.238 49.6839 145.394 49.6799C148.012 49.6199 150.677 49.6047 153.308 49.6326C153.591 49.6347 153.865 49.5354 154.082 49.3525C154.299 49.1696 154.444 48.9152 154.491 48.6351C154.538 48.3549 154.483 48.0675 154.338 47.8246C154.192 47.5816 153.965 47.3991 153.697 47.3099L153.693 47.3087ZM294.362 95.4457C294.096 95.3583 293.808 95.3684 293.548 95.4742C293.288 95.58 293.073 95.7747 292.942 96.0237C292.811 96.2728 292.772 96.5601 292.831 96.8349C292.891 97.1097 293.045 97.3541 293.267 97.525C295.362 99.1293 297.447 100.789 299.457 102.474C299.577 102.574 299.715 102.648 299.864 102.694C300.013 102.739 300.17 102.755 300.325 102.739C300.48 102.724 300.631 102.678 300.769 102.605C300.906 102.531 301.028 102.431 301.128 102.31C301.227 102.189 301.302 102.049 301.348 101.899C301.393 101.75 301.409 101.592 301.395 101.437C301.38 101.281 301.335 101.129 301.262 100.991C301.189 100.853 301.09 100.731 300.969 100.632C298.931 98.9453 296.823 97.2657 294.697 95.6554C294.6 95.5636 294.488 95.49 294.365 95.4381L294.362 95.4457ZM337.045 111.322C336.885 111.27 336.716 111.254 336.549 111.273C333.894 111.563 331.222 111.915 328.603 112.321C328.449 112.345 328.301 112.4 328.167 112.481C328.034 112.562 327.918 112.669 327.825 112.796C327.733 112.922 327.666 113.066 327.628 113.218C327.591 113.37 327.584 113.528 327.607 113.683C327.631 113.837 327.684 113.986 327.765 114.12C327.845 114.254 327.951 114.37 328.077 114.463C328.203 114.555 328.345 114.622 328.496 114.659C328.648 114.696 328.805 114.702 328.959 114.678C331.546 114.27 334.192 113.931 336.783 113.636C337.054 113.607 337.307 113.486 337.499 113.293C337.692 113.099 337.813 112.845 337.842 112.574C337.871 112.302 337.806 112.029 337.658 111.8C337.51 111.571 337.288 111.401 337.03 111.317L337.045 111.322ZM137.782 47.6815C137.642 47.6363 137.494 47.6178 137.347 47.627C134.684 47.7853 132.001 47.9952 129.365 48.25C129.06 48.2896 128.781 48.4468 128.588 48.6886C128.395 48.9304 128.303 49.2377 128.332 49.5456C128.36 49.8535 128.507 50.1378 128.74 50.3384C128.974 50.5391 129.277 50.6404 129.584 50.6208C132.19 50.3688 134.847 50.1628 137.48 50.0072C137.757 49.9925 138.021 49.8804 138.225 49.6905C138.429 49.5006 138.561 49.2449 138.597 48.9681C138.633 48.6913 138.571 48.4109 138.422 48.1757C138.273 47.9406 138.047 47.7657 137.782 47.6815ZM306.632 105.592C306.373 105.508 306.092 105.515 305.838 105.614C305.583 105.712 305.37 105.896 305.234 106.133C305.097 106.371 305.047 106.648 305.09 106.918C305.133 107.189 305.268 107.435 305.471 107.617C306.976 108.966 308.485 110.353 309.943 111.741L311.267 113.01C311.495 113.218 311.795 113.329 312.104 113.318C312.413 113.307 312.705 113.176 312.92 112.952C313.134 112.728 313.254 112.429 313.252 112.119C313.251 111.809 313.13 111.512 312.914 111.291L311.572 110.016C310.093 108.613 308.569 107.208 307.044 105.844C306.926 105.731 306.786 105.644 306.633 105.589L306.632 105.592ZM321.314 113.764C321.12 113.702 320.913 113.69 320.713 113.731C318.081 114.267 315.449 114.866 312.893 115.515C312.587 115.592 312.325 115.788 312.163 116.06C312 116.332 311.952 116.656 312.029 116.963C312.105 117.269 312.299 117.533 312.569 117.694C312.839 117.856 313.162 117.904 313.467 117.826C314.574 117.544 315.693 117.274 316.819 117.011C316.623 117.236 316.519 117.525 316.525 117.823C316.532 118.121 316.649 118.405 316.854 118.619C318.717 120.553 320.495 122.514 322.2 124.459C322.297 124.594 322.421 124.707 322.565 124.791C322.708 124.874 322.867 124.926 323.032 124.944C323.197 124.962 323.364 124.945 323.522 124.893C323.681 124.842 323.826 124.758 323.95 124.647C324.074 124.536 324.174 124.4 324.243 124.248C324.311 124.096 324.347 123.931 324.348 123.765C324.35 123.598 324.316 123.433 324.25 123.28C324.184 123.128 324.086 122.991 323.964 122.878C322.239 120.906 320.416 118.914 318.551 116.963C318.443 116.85 318.315 116.76 318.173 116.697C319.163 116.477 320.16 116.263 321.157 116.062C321.415 116.011 321.65 115.875 321.823 115.676C321.997 115.477 322.1 115.225 322.115 114.961C322.131 114.697 322.059 114.435 321.911 114.218C321.762 114 321.545 113.838 321.295 113.758L321.314 113.764ZM121.944 49.1941C121.774 49.1392 121.595 49.1234 121.418 49.1478C118.779 49.5019 116.114 49.9227 113.504 50.3657C113.194 50.4195 112.917 50.5948 112.735 50.8532C112.552 51.1115 112.479 51.4317 112.532 51.7432C112.584 52.0547 112.758 52.3322 113.015 52.5144C113.271 52.6967 113.59 52.7688 113.9 52.715C116.484 52.2634 119.119 51.8579 121.727 51.5104C121.995 51.4755 122.243 51.3501 122.43 51.1549C122.618 50.9596 122.734 50.7062 122.759 50.4364C122.784 50.1665 122.717 49.8964 122.569 49.6706C122.421 49.4448 122.2 49.2767 121.944 49.1941ZM305.886 117.669C305.654 117.594 305.405 117.593 305.172 117.665C302.601 118.46 300.053 119.337 297.56 120.236C297.414 120.29 297.279 120.372 297.164 120.478C297.049 120.585 296.956 120.712 296.89 120.854C296.824 120.996 296.787 121.15 296.78 121.307C296.773 121.463 296.797 121.619 296.85 121.766C296.903 121.913 296.985 122.048 297.09 122.163C297.195 122.278 297.322 122.371 297.463 122.437C297.605 122.503 297.757 122.54 297.913 122.546C298.069 122.553 298.224 122.528 298.371 122.474C300.81 121.574 303.332 120.726 305.851 119.94C306.093 119.866 306.306 119.716 306.457 119.513C306.609 119.309 306.693 119.063 306.696 118.809C306.698 118.555 306.62 118.307 306.472 118.101C306.325 117.895 306.115 117.742 305.875 117.665L305.886 117.669ZM328.584 128.636C328.342 128.556 328.079 128.557 327.837 128.639C327.594 128.721 327.384 128.879 327.238 129.09C327.092 129.301 327.018 129.554 327.026 129.811C327.034 130.068 327.125 130.314 327.284 130.514C328.945 132.596 330.55 134.717 332.061 136.825C332.15 136.955 332.265 137.066 332.398 137.151C332.531 137.236 332.679 137.294 332.835 137.321C332.991 137.347 333.15 137.342 333.304 137.306C333.458 137.27 333.603 137.204 333.731 137.111C333.859 137.017 333.968 136.9 334.05 136.764C334.132 136.628 334.187 136.478 334.211 136.321C334.234 136.164 334.227 136.004 334.188 135.85C334.149 135.697 334.08 135.552 333.985 135.426C332.455 133.291 330.815 131.133 329.14 129.022C328.994 128.845 328.799 128.716 328.579 128.651L328.584 128.636ZM290.933 123.187C290.657 123.095 290.357 123.109 290.09 123.225C287.613 124.301 285.163 125.453 282.805 126.651C282.524 126.794 282.31 127.044 282.212 127.344C282.113 127.645 282.137 127.972 282.279 128.254C282.42 128.536 282.668 128.749 282.967 128.847C283.266 128.945 283.592 128.92 283.873 128.777C286.186 127.601 288.593 126.469 291.025 125.412C291.247 125.316 291.435 125.154 291.563 124.948C291.691 124.742 291.754 124.502 291.742 124.259C291.731 124.017 291.647 123.784 291.5 123.592C291.354 123.4 291.152 123.257 290.922 123.184L290.933 123.187ZM337.864 141.597C337.697 141.543 337.52 141.526 337.346 141.549C337.172 141.571 337.005 141.633 336.857 141.728C336.591 141.898 336.404 142.168 336.336 142.476C336.268 142.785 336.325 143.107 336.493 143.373C337.926 145.618 339.286 147.906 340.539 150.164C340.692 150.439 340.948 150.642 341.251 150.728C341.553 150.813 341.878 150.775 342.153 150.62C342.428 150.465 342.631 150.207 342.717 149.903C342.803 149.599 342.765 149.273 342.612 148.998C341.335 146.699 339.967 144.371 338.495 142.083C338.343 141.858 338.118 141.691 337.859 141.612L337.864 141.597ZM276.718 130.444C276.559 130.391 276.39 130.372 276.223 130.39C276.056 130.407 275.895 130.46 275.749 130.545C273.42 131.924 271.136 133.389 268.961 134.894C268.702 135.074 268.524 135.349 268.466 135.66C268.408 135.971 268.476 136.292 268.654 136.552C268.832 136.812 269.106 136.99 269.415 137.046C269.724 137.103 270.044 137.034 270.303 136.855C272.446 135.385 274.671 133.947 276.951 132.593C277.221 132.432 277.418 132.17 277.497 131.864C277.576 131.558 277.531 131.234 277.371 130.962C277.224 130.715 276.991 130.531 276.718 130.444ZM345.581 155.561C345.36 155.488 345.123 155.482 344.898 155.544C344.674 155.605 344.472 155.732 344.318 155.907C344.164 156.083 344.065 156.3 344.033 156.531C344 156.762 344.036 156.998 344.136 157.209C345.271 159.611 346.296 162.049 347.249 164.463C347.368 164.748 347.594 164.975 347.878 165.096C348.162 165.216 348.482 165.221 348.77 165.108C349.058 164.995 349.291 164.774 349.42 164.492C349.549 164.21 349.563 163.889 349.461 163.597C348.507 161.133 347.439 158.639 346.28 156.183C346.212 156.037 346.115 155.907 345.995 155.801C345.876 155.694 345.736 155.613 345.584 155.562L345.581 155.561ZM263.617 139.531C263.429 139.47 263.229 139.458 263.035 139.494C262.841 139.531 262.658 139.616 262.505 139.741C260.398 141.443 258.354 143.233 256.43 145.063C256.317 145.172 256.227 145.302 256.165 145.446C256.102 145.589 256.069 145.744 256.066 145.901C256.063 146.057 256.091 146.213 256.148 146.359C256.205 146.504 256.29 146.637 256.398 146.75C256.506 146.862 256.635 146.952 256.778 147.014C256.921 147.076 257.075 147.11 257.231 147.112C257.387 147.115 257.542 147.086 257.687 147.028C257.832 146.971 257.965 146.885 258.077 146.776C259.954 144.99 261.951 143.243 264.004 141.577C264.171 141.442 264.299 141.265 264.374 141.064C264.449 140.862 264.468 140.645 264.43 140.434C264.392 140.223 264.298 140.026 264.158 139.864C264.018 139.703 263.837 139.583 263.634 139.516L263.617 139.531ZM351.312 170.448C351.106 170.381 350.886 170.373 350.675 170.423C350.464 170.473 350.27 170.581 350.116 170.733C349.961 170.886 349.85 171.078 349.796 171.289C349.742 171.5 349.747 171.722 349.81 171.93C350.194 173.222 350.558 174.537 350.89 175.837C351.222 177.137 351.489 178.328 351.748 179.57C351.813 179.88 351.997 180.151 352.26 180.324C352.524 180.497 352.845 180.557 353.154 180.492C353.463 180.426 353.733 180.24 353.906 179.975C354.079 179.71 354.14 179.387 354.076 179.077C353.812 177.799 353.515 176.506 353.193 175.239C352.871 173.972 352.482 172.557 352.087 171.232C352.031 171.048 351.931 170.881 351.796 170.744C351.661 170.608 351.495 170.506 351.312 170.448ZM252.064 150.534C251.845 150.462 251.609 150.456 251.386 150.517C251.163 150.578 250.963 150.703 250.809 150.876C249.013 152.898 247.297 155.008 245.707 157.152C245.526 157.406 245.452 157.721 245.5 158.029C245.548 158.337 245.715 158.614 245.964 158.799C246.213 158.984 246.525 159.064 246.832 159.021C247.14 158.978 247.419 158.815 247.609 158.568C249.157 156.478 250.831 154.42 252.581 152.45C252.712 152.302 252.805 152.124 252.85 151.931C252.896 151.739 252.893 151.538 252.842 151.347C252.791 151.156 252.693 150.981 252.558 150.838C252.422 150.694 252.254 150.587 252.066 150.526L252.064 150.534ZM354.527 186.08C354.338 186.018 354.136 186.005 353.941 186.042C353.745 186.079 353.562 186.164 353.407 186.291C353.253 186.417 353.133 186.581 353.057 186.766C352.982 186.951 352.954 187.152 352.977 187.35C353.269 189.954 353.438 192.605 353.475 195.214C353.482 195.53 353.613 195.831 353.841 196.049C354.069 196.267 354.374 196.385 354.689 196.378C355.004 196.37 355.303 196.236 355.522 196.007C355.74 195.778 355.858 195.471 355.851 195.154C355.809 192.473 355.637 189.754 355.34 187.065C355.312 186.84 355.221 186.627 355.077 186.453C354.933 186.279 354.742 186.149 354.527 186.08ZM242.562 163.365C242.308 163.282 242.033 163.288 241.781 163.382C241.53 163.476 241.318 163.652 241.179 163.883C239.776 166.208 238.515 168.615 237.401 171.092C237.271 171.383 237.261 171.712 237.372 172.009C237.484 172.306 237.709 172.546 237.998 172.675C238.286 172.805 238.614 172.814 238.91 172.701C239.206 172.587 239.445 172.361 239.575 172.071C240.648 169.683 241.863 167.362 243.215 165.121C243.296 164.987 243.35 164.838 243.375 164.684C243.399 164.529 243.393 164.371 243.356 164.219C243.32 164.067 243.254 163.924 243.163 163.798C243.071 163.671 242.955 163.565 242.823 163.483C242.74 163.434 242.653 163.394 242.562 163.365ZM354.756 202.041C354.668 202.012 354.576 201.995 354.482 201.989C354.169 201.964 353.859 202.065 353.619 202.27C353.379 202.474 353.229 202.766 353.203 203.08C352.985 205.698 352.634 208.302 352.149 210.884C352.12 211.038 352.122 211.196 352.154 211.349C352.185 211.502 352.247 211.647 352.335 211.776C352.422 211.905 352.535 212.015 352.665 212.101C352.795 212.186 352.941 212.245 353.094 212.273C353.247 212.302 353.404 212.3 353.557 212.268C353.71 212.235 353.854 212.173 353.983 212.084C354.112 211.996 354.222 211.883 354.307 211.751C354.393 211.62 354.451 211.473 354.48 211.32C354.979 208.657 355.341 205.97 355.564 203.271C355.587 203.004 355.52 202.738 355.373 202.515C355.227 202.292 355.009 202.125 354.756 202.041ZM235.998 177.916C235.699 177.819 235.374 177.844 235.093 177.988C234.812 178.131 234.599 178.381 234.501 178.681C233.681 181.267 233.003 183.895 232.469 186.554C232.406 186.866 232.469 187.19 232.644 187.454C232.819 187.719 233.092 187.903 233.402 187.965C233.713 188.027 234.035 187.962 234.299 187.786C234.563 187.609 234.747 187.334 234.81 187.022C235.328 184.451 235.986 181.909 236.778 179.409C236.825 179.259 236.842 179.102 236.828 178.945C236.814 178.789 236.77 178.638 236.697 178.499C236.625 178.36 236.526 178.237 236.406 178.137C236.286 178.038 236.147 177.962 235.998 177.916ZM351.797 217.738L351.774 217.73C351.625 217.685 351.469 217.669 351.314 217.685C351.159 217.7 351.008 217.746 350.87 217.82C350.733 217.894 350.611 217.994 350.512 218.115C350.413 218.236 350.338 218.375 350.292 218.525C350.142 218.986 349.992 219.443 349.843 219.9C349.175 221.943 348.409 223.959 347.564 225.894C347.437 226.185 347.43 226.515 347.545 226.81C347.659 227.106 347.886 227.343 348.176 227.47C348.465 227.596 348.793 227.602 349.088 227.486C349.382 227.37 349.619 227.141 349.746 226.85C350.619 224.84 351.413 222.754 352.104 220.639C352.258 220.167 352.414 219.691 352.568 219.219C352.66 218.919 352.63 218.595 352.486 218.318C352.341 218.041 352.094 217.832 351.797 217.738ZM232.843 193.574C232.758 193.547 232.671 193.53 232.582 193.522C232.269 193.493 231.957 193.591 231.714 193.793C231.472 193.996 231.319 194.286 231.29 194.601C231.043 197.299 230.939 200.009 230.978 202.717C230.981 202.874 231.015 203.029 231.078 203.172C231.141 203.315 231.231 203.445 231.344 203.553C231.456 203.661 231.589 203.745 231.735 203.802C231.88 203.858 232.035 203.885 232.192 203.881C232.348 203.877 232.501 203.843 232.644 203.779C232.787 203.715 232.916 203.624 233.024 203.511C233.132 203.397 233.217 203.263 233.274 203.117C233.33 202.971 233.358 202.815 233.354 202.658C233.314 200.04 233.412 197.42 233.649 194.811C233.673 194.544 233.607 194.276 233.461 194.051C233.315 193.826 233.097 193.658 232.843 193.574ZM345.404 232.362C345.148 232.278 344.87 232.285 344.618 232.381C344.365 232.477 344.152 232.656 344.014 232.89C342.682 235.149 341.208 237.321 339.599 239.39C339.433 239.642 339.368 239.946 339.417 240.243C339.466 240.54 339.625 240.807 339.862 240.99C340.099 241.174 340.396 241.26 340.695 241.232C340.993 241.203 341.27 241.063 341.47 240.838C343.139 238.695 344.669 236.447 346.052 234.108C346.132 233.973 346.184 233.824 346.206 233.669C346.229 233.514 346.22 233.356 346.182 233.205C346.143 233.053 346.075 232.911 345.982 232.786C345.889 232.661 345.772 232.555 345.637 232.476C345.564 232.43 345.486 232.391 345.404 232.362ZM233.082 209.534C232.915 209.48 232.739 209.464 232.565 209.486C232.41 209.506 232.261 209.556 232.125 209.634C231.99 209.712 231.87 209.816 231.775 209.94C231.679 210.064 231.608 210.206 231.567 210.357C231.526 210.508 231.515 210.666 231.534 210.821C231.867 213.512 232.349 216.182 232.978 218.818C233.052 219.126 233.245 219.391 233.513 219.555C233.646 219.636 233.794 219.69 233.948 219.714C234.102 219.738 234.26 219.731 234.411 219.694C234.563 219.657 234.706 219.59 234.832 219.498C234.958 219.405 235.065 219.288 235.146 219.154C235.228 219.021 235.282 218.872 235.306 218.717C235.331 218.562 235.324 218.404 235.288 218.252C234.675 215.707 234.208 213.128 233.887 210.529C233.862 210.303 233.773 210.089 233.63 209.912C233.487 209.736 233.297 209.605 233.082 209.534ZM335.601 244.932C335.396 244.866 335.177 244.858 334.967 244.908C334.758 244.958 334.565 245.064 334.411 245.216C332.543 247.035 330.552 248.721 328.451 250.262C328.304 250.344 328.177 250.457 328.076 250.593C327.976 250.729 327.906 250.885 327.87 251.05C327.834 251.215 327.834 251.385 327.868 251.55C327.903 251.715 327.972 251.871 328.071 252.006C328.171 252.142 328.297 252.255 328.443 252.338C328.589 252.421 328.751 252.472 328.919 252.487C329.086 252.502 329.255 252.481 329.413 252.426C329.572 252.371 329.718 252.282 329.84 252.166C332.035 250.563 334.113 248.804 336.058 246.904C336.278 246.683 336.403 246.385 336.407 246.074C336.41 245.763 336.293 245.463 336.079 245.238C335.948 245.098 335.783 244.992 335.601 244.932ZM236.824 225.025C236.57 224.942 236.296 224.948 236.045 225.042C235.899 225.097 235.765 225.18 235.65 225.287C235.536 225.394 235.443 225.522 235.378 225.665C235.313 225.807 235.277 225.961 235.271 226.118C235.265 226.274 235.29 226.43 235.344 226.577C236.287 229.12 237.388 231.599 238.643 234.001C238.794 234.27 239.044 234.469 239.339 234.555C239.635 234.642 239.952 234.61 240.225 234.465C240.498 234.321 240.705 234.076 240.801 233.782C240.898 233.488 240.877 233.168 240.743 232.89C239.536 230.577 238.475 228.189 237.567 225.74C237.505 225.572 237.406 225.421 237.278 225.297C237.149 225.173 236.994 225.08 236.824 225.025ZM322.784 254.371C322.628 254.323 322.463 254.307 322.3 254.326C322.137 254.345 321.98 254.397 321.838 254.48C319.549 255.736 317.186 256.85 314.762 257.815C314.469 257.932 314.234 258.161 314.108 258.451C313.983 258.741 313.977 259.069 314.092 259.363C314.207 259.656 314.434 259.892 314.722 260.017C315.011 260.142 315.337 260.147 315.63 260.031C318.144 259.031 320.595 257.877 322.97 256.577C323.173 256.465 323.34 256.296 323.45 256.091C323.56 255.885 323.607 255.652 323.586 255.421C323.566 255.189 323.478 254.968 323.334 254.787C323.19 254.605 322.996 254.47 322.776 254.398L322.784 254.371ZM244.212 239.107C243.975 239.03 243.719 239.03 243.482 239.107C243.245 239.185 243.037 239.335 242.889 239.537C242.741 239.739 242.66 239.982 242.658 240.233C242.655 240.483 242.731 240.728 242.875 240.932C244.444 243.148 246.168 245.248 248.034 247.216C248.14 247.337 248.268 247.434 248.412 247.503C248.556 247.572 248.713 247.611 248.872 247.618C249.032 247.625 249.191 247.599 249.341 247.542C249.49 247.486 249.627 247.399 249.743 247.289C249.859 247.178 249.951 247.045 250.014 246.897C250.078 246.75 250.111 246.591 250.112 246.431C250.113 246.27 250.082 246.111 250.02 245.964C249.958 245.816 249.867 245.682 249.753 245.571C247.963 243.682 246.31 241.668 244.805 239.543C244.66 239.34 244.455 239.189 244.219 239.109L244.212 239.107ZM308.004 260.277C307.787 260.205 307.554 260.199 307.333 260.258C304.81 260.932 302.251 261.456 299.669 261.829C299.369 261.887 299.104 262.059 298.926 262.308C298.749 262.557 298.673 262.865 298.715 263.168C298.757 263.47 298.914 263.745 299.152 263.934C299.391 264.124 299.693 264.214 299.996 264.185C302.677 263.806 305.334 263.267 307.953 262.572C308.2 262.506 308.42 262.361 308.58 262.159C308.74 261.957 308.83 261.709 308.838 261.452C308.846 261.195 308.77 260.943 308.623 260.732C308.476 260.522 308.265 260.366 308.022 260.287L308.004 260.277ZM292.28 262.533C292.152 262.492 292.018 262.472 291.883 262.475C289.28 262.532 286.676 262.428 284.086 262.163C283.928 262.139 283.766 262.148 283.611 262.189C283.456 262.23 283.31 262.302 283.184 262.401C283.057 262.499 282.951 262.623 282.873 262.764C282.795 262.904 282.746 263.06 282.729 263.22C282.712 263.38 282.727 263.542 282.774 263.695C282.821 263.849 282.899 263.992 283.003 264.114C283.106 264.237 283.233 264.337 283.377 264.408C283.52 264.48 283.676 264.522 283.836 264.531C286.524 264.812 289.228 264.922 291.931 264.86C292.211 264.854 292.48 264.748 292.69 264.561C292.9 264.374 293.038 264.119 293.079 263.841C293.121 263.562 293.062 263.278 292.915 263.04C292.768 262.801 292.541 262.622 292.275 262.536L292.28 262.533ZM255.155 250.614C254.89 250.53 254.604 250.542 254.347 250.648C254.089 250.754 253.876 250.948 253.746 251.195C253.616 251.442 253.576 251.727 253.634 252.001C253.691 252.274 253.843 252.518 254.061 252.689C256.196 254.36 258.448 255.874 260.8 257.22C261.073 257.376 261.397 257.417 261.701 257.333C262.004 257.249 262.263 257.048 262.419 256.773C262.576 256.498 262.618 256.173 262.535 255.868C262.453 255.563 262.253 255.304 261.98 255.148C259.728 253.859 257.572 252.409 255.528 250.811C255.417 250.722 255.291 250.655 255.155 250.614ZM276.495 260.878L276.405 260.848C273.879 260.24 271.398 259.459 268.98 258.51C268.686 258.394 268.359 258.401 268.07 258.528C267.781 258.655 267.554 258.892 267.438 259.187C267.323 259.482 267.328 259.81 267.454 260.1C267.579 260.39 267.814 260.618 268.108 260.733C270.628 261.722 273.213 262.536 275.846 263.17C276.149 263.255 276.473 263.217 276.748 263.062C277.024 262.907 277.227 262.649 277.313 262.345C277.399 262.04 277.362 261.714 277.208 261.439C277.055 261.163 276.799 260.96 276.496 260.874L276.495 260.878Z" fill="#4CB1FF"/>
<path d="M512.817 154.297C512.671 154.241 512.516 154.215 512.36 154.22C512.204 154.224 512.05 154.26 511.908 154.324C511.766 154.388 511.637 154.48 511.53 154.594C511.423 154.708 511.339 154.842 511.283 154.989C511.227 155.135 511.2 155.291 511.205 155.448C511.209 155.605 511.244 155.759 511.307 155.901C511.371 156.044 511.462 156.173 511.575 156.28C511.688 156.388 511.821 156.472 511.967 156.527L515.581 158.126C515.87 158.254 516.198 158.26 516.493 158.144C516.788 158.029 517.025 157.8 517.152 157.509C517.28 157.218 517.287 156.889 517.173 156.593C517.059 156.297 516.832 156.06 516.543 155.933L512.91 154.327L512.817 154.297Z" fill="#4CB1FF"/>
</g>
<defs>
<clipPath id="clip0_302_11981">
<rect width="501.75" height="182.233" fill="white" transform="matrix(0.950528 0.310638 0.310638 -0.950528 0 173.218)"/>
</clipPath>
</defs>
</svg>
