<svg width="21" height="20" viewBox="0 0 21 20" fill="none" xmlns="http://www.w3.org/2000/svg">
<path d="M7.0015 9C9.21063 9 11.0015 7.20914 11.0015 5C11.0015 2.79086 9.21063 1 7.0015 1C4.79236 1 3.0015 2.79086 3.0015 5C3.0015 7.20914 4.79236 9 7.0015 9Z" stroke="#EF6820" stroke-width="1.5" stroke-linecap="round" stroke-linejoin="round"/>
<path d="M1.00003 19V17C1.00003 15.9391 1.42146 14.9217 2.1716 14.1716C2.92175 13.4214 3.93916 13 5.00003 13H9.00003C10.0609 13 11.0783 13.4214 11.8285 14.1716C12.5786 14.9217 13 15.9391 13 17V19" stroke="#EF6820" stroke-width="1.5" stroke-linecap="round" stroke-linejoin="round"/>
<path d="M13.9991 9L15.9991 11L19.9991 7" stroke="#EF6820" stroke-width="1.5" stroke-linecap="round" stroke-linejoin="round"/>
</svg>
