<svg width="1280" height="189" viewBox="0 0 1280 189" fill="none" xmlns="http://www.w3.org/2000/svg">
<path d="M1488 0.5L982.787 116.278C937.057 126.758 889.097 120.827 847.296 99.5235L762.309 56.2099C695.243 22.0293 614.665 28.4001 553.803 72.6953L480.716 125.888C426.553 165.308 356.253 174.993 293.449 151.689L-114 0.5" stroke="#4CB1FF" stroke-dasharray="11 11"/>
<g clip-path="url(#clip0_125_7377)">
<path d="M569.189 92.2744C570.69 91.3892 571.585 89.7504 571.539 87.9708L571.083 69.8366C571.051 68.5792 571.68 67.4136 572.736 66.7769L578.541 63.2787C579.986 62.4076 581.21 61.2129 582.121 59.7776L582.711 58.8477C583.184 58.1055 582.591 57.1122 581.709 57.1689L580.605 57.2385C578.907 57.3462 577.263 57.8379 575.801 58.681L569.929 62.0673C568.861 62.683 567.532 62.677 566.435 62.0423L550.641 52.9612C549.092 52.0687 547.216 52.0637 545.714 52.9488C552.376 57.031 558.575 63.3764 561.072 66.0793C561.413 66.4503 561.336 67.0302 560.912 67.2756L559.842 66.1997C559.321 65.6744 558.497 65.6354 557.954 66.1066L556.499 67.3763C556.302 67.5488 556.171 67.7826 556.123 68.0423C556.073 68.313 555.933 68.5564 555.722 68.7278L555.186 69.1715L555.918 68.901C556.145 68.8191 556.394 68.8046 556.632 68.8722L557.033 68.981L557.678 69.1443L556.433 69.8644C555.632 70.3271 554.895 70.8892 554.245 71.5422L550.957 74.8236L546.832 71.4354C545.947 70.7088 544.702 70.6816 543.825 71.364L542.5 72.3964L548.481 77.2907L547.564 78.2052C547.414 78.3551 547.569 78.6139 547.773 78.555L549.02 78.193L550.475 85.7567L552.034 85.0926C553.05 84.659 553.624 83.569 553.414 82.454L552.435 77.2058L556.861 75.9245C557.753 75.6682 558.602 75.295 559.391 74.8204L560.624 74.0793L560.459 74.7203L560.363 75.1222C560.306 75.3589 560.176 75.5727 559.995 75.7316L559.406 76.2399L560.054 75.9851C560.307 75.8836 560.589 75.878 560.852 75.9641C561.104 76.0471 561.374 76.0441 561.62 75.9556L563.439 75.2945C564.115 75.0471 564.472 74.3117 564.261 73.6038L563.824 72.1546C564.241 71.9042 564.793 72.1127 564.957 72.5881C566.147 76.0617 568.785 84.5121 569.191 92.2779L569.189 92.2744Z" fill="#4CB1FF"/>
</g>
<defs>
<clipPath id="clip0_125_7377">
<rect width="45.7989" height="42.062" fill="white" transform="matrix(0.512551 0.858657 -0.861409 0.507913 570.983 38.0499)"/>
</clipPath>
</defs>
</svg>
