<svg width="41" height="41" viewBox="0 0 41 41" fill="none" xmlns="http://www.w3.org/2000/svg">
<path d="M27.1887 40.2744C28.6899 39.3892 29.5847 37.7504 29.5395 35.9708L29.0834 17.8366C29.0507 16.5792 29.6803 15.4136 30.7361 14.7769L36.5407 11.2787C37.9858 10.4076 39.2102 9.2129 40.1206 7.77764L40.7115 6.84768C41.1843 6.10551 40.5913 5.11222 39.7094 5.16889L38.605 5.23848C36.9066 5.34618 35.2627 5.83794 33.8008 6.68099L27.9295 10.0673C26.8612 10.683 25.5321 10.677 24.4353 10.0423L8.64142 0.961155C7.09162 0.0686957 5.21556 0.0636908 3.71438 0.948833C10.3759 5.03101 16.5751 11.3764 19.0721 14.0793C19.4133 14.4503 19.336 15.0302 18.9118 15.2756L17.8416 14.1997C17.321 13.6744 16.4969 13.6354 15.9544 14.1066L14.4987 15.3763C14.3025 15.5488 14.1705 15.7826 14.1231 16.0423C14.0729 16.313 13.9329 16.5564 13.7223 16.7278L13.1863 17.1715L13.9177 16.901C14.1449 16.8191 14.394 16.8046 14.6322 16.8722L15.0331 16.981L15.6783 17.1443L14.433 17.8644C13.6323 18.3271 12.8955 18.8892 12.2452 19.5422L8.95748 22.8236L4.83185 19.4354C3.9471 18.7088 2.7021 18.6816 1.82544 19.364L0.499585 20.3964L6.4815 25.2907L5.56394 26.2052C5.41407 26.3551 5.56856 26.6139 5.77272 26.555L7.02013 26.193L8.47467 33.7567L10.0341 33.0926C11.0501 32.659 11.6236 31.569 11.4137 30.454L10.4347 25.2058L14.8611 23.9245C15.7528 23.6682 16.6023 23.295 17.3913 22.8204L18.6241 22.0793L18.4591 22.7203L18.363 23.1222C18.3064 23.3589 18.1763 23.5727 17.995 23.7316L17.4056 24.2399L18.0543 23.9851C18.3066 23.8836 18.5887 23.878 18.8517 23.9641C19.1038 24.0471 19.3735 24.0441 19.6199 23.9556L21.4388 23.2945C22.115 23.0471 22.4721 22.3117 22.2613 21.6038L21.8242 20.1546C22.2408 19.9042 22.7933 20.1127 22.9574 20.5881C24.1473 24.0617 26.7846 32.5121 27.1908 40.2779L27.1887 40.2744Z" fill="#4CB1FF"/>
</svg>
