<svg width="1157" height="722" viewBox="0 0 1157 722" fill="none" xmlns="http://www.w3.org/2000/svg">
<path d="M296.017 662.741C204.158 649.462 109.059 589.721 61.8362 502.432C14.6655 415.681 15.2673 300.304 71.2822 216.472C127.297 132.64 239.284 79.7559 342.589 64.7129C445.894 49.6699 540.622 73.5463 626.959 99.8787C713.348 126.75 790.841 157.215 870.056 211.988C949.272 266.762 1030.21 345.844 1034.03 430.326C1037.85 514.808 965.105 604.09 874.447 635.297C783.738 665.966 675.062 638.02 576.11 640.668C477.105 642.778 388.486 675.96 296.017 662.741Z" fill="#4CB1FF" fill-opacity="0.06"/>
<path d="M548.968 181.389C548.571 179.116 546.991 177.23 544.831 176.44L522.759 168.354C521.226 167.794 520.105 166.462 519.807 164.86L518.176 156.041C517.769 153.843 516.876 151.767 515.554 149.965L514.694 148.795C514.012 147.861 512.551 148.116 512.226 149.229L511.816 150.622C511.188 152.764 511.05 155.024 511.417 157.229L512.88 166.075C513.146 167.688 512.543 169.32 511.294 170.366L493.283 185.48C491.517 186.964 490.678 189.273 491.073 191.542C498.966 185.285 509.388 180.679 513.759 178.891C514.356 178.645 515.024 179.023 515.127 179.658L513.352 180.464C512.484 180.855 512.07 181.849 512.401 182.743L513.282 185.139C513.402 185.461 513.626 185.739 513.917 185.919C514.222 186.111 514.451 186.403 514.565 186.741L514.856 187.611L514.855 186.582C514.854 186.26 514.953 185.951 515.135 185.687L515.447 185.247L515.932 184.53L516.242 186.406C516.442 187.612 516.794 188.785 517.288 189.903L519.781 195.521L513.856 198.984C512.586 199.727 511.997 201.242 512.43 202.652L513.086 204.776L521.654 199.741L522.35 201.305C522.462 201.56 522.845 201.494 522.864 201.215L522.985 199.51L532.754 201.327L532.646 199.088C532.577 197.625 531.516 196.403 530.08 196.132L523.313 194.839L523.745 188.776C523.833 187.559 523.765 186.333 523.541 185.132L523.196 183.264L523.895 183.773L524.336 184.084C524.596 184.269 524.797 184.529 524.907 184.83L525.258 185.8L525.237 184.881C525.226 184.52 525.347 184.169 525.568 183.889C525.78 183.62 525.898 183.282 525.898 182.936L525.914 180.383C525.918 179.435 525.193 178.639 524.243 178.561L522.299 178.405C522.18 177.771 522.681 177.19 523.324 177.218C528.043 177.408 539.407 178.196 548.957 181.397L548.968 181.389Z" fill="#4CB1FF"/>
<path d="M1176 113.001L1132.11 154.507C1118.88 167.026 1101.35 174.001 1083.13 174.001H1059.66C1020.57 174.001 1007.93 121.441 1042.74 103.665V103.665C1044.87 102.578 1047.26 102.12 1049.64 102.345L1060.74 103.392C1091.15 106.264 1099.34 146.86 1072.41 161.295L1038.49 179.478C1024.34 187.067 1012.02 197.677 1002.43 210.555L878.367 377.015C828.94 443.334 729.886 444.226 679.274 378.806L586.682 259.124C576.733 246.265 563.601 236.224 548.583 229.993V229.993C533.687 223.812 523.235 210.135 521.184 194.139L519.5 181.001" stroke="#4CB1FF" stroke-dasharray="11 11"/>
</svg>
