<svg width="551" height="387" viewBox="0 0 551 387" fill="none" xmlns="http://www.w3.org/2000/svg">
<path d="M94 256.94L187.201 195.224C190.723 192.892 195.472 193.857 197.801 197.374L274.436 313.104C276.827 316.715 275.834 321.591 272.221 323.983L179.188 385.588L94 256.94Z" fill="#0F5F9C"/>
<path d="M119.367 263.556L122.035 267.585L120.15 268.834L112.969 257.988L117.121 255.239C117.751 254.822 118.368 254.536 118.971 254.383C119.573 254.23 120.146 254.196 120.688 254.28C121.23 254.364 121.728 254.56 122.184 254.864C122.64 255.168 123.033 255.571 123.362 256.068C123.711 256.595 123.935 257.124 124.034 257.658C124.134 258.193 124.11 258.714 123.963 259.226C123.816 259.738 123.548 260.232 123.161 260.711C122.775 261.19 122.264 261.637 121.634 262.055L119.367 263.556ZM118.366 262.043L120.633 260.542C120.994 260.303 121.278 260.052 121.481 259.789C121.682 259.527 121.813 259.258 121.874 258.983C121.934 258.706 121.928 258.43 121.857 258.154C121.784 257.876 121.659 257.605 121.481 257.336C121.314 257.084 121.115 256.865 120.883 256.683C120.652 256.502 120.39 256.375 120.102 256.306C119.813 256.237 119.502 256.235 119.172 256.302C118.84 256.367 118.492 256.52 118.129 256.761L115.862 258.262L118.367 262.045L118.366 262.043Z" fill="#AEC3FF"/>
<path d="M132.982 256.704L128.778 259.487L129.572 262.595L127.611 263.893L124.53 250.333L126.222 249.212L137.51 257.338L135.541 258.642L132.982 256.704ZM128.301 257.617L131.446 255.534L126.894 252.077L128.301 257.617Z" fill="#AEC3FF"/>
<path d="M142.562 249.974C142.417 249.756 142.256 249.582 142.077 249.455C141.899 249.327 141.676 249.246 141.41 249.216C141.144 249.186 140.816 249.204 140.429 249.272C140.042 249.339 139.562 249.457 138.996 249.626C138.377 249.815 137.783 249.954 137.214 250.045C136.645 250.136 136.116 250.155 135.625 250.1C135.135 250.047 134.688 249.906 134.282 249.683C133.877 249.46 133.527 249.125 133.235 248.684C132.943 248.243 132.773 247.784 132.717 247.293C132.66 246.801 132.71 246.311 132.87 245.819C133.031 245.327 133.298 244.849 133.671 244.388C134.044 243.927 134.518 243.507 135.088 243.129C135.699 242.725 136.306 242.449 136.91 242.303C137.514 242.158 138.084 242.124 138.619 242.206C139.155 242.286 139.645 242.468 140.088 242.749C140.531 243.03 140.904 243.397 141.202 243.849L139.323 245.093C139.148 244.829 138.947 244.616 138.719 244.447C138.491 244.281 138.239 244.173 137.962 244.122C137.687 244.073 137.391 244.089 137.073 244.17C136.756 244.252 136.421 244.411 136.069 244.644C135.737 244.864 135.473 245.093 135.277 245.328C135.083 245.562 134.95 245.802 134.875 246.043C134.803 246.283 134.789 246.521 134.833 246.757C134.877 246.991 134.971 247.215 135.113 247.429C135.379 247.831 135.792 248.04 136.349 248.057C136.907 248.074 137.652 247.938 138.583 247.65C139.311 247.425 139.974 247.272 140.564 247.195C141.156 247.118 141.691 247.118 142.168 247.199C142.648 247.279 143.072 247.444 143.446 247.694C143.818 247.945 144.148 248.284 144.435 248.717C144.737 249.174 144.918 249.646 144.978 250.129C145.039 250.615 144.986 251.096 144.82 251.575C144.653 252.054 144.377 252.517 143.99 252.97C143.604 253.423 143.118 253.842 142.531 254.231C142.01 254.576 141.448 254.845 140.847 255.04C140.247 255.234 139.649 255.321 139.059 255.303C138.47 255.285 137.909 255.142 137.379 254.878C136.85 254.614 136.395 254.195 136.013 253.619L137.898 252.371C138.125 252.712 138.381 252.966 138.666 253.132C138.95 253.298 139.25 253.388 139.565 253.405C139.879 253.423 140.205 253.37 140.541 253.251C140.876 253.131 141.21 252.962 141.544 252.74C142.2 252.306 142.605 251.846 142.759 251.361C142.913 250.876 142.845 250.415 142.557 249.98L142.562 249.974Z" fill="#AEC3FF"/>
<path d="M151.776 243.872C151.631 243.654 151.471 243.48 151.292 243.353C151.115 243.224 150.89 243.144 150.625 243.114C150.359 243.084 150.03 243.102 149.643 243.17C149.256 243.237 148.776 243.355 148.21 243.524C147.592 243.713 146.998 243.853 146.429 243.943C145.859 244.034 145.331 244.053 144.84 243.998C144.35 243.945 143.902 243.804 143.497 243.581C143.092 243.358 142.742 243.024 142.449 242.582C142.157 242.141 141.988 241.682 141.931 241.191C141.875 240.699 141.925 240.209 142.087 239.715C142.247 239.223 142.515 238.746 142.887 238.285C143.26 237.824 143.734 237.404 144.305 237.026C144.915 236.622 145.522 236.346 146.126 236.2C146.731 236.054 147.3 236.02 147.836 236.103C148.372 236.183 148.861 236.364 149.305 236.645C149.748 236.926 150.12 237.294 150.419 237.745L148.54 238.99C148.365 238.725 148.164 238.513 147.935 238.344C147.707 238.177 147.456 238.07 147.179 238.019C146.903 237.97 146.608 237.985 146.29 238.067C145.972 238.149 145.637 238.308 145.285 238.541C144.953 238.761 144.69 238.989 144.494 239.225C144.298 239.46 144.167 239.699 144.092 239.94C144.019 240.18 144.005 240.418 144.05 240.654C144.093 240.888 144.187 241.112 144.329 241.326C144.595 241.728 145.008 241.937 145.566 241.954C146.123 241.971 146.868 241.834 147.799 241.547C148.528 241.321 149.19 241.168 149.781 241.092C150.373 241.014 150.908 241.015 151.385 241.096C151.864 241.176 152.288 241.341 152.662 241.591C153.034 241.842 153.364 242.18 153.651 242.614C153.954 243.071 154.135 243.542 154.195 244.026C154.256 244.511 154.203 244.993 154.036 245.471C153.87 245.95 153.593 246.414 153.207 246.867C152.82 247.32 152.334 247.739 151.748 248.127C151.227 248.472 150.664 248.742 150.064 248.937C149.463 249.131 148.866 249.218 148.276 249.2C147.685 249.18 147.125 249.039 146.596 248.775C146.066 248.511 145.611 248.092 145.23 247.516L147.115 246.267C147.341 246.609 147.598 246.862 147.882 247.028C148.167 247.194 148.466 247.285 148.781 247.302C149.096 247.319 149.421 247.267 149.757 247.147C150.093 247.028 150.427 246.858 150.761 246.637C151.417 246.203 151.822 245.743 151.976 245.258C152.129 244.773 152.062 244.312 151.773 243.877L151.776 243.872Z" fill="#AEC3FF"/>
<path d="M156.384 239.043L159.053 243.073L157.168 244.321L149.986 233.476L154.138 230.726C154.768 230.309 155.386 230.023 155.988 229.87C156.59 229.717 157.163 229.684 157.705 229.768C158.247 229.852 158.746 230.048 159.202 230.352C159.657 230.656 160.05 231.059 160.379 231.556C160.728 232.082 160.952 232.611 161.052 233.146C161.151 233.68 161.127 234.202 160.98 234.714C160.833 235.226 160.565 235.72 160.179 236.199C159.792 236.678 159.281 237.125 158.651 237.542L156.384 239.043ZM155.383 237.531L157.65 236.03C158.012 235.79 158.295 235.54 158.496 235.278C158.697 235.016 158.828 234.747 158.889 234.472C158.949 234.195 158.943 233.919 158.872 233.643C158.8 233.365 158.674 233.093 158.497 232.825C158.33 232.573 158.13 232.353 157.898 232.172C157.667 231.991 157.405 231.864 157.117 231.795C156.828 231.726 156.517 231.723 156.187 231.791C155.855 231.856 155.508 232.009 155.146 232.249L152.879 233.75L155.384 237.533L155.383 237.531Z" fill="#AEC3FF"/>
<path d="M172.181 226.985C172.727 227.81 173.109 228.62 173.324 229.415C173.54 230.213 173.601 230.967 173.511 231.681C173.421 232.395 173.178 233.057 172.789 233.666C172.398 234.273 171.868 234.802 171.197 235.245C170.527 235.689 169.843 235.968 169.13 236.088C168.419 236.211 167.71 236.177 167.009 235.987C166.308 235.796 165.632 235.449 164.976 234.943C164.323 234.435 163.723 233.772 163.177 232.947L162.813 232.397C162.266 231.572 161.888 230.759 161.675 229.958C161.461 229.156 161.401 228.395 161.494 227.676C161.587 226.957 161.829 226.294 162.218 225.685C162.608 225.078 163.137 224.55 163.801 224.11C164.465 223.671 165.164 223.382 165.881 223.259C166.596 223.134 167.302 223.173 168 223.368C168.699 223.563 169.371 223.918 170.022 224.43C170.673 224.942 171.27 225.61 171.816 226.435L172.181 226.985ZM169.921 227.667C169.519 227.061 169.108 226.565 168.683 226.178C168.257 225.79 167.832 225.515 167.399 225.35C166.969 225.183 166.536 225.13 166.105 225.183C165.672 225.238 165.25 225.4 164.837 225.674C164.423 225.948 164.125 226.263 163.91 226.637C163.694 227.011 163.574 227.431 163.557 227.893C163.537 228.356 163.622 228.86 163.809 229.405C163.995 229.95 164.288 230.525 164.689 231.132L165.064 231.698C165.465 232.304 165.882 232.8 166.313 233.186C166.743 233.573 167.177 233.848 167.614 234.011C168.052 234.175 168.486 234.231 168.919 234.176C169.352 234.121 169.769 233.961 170.171 233.695C171.006 233.142 171.438 232.399 171.466 231.466C171.495 230.532 171.105 229.456 170.296 228.233L169.921 227.667Z" fill="#AEC3FF"/>
<path d="M178.686 224.061L176.584 225.453L179.351 229.632L177.466 230.88L170.284 220.035L174.1 217.508C174.72 217.097 175.323 216.801 175.903 216.62C176.484 216.438 177.034 216.374 177.551 216.429C178.069 216.483 178.55 216.656 178.993 216.949C179.436 217.242 179.835 217.655 180.19 218.191C180.671 218.916 180.898 219.64 180.872 220.361C180.846 221.082 180.605 221.781 180.154 222.46L185.585 225.366L185.65 225.464L183.629 226.801L178.685 224.064L178.686 224.061ZM175.582 223.941L177.521 222.657C177.859 222.433 178.127 222.193 178.32 221.937C178.513 221.68 178.644 221.416 178.708 221.145C178.772 220.874 178.774 220.601 178.713 220.327C178.652 220.053 178.536 219.784 178.361 219.52C178.177 219.241 177.97 219.015 177.742 218.844C177.512 218.67 177.263 218.557 176.992 218.506C176.72 218.454 176.429 218.467 176.114 218.549C175.8 218.632 175.465 218.791 175.107 219.028L173.176 220.306L175.582 223.941Z" fill="#AEC3FF"/>
<path d="M188.283 210.3L184.898 212.541L191.074 221.866L189.202 223.105L183.027 213.78L179.673 216.002L178.666 214.481L187.276 208.78L188.283 210.3Z" fill="#AEC3FF"/>
<path d="M227.388 333.812L212.422 343.721C211.941 344.04 211.29 343.908 210.972 343.427C210.653 342.946 210.784 342.297 211.267 341.977L226.232 332.067C226.714 331.748 227.363 331.878 227.683 332.361C228.001 332.842 227.871 333.492 227.388 333.812Z" fill="#AEC3FF"/>
<path d="M240.804 330.91L204.512 354.942C204.031 355.26 203.381 355.13 203.062 354.647C202.743 354.167 202.874 353.517 203.357 353.197L239.648 329.165C240.13 328.847 240.779 328.977 241.099 329.46C241.417 329.941 241.287 330.59 240.804 330.91Z" fill="#AEC3FF"/>
<path d="M211.491 326.059C202.01 332.337 190.652 334.55 179.51 332.29C168.369 330.032 158.78 323.567 152.505 314.091C146.23 304.615 144.025 293.264 146.291 282.125C148.56 270.984 155.03 261.395 164.513 255.115C173.996 248.836 185.351 246.624 196.492 248.883C207.634 251.143 217.222 257.605 223.497 267.081C229.772 276.558 231.977 287.909 229.711 299.048C227.442 310.188 220.973 319.78 211.491 326.059ZM164.772 255.507C155.394 261.717 148.995 271.202 146.752 282.22C144.509 293.238 146.691 304.464 152.896 313.835C159.101 323.206 168.585 329.597 179.605 331.833C190.624 334.068 201.855 331.879 211.233 325.67C220.61 319.46 227.009 309.975 229.253 298.957C231.494 287.94 229.314 276.712 223.109 267.341C216.903 257.97 207.42 251.579 196.4 249.344C185.38 247.108 174.15 249.297 164.772 255.507Z" fill="#AEC3FF"/>
<path d="M216.463 271.742C217.621 273.49 218.597 275.305 219.396 277.169C221.31 281.641 222.2 286.371 222.129 291.054C221.965 301.938 216.603 312.561 206.835 319.029C195.219 326.721 180.621 326.383 169.595 319.338C168.143 318.411 166.75 317.366 165.438 316.209C163.23 314.266 161.241 312.002 159.541 309.435C158.166 307.358 157.047 305.184 156.18 302.954C156.169 302.93 156.161 302.904 156.149 302.877C153.762 296.703 153.285 290.09 154.557 283.829C154.916 282.053 155.417 280.304 156.056 278.603C156.36 277.793 156.698 276.989 157.063 276.201C159.63 270.671 163.712 265.759 169.17 262.144C169.894 261.665 170.629 261.215 171.375 260.801C172.426 260.211 173.497 259.685 174.583 259.217C179.155 257.253 183.999 256.361 188.786 256.472C191.769 256.541 194.726 256.998 197.583 257.83C199.083 258.269 200.555 258.806 201.988 259.45C202.878 259.849 203.754 260.286 204.612 260.761C206.674 261.905 208.631 263.274 210.444 264.855C212.699 266.823 214.732 269.124 216.464 271.739L216.463 271.742Z" fill="#AEC3FF"/>
<path d="M169.902 284.261C169.957 286.811 173.632 288.865 169.663 290.27C165.691 291.677 163.358 292.676 164.422 294.692C165.483 296.711 168.229 294.892 169.545 296.879C170.861 298.866 170.064 300.337 167.546 300.647C165.028 300.956 163.576 299.946 161.938 302.254C160.299 304.562 158.648 304.841 157.023 303.468C156.737 303.225 156.453 303.065 156.176 302.957C156.165 302.932 156.157 302.907 156.145 302.88C153.758 296.706 153.281 290.093 154.553 283.832C154.912 282.056 155.413 280.306 156.052 278.606C156.356 277.795 156.694 276.992 157.059 276.204C157.967 275.649 159.252 275.283 160.894 275.802C164.512 276.945 165.022 274.838 166.427 277.989C167.833 281.14 168.842 281.018 170.387 279.857C171.933 278.697 173.826 277.443 174.829 278.548C175.833 279.653 169.845 281.712 169.898 284.263L169.902 284.261Z" fill="#94B0ED"/>
<path d="M192.959 293.483C192.959 293.483 190.985 295.948 189.162 294.637C187.34 293.325 187.848 292.446 185.278 293.398C182.708 294.351 181.518 292.964 180.223 294.093C178.928 295.222 180.015 295.32 179.173 297.647C178.331 299.974 176.439 300.409 177.99 302.647C179.54 304.884 182.235 303.611 183.719 304.772C185.203 305.933 184.772 307.136 186.59 307.565C188.407 307.994 190.064 306.181 190.176 308.354C190.286 310.525 189.665 312.671 191.972 314.614C194.279 316.556 193.876 317.026 196.21 317.93C198.545 318.833 201.262 317.848 200.865 316.48C200.468 315.111 197.494 314.936 197.381 313.378C197.268 311.821 198.85 311.894 198.149 309.912C197.447 307.927 199.175 306.783 198.533 305.507C197.892 304.231 194.479 303.907 194.829 302.586C195.179 301.266 198.292 302.265 198.366 299.495C198.437 296.727 196.537 295.81 196.718 293.103C196.901 290.398 193.214 291.819 192.955 293.485L192.959 293.483Z" fill="#94B0ED"/>
<path d="M216.463 271.742C217.621 273.491 218.597 275.305 219.396 277.169C221.31 281.641 222.2 286.371 222.129 291.054C221.541 291.798 220.767 292.302 219.813 292.499C215.325 293.43 215.414 287.86 215.566 285.004C215.717 282.149 212.661 285.399 208.861 285.363C205.06 285.33 204.824 278.649 202.642 281.215C200.46 283.782 197.852 286.936 194.554 285.347C191.255 283.755 193.954 281.356 191.149 280.049C188.345 278.742 189.629 276.057 192.185 274.058C194.743 272.059 193.118 270.379 196.267 267.886C199.415 265.392 202.162 269.696 205.664 266.968C209.167 264.24 209.566 265.201 209.566 265.201C209.827 265.017 210.121 264.903 210.444 264.851C212.7 266.819 214.733 269.12 216.464 271.735L216.463 271.742Z" fill="#94B0ED"/>
<path d="M204.614 260.763C202.532 264.289 198.613 261.044 196.796 264.002C194.966 266.983 193.863 264.312 190.779 264.177C187.695 264.043 185.345 269.544 183.968 267.054C182.593 264.566 186.154 263.157 185.564 260.829C184.974 258.499 188.316 256.967 188.316 256.967C188.443 256.788 188.6 256.624 188.783 256.477C191.766 256.545 194.724 257.002 197.58 257.835C199.081 258.273 200.552 258.811 201.985 259.454C202.876 259.853 203.752 260.291 204.61 260.766L204.614 260.763Z" fill="#94B0ED"/>
<path d="M173.352 269.73C173.352 269.73 173.426 266.346 170.417 267.353C167.409 268.361 168.049 269.224 165.921 270.33C163.793 271.436 164.03 273.488 166.631 274.181C169.235 274.872 172.575 277.294 172.786 274.685C172.997 272.075 171.875 270.946 173.352 269.73Z" fill="#94B0ED"/>
<path d="M473.045 139.889C473.045 147.144 472.392 154.253 471.135 161.152C468.118 177.711 461.648 193.063 452.49 206.443C431.216 237.534 395.448 257.939 354.911 257.939C306.691 257.939 265.218 229.073 246.861 187.682C244.438 182.229 242.418 176.557 240.844 170.704C238.187 160.883 236.773 150.547 236.773 139.889C236.773 131.269 237.698 122.859 239.453 114.768C239.47 114.672 239.494 114.584 239.513 114.491C244.421 92.1153 255.683 72.1225 271.311 56.4815C275.742 52.0416 280.529 47.9544 285.625 44.2628C288.053 42.5017 290.557 40.8286 293.121 39.2581C311.094 28.2048 332.255 21.8345 354.914 21.8345C357.919 21.8345 360.895 21.9465 363.84 22.1705C368.002 22.4779 372.097 22.9999 376.12 23.7315C393.067 26.7987 408.748 33.4836 422.349 42.9521H422.356C430.83 48.8458 438.49 55.819 445.144 63.6812C448.638 67.8089 451.855 72.1774 454.762 76.765C456.573 79.6201 458.263 82.5538 459.83 85.5686C463.596 92.8112 466.625 100.497 468.836 108.524C471.581 118.512 473.05 129.034 473.05 139.891L473.045 139.889Z" fill="#DCE8FF"/>
<path opacity="0.7" d="M314.773 87.0437C310.059 94.5055 316.741 107.461 302.599 103.926C288.456 100.392 279.811 98.8215 279.026 106.669C278.237 114.524 289.634 114.524 289.634 122.768C289.634 131.012 284.526 133.738 276.67 129.822C268.809 125.907 266.553 120.211 257.419 123.745C248.285 127.279 242.981 124.922 240.918 117.856C240.553 116.615 240.045 115.606 239.451 114.765C239.468 114.67 239.492 114.582 239.511 114.489C244.419 92.1128 255.68 72.1201 271.309 56.4791C275.74 52.0391 280.526 47.9519 285.623 44.2603C288.051 42.4992 290.555 40.8261 293.119 39.2556C296.801 39.3915 301.203 40.7856 304.957 45.4257C313.207 55.6378 318.706 50.5306 316.743 62.3084C314.776 74.0862 317.922 75.6591 324.599 75.2635C331.277 74.8679 339.138 74.8679 339.92 79.9751C340.704 85.0799 319.488 79.5795 314.776 87.0413L314.773 87.0437Z" fill="#4CB1FF"/>
<path opacity="0.7" d="M363.685 157.706C363.685 157.706 353.275 161.042 350.526 153.781C347.776 146.519 350.919 144.949 341.687 142.789C332.455 140.63 331.67 134.348 325.777 135.135C319.884 135.919 322.832 138.276 315.956 143.378C309.081 148.481 302.796 146.126 302.992 155.547C303.188 164.968 313.402 166.44 315.465 172.625C317.528 178.807 313.991 181.457 318.41 186.169C322.83 190.88 331.079 188.819 327.249 195.296C323.419 201.774 317.526 206.779 320.471 216.79C323.416 226.8 321.356 227.391 326.364 234.457C331.372 241.523 341.096 243.878 342.569 239.169C344.043 234.457 335.792 228.275 338.444 223.564C341.096 218.852 345.515 222.091 347.282 215.024C349.049 207.958 356.221 207.958 356.81 203.051C357.399 198.144 348.167 190.685 351.701 187.544C355.238 184.403 362.309 193.237 367.809 185.385C373.308 177.532 369.576 171.252 375.274 163.793C380.971 156.333 367.613 153.39 363.685 157.708V157.706Z" fill="#4CB1FF"/>
<path opacity="0.7" d="M473.045 139.889C473.045 147.143 472.392 154.253 471.135 161.152C468.118 177.71 461.648 193.063 452.49 206.442C449.365 207.467 446.179 207.443 443.043 206.19C428.311 200.301 439.213 184.402 445.106 176.452C450.999 168.502 435.972 172.036 425.07 164.674C414.169 157.313 426.248 137.587 415.051 140.826C403.854 144.064 390.301 148.187 383.819 137.291C377.336 126.398 389.712 124.632 384.114 115.504C378.517 106.376 387.355 101.076 398.553 100.194C409.75 99.31 408.276 91.362 422.125 90.1823C435.974 89.005 435.678 106.672 450.999 105.492C466.32 104.315 465.63 107.847 465.63 107.847C466.732 107.818 467.805 108.047 468.831 108.519C471.576 118.507 473.045 129.029 473.045 139.887V139.889Z" fill="#4CB1FF"/>
<path opacity="0.7" d="M459.826 85.5662C447.085 91.7601 441.97 74.9132 431.08 79.9775C420.103 85.0824 422.022 75.2659 413.384 68.9838C404.739 62.7064 387.456 74.0886 388.24 64.2722C389.025 54.4629 401.989 57.206 404.739 49.3557C407.491 41.5054 420.06 43.4668 420.06 43.4668C420.773 43.1951 421.538 43.0187 422.347 42.9496C422.347 42.9496 422.347 42.9449 422.354 42.9496C430.828 48.8433 438.488 55.8166 445.142 63.6788C448.636 67.8065 451.853 72.1749 454.76 76.7626C456.57 79.6177 458.261 82.5514 459.828 85.5662H459.826Z" fill="#4CB1FF"/>
<path opacity="0.7" d="M352.491 51.7104C352.491 51.7104 359.168 42.0823 348.563 39.2415C337.955 36.4007 338.153 40.1185 329.901 39.2415C321.651 38.3645 318.41 44.7419 324.597 51.7104C330.783 58.6789 335.794 72.0511 341.391 64.923C346.989 57.7948 345.908 52.3968 352.491 51.7104Z" fill="#4CB1FF"/>
<path d="M357 100.046L356.919 369.006C356.917 377.842 350.652 385.002 342.927 385L219.985 384.952C212.259 384.95 205.998 377.785 206 368.949L206.081 99.9891C206.083 91.1555 212.348 83.9952 220.075 84L343.017 84.0476C350.741 84.05 357.002 91.215 356.998 100.049L357 100.046Z" fill="#4CB1FF"/>
<path d="M342.325 387L220.586 386.952C211.989 386.95 204.998 378.869 205 368.941L205.08 99.9993C205.082 90.0714 212.08 81.9976 220.677 82L342.416 82.0476C351.013 82.05 358.004 90.1309 358 100.059L357.92 369.001C357.918 378.929 350.92 387.002 342.323 387H342.325ZM220.677 86.0154C213.997 86.0131 208.562 92.285 208.56 99.9993L208.479 368.941C208.477 376.656 213.908 382.932 220.588 382.935L342.327 382.982C349.007 382.985 354.443 376.713 354.445 368.998L354.525 100.056C354.527 92.3421 349.096 86.0654 342.416 86.063L220.677 86.0154Z" fill="#163560"/>
<path d="M232.435 109.179L230.067 110.876L227.687 109.196C228.214 108.455 229.087 107.964 230.067 107.964C231.042 107.964 231.908 108.443 232.435 109.179Z" fill="white"/>
<path d="M230.069 103.826C227.689 103.826 225.583 105.008 224.307 106.817L225.81 107.873C226.754 106.536 228.314 105.666 230.069 105.666C231.813 105.666 233.358 106.527 234.303 107.845L235.8 106.772C234.52 104.987 232.426 103.829 230.072 103.826H230.069Z" fill="white"/>
<path d="M230.072 95.9595C225.035 95.9595 220.58 98.4571 217.878 102.282L219.38 103.338C221.751 99.9919 225.66 97.7969 230.069 97.7993C234.443 97.7993 238.326 99.9609 240.701 103.266L242.192 102.194C239.487 98.4213 235.066 95.9619 230.069 95.9595H230.072Z" fill="white"/>
<path d="M230.069 100.263C226.487 100.263 223.308 102.034 221.374 104.749L222.877 105.804C224.479 103.567 227.105 102.103 230.069 102.103C233.008 102.103 235.614 103.545 237.222 105.754L238.712 104.689C236.773 102.008 233.621 100.266 230.069 100.266V100.263Z" fill="white"/>
<path d="M417.303 129.281C417.303 141.088 437.2 159.963 437.2 159.963C437.2 159.963 457.097 141.09 457.097 129.281C457.097 117.473 448.19 107.899 437.2 107.899C426.21 107.899 417.303 117.473 417.303 129.281ZM425.476 128.028C425.476 121.574 430.742 116.312 437.2 116.312C443.658 116.312 448.924 121.574 448.924 128.028C448.924 134.481 443.689 139.744 437.2 139.744C430.711 139.744 425.476 134.512 425.476 128.028Z" fill="#F78E48"/>
<path d="M349.359 54.1269C349.359 65.4686 368.472 83.5976 368.472 83.5976C368.472 83.5976 387.584 65.4686 387.584 54.1269C387.584 42.7852 379.027 33.5884 368.472 33.5884C357.916 33.5884 349.359 42.7852 349.359 54.1269ZM357.21 52.9233C357.21 46.7222 362.269 41.6698 368.472 41.6698C374.675 41.6698 379.733 46.7222 379.733 52.9233C379.733 59.1245 374.706 64.1769 368.472 64.1769C362.238 64.1769 357.21 59.153 357.21 52.9233Z" fill="#F78E48"/>
<path d="M437.198 103.107C436.923 103.107 436.692 102.897 436.666 102.62C436.666 102.611 436.58 101.677 436.403 100.023C436.372 99.7296 436.585 99.4651 436.878 99.4341C437.171 99.4007 437.436 99.6152 437.467 99.9083C437.644 101.569 437.732 102.511 437.732 102.52C437.758 102.813 437.541 103.076 437.248 103.102C437.231 103.102 437.214 103.102 437.198 103.102V103.107ZM436.649 97.9184C436.38 97.9184 436.148 97.7158 436.117 97.4441C436.029 96.6624 435.929 95.8021 435.814 94.8702C435.779 94.5771 435.988 94.3102 436.282 94.2744C436.573 94.2411 436.842 94.4484 436.878 94.7415C436.99 95.6758 437.09 96.5385 437.181 97.3226C437.214 97.6157 437.004 97.8802 436.709 97.9136C436.687 97.9136 436.668 97.916 436.647 97.916L436.649 97.9184ZM436.029 92.7682C435.764 92.7682 435.533 92.5704 435.499 92.3011C435.397 91.4837 435.285 90.6281 435.168 89.7344C435.13 89.4413 435.335 89.172 435.628 89.1339C435.922 89.0957 436.191 89.3007 436.229 89.5938C436.349 90.4875 436.458 91.3479 436.561 92.1653C436.599 92.4584 436.389 92.7253 436.096 92.7635C436.072 92.7659 436.05 92.7682 436.029 92.7682ZM435.352 87.6324C435.089 87.6324 434.858 87.4394 434.822 87.1701C434.708 86.3407 434.588 85.4852 434.462 84.6081C434.419 84.315 434.624 84.0457 434.915 84.0028C435.209 83.9599 435.478 84.1649 435.521 84.4556C435.647 85.335 435.767 86.1906 435.881 87.0223C435.922 87.3155 435.717 87.5848 435.423 87.6253C435.399 87.6277 435.373 87.6301 435.349 87.6301L435.352 87.6324ZM434.617 82.5061C434.357 82.5061 434.128 82.3155 434.088 82.051C433.964 81.2145 433.835 80.3637 433.699 79.4938C433.654 79.2006 433.854 78.929 434.147 78.8837C434.436 78.8408 434.712 79.0386 434.758 79.3317C434.891 80.2016 435.023 81.0572 435.147 81.8937C435.189 82.1868 434.989 82.4585 434.696 82.5014C434.67 82.5062 434.643 82.5061 434.617 82.5061ZM433.825 77.3918C433.568 77.3918 433.339 77.2035 433.298 76.9414C433.165 76.1025 433.024 75.2517 432.881 74.3913C432.833 74.1006 433.029 73.8241 433.322 73.7765C433.611 73.7288 433.89 73.9242 433.937 74.2174C434.08 75.0801 434.221 75.9333 434.355 76.7745C434.402 77.0653 434.202 77.3417 433.911 77.387C433.883 77.3918 433.854 77.3942 433.825 77.3942V77.3918ZM432.976 72.287C432.721 72.287 432.494 72.1035 432.449 71.8437C432.304 71.0048 432.156 70.154 432.001 69.2984C431.948 69.0077 432.142 68.7288 432.433 68.6788C432.723 68.6287 433.002 68.8194 433.053 69.1101C433.205 69.9681 433.355 70.8189 433.501 71.6626C433.551 71.9533 433.355 72.2298 433.065 72.2798C433.034 72.2846 433.002 72.287 432.974 72.287H432.976ZM432.065 67.194C431.812 67.194 431.588 67.0153 431.541 66.7555C431.386 65.9143 431.223 65.0682 431.061 64.2174C431.006 63.9267 431.195 63.6478 431.486 63.5906C431.777 63.5334 432.056 63.7241 432.113 64.0148C432.277 64.868 432.437 65.7165 432.595 66.5601C432.65 66.8509 432.456 67.1297 432.165 67.1845C432.132 67.1917 432.099 67.194 432.068 67.194H432.065ZM431.085 62.113C430.835 62.113 430.61 61.9367 430.56 61.6841C430.393 60.8428 430.222 59.9991 430.045 59.1531C429.986 58.8647 430.172 58.5811 430.46 58.5215C430.751 58.4596 431.033 58.6479 431.092 58.9362C431.269 59.7846 431.44 60.6307 431.61 61.4743C431.667 61.7651 431.479 62.0463 431.19 62.1035C431.154 62.1107 431.118 62.113 431.085 62.113ZM430.033 57.0487C429.785 57.0487 429.566 56.8771 429.511 56.6269C429.33 55.7904 429.146 54.9515 428.958 54.1126C428.893 53.8242 429.075 53.5383 429.363 53.4739C429.652 53.4096 429.938 53.5907 430.002 53.8791C430.191 54.7203 430.377 55.564 430.558 56.4029C430.62 56.6912 430.436 56.9772 430.148 57.0392C430.11 57.0463 430.071 57.0511 430.036 57.0511L430.033 57.0487ZM428.903 52.0082C428.66 52.0082 428.44 51.8414 428.383 51.5959C428.187 50.757 427.987 49.9158 427.784 49.0769C427.715 48.7909 427.892 48.5002 428.178 48.431C428.466 48.3595 428.755 48.5383 428.824 48.8243C429.029 49.6655 429.23 50.5092 429.425 51.3529C429.492 51.6412 429.313 51.9272 429.024 51.9963C428.984 52.0059 428.943 52.0106 428.903 52.0106V52.0082ZM427.679 46.9749C427.441 46.9749 427.221 46.8128 427.162 46.5721C426.95 45.738 426.735 44.9039 426.513 44.0745C426.437 43.7886 426.609 43.4954 426.895 43.4215C427.181 43.3453 427.474 43.5169 427.548 43.8029C427.77 44.637 427.985 45.4735 428.199 46.3124C428.271 46.5984 428.099 46.8891 427.813 46.963C427.768 46.9749 427.725 46.9797 427.682 46.9797L427.679 46.9749ZM426.353 41.9749C426.12 41.9749 425.903 41.82 425.838 41.5817C425.607 40.75 425.373 39.923 425.135 39.1008C425.051 38.8172 425.216 38.5193 425.5 38.4383C425.783 38.3548 426.081 38.5193 426.163 38.8029C426.403 39.6299 426.64 40.4616 426.871 41.2981C426.95 41.5817 426.783 41.8772 426.499 41.9559C426.451 41.9702 426.403 41.9749 426.356 41.9749H426.353ZM424.911 37.0083C424.682 37.0083 424.469 36.8606 424.398 36.6294C424.145 35.8048 423.887 34.9754 423.627 34.1675C423.537 33.8863 423.692 33.586 423.973 33.4955C424.255 33.4049 424.555 33.5598 424.646 33.841C424.906 34.6537 425.166 35.4878 425.421 36.3172C425.507 36.6008 425.347 36.8987 425.066 36.9845C425.013 37.0012 424.961 37.0083 424.908 37.0083H424.911ZM423.329 32.0822C423.105 32.0822 422.898 31.9416 422.821 31.7176C422.545 30.8978 422.259 30.0803 421.975 29.2844C421.875 29.0055 422.02 28.7005 422.299 28.6004C422.578 28.5003 422.883 28.6457 422.984 28.9245C423.27 29.7252 423.558 30.5498 423.837 31.3768C423.933 31.6556 423.782 31.9607 423.501 32.056C423.444 32.0751 423.387 32.0846 423.329 32.0846V32.0822ZM370.795 30.3616C370.73 30.3616 370.664 30.3496 370.599 30.3234C370.325 30.2162 370.189 29.9064 370.296 29.6299C370.48 29.158 370.666 28.6933 370.852 28.2357C370.962 27.9617 371.274 27.8306 371.548 27.9402C371.823 28.0522 371.954 28.3621 371.844 28.6361C371.66 29.0889 371.477 29.5513 371.293 30.0184C371.21 30.2305 371.009 30.3592 370.795 30.3592V30.3616ZM421.584 27.2133C421.369 27.2133 421.164 27.0823 421.083 26.8678C420.773 26.0527 420.456 25.2472 420.141 24.4727C420.029 24.1986 420.162 23.8864 420.434 23.7768C420.708 23.6647 421.021 23.7982 421.13 24.0699C421.448 24.8516 421.77 25.6666 422.082 26.4888C422.187 26.7653 422.049 27.0727 421.772 27.18C421.71 27.2038 421.646 27.2157 421.581 27.2157L421.584 27.2133ZM372.343 26.5889C372.271 26.5889 372.199 26.5746 372.133 26.546C371.861 26.4293 371.734 26.1147 371.851 25.843C372.199 25.0351 372.552 24.2367 372.903 23.4717C373.027 23.2024 373.344 23.0856 373.611 23.2072C373.881 23.3311 373.998 23.6481 373.876 23.9174C373.528 24.6752 373.177 25.4664 372.834 26.2648C372.746 26.4674 372.55 26.5889 372.343 26.5889ZM419.633 22.4231C419.425 22.4231 419.23 22.3039 419.141 22.1014C418.791 21.2982 418.433 20.5094 418.08 19.7611C417.954 19.4941 418.068 19.1748 418.335 19.0485C418.602 18.9222 418.922 19.0366 419.048 19.3035C419.406 20.0613 419.766 20.8597 420.122 21.6724C420.241 21.9441 420.117 22.2587 419.845 22.3754C419.776 22.4064 419.702 22.4207 419.63 22.4207L419.633 22.4231ZM374.496 21.8988C374.417 21.8988 374.336 21.8821 374.26 21.844C373.995 21.7129 373.886 21.3935 374.014 21.129C374.403 20.3378 374.801 19.5585 375.195 18.8149C375.333 18.5551 375.658 18.4551 375.917 18.5933C376.177 18.7315 376.278 19.0556 376.139 19.3154C375.751 20.0494 375.357 20.8168 374.973 21.5985C374.88 21.7868 374.689 21.8964 374.491 21.8964L374.496 21.8988ZM417.427 17.7472C417.231 17.7472 417.045 17.64 416.95 17.4565C416.551 16.6796 416.144 15.9193 415.736 15.1972C415.59 14.9398 415.683 14.6133 415.941 14.4679C416.198 14.3226 416.525 14.4131 416.671 14.6705C417.086 15.4045 417.498 16.1767 417.904 16.9655C418.04 17.2277 417.935 17.5518 417.672 17.6853C417.594 17.7258 417.51 17.7449 417.429 17.7449L417.427 17.7472ZM376.919 17.3397C376.828 17.3397 376.735 17.3159 376.652 17.2682C376.397 17.1205 376.309 16.794 376.456 16.5366C376.9 15.7692 377.353 15.0185 377.804 14.3083C377.961 14.058 378.293 13.9842 378.543 14.1414C378.794 14.2987 378.868 14.63 378.708 14.8802C378.267 15.5785 377.821 16.3149 377.384 17.0704C377.284 17.242 377.105 17.3373 376.919 17.3373V17.3397ZM414.882 13.2477C414.703 13.2477 414.529 13.1596 414.429 12.9975C413.964 12.2563 413.487 11.5414 413.012 10.8741C412.841 10.6334 412.898 10.2997 413.139 10.1281C413.38 9.95653 413.713 10.0137 413.885 10.2544C414.372 10.9384 414.858 11.6701 415.335 12.4303C415.493 12.6805 415.416 13.0118 415.166 13.1667C415.078 13.2215 414.98 13.2477 414.882 13.2477ZM379.686 12.9856C379.578 12.9856 379.471 12.9546 379.378 12.8879C379.137 12.7187 379.077 12.385 379.249 12.1419C379.764 11.4103 380.291 10.7072 380.814 10.0495C380.997 9.81831 381.334 9.78018 381.565 9.96368C381.796 10.1472 381.834 10.4832 381.651 10.7144C381.14 11.3555 380.628 12.0418 380.124 12.7568C380.02 12.9046 379.855 12.9832 379.686 12.9832V12.9856ZM411.882 9.04615C411.727 9.04615 411.574 8.97942 411.469 8.85072C410.914 8.17389 410.344 7.54234 409.778 6.96799C409.571 6.75827 409.573 6.41985 409.783 6.21251C409.993 6.00517 410.334 6.00756 410.539 6.21728C411.126 6.81308 411.717 7.47085 412.292 8.17151C412.48 8.4003 412.447 8.73633 412.218 8.9246C412.118 9.00563 411.999 9.04615 411.879 9.04615H411.882ZM382.905 8.9532C382.776 8.9532 382.648 8.90792 382.545 8.81259C382.328 8.6124 382.311 8.27399 382.512 8.05712C383.12 7.39458 383.742 6.7678 384.365 6.19583C384.582 5.99564 384.92 6.00994 385.121 6.22681C385.321 6.44368 385.307 6.7821 385.09 6.98229C384.491 7.53519 383.888 8.13814 383.301 8.77923C383.196 8.89362 383.051 8.9532 382.905 8.9532ZM386.709 5.47372C386.547 5.47372 386.385 5.39984 386.28 5.25923C386.103 5.02329 386.151 4.68726 386.387 4.5109C387.11 3.96991 387.854 3.48136 388.596 3.05715C388.853 2.90939 389.18 2.99995 389.325 3.25495C389.473 3.51234 389.383 3.83884 389.127 3.98421C388.422 4.38698 387.716 4.8517 387.026 5.36647C386.931 5.43797 386.816 5.47372 386.707 5.47372H386.709ZM408.257 5.39746C408.138 5.39746 408.021 5.35932 407.92 5.2783C407.25 4.73731 406.563 4.26066 405.881 3.8579C405.626 3.70776 405.543 3.38126 405.693 3.12626C405.843 2.87125 406.17 2.78784 406.425 2.93799C407.153 3.36696 407.882 3.87458 408.593 4.44655C408.822 4.63245 408.86 4.96848 408.674 5.19965C408.569 5.33073 408.414 5.39746 408.257 5.39746ZM391.186 2.9356C390.973 2.9356 390.771 2.80691 390.687 2.59719C390.577 2.32312 390.713 2.01092 390.988 1.90367C391.818 1.57479 392.674 1.31025 393.53 1.11721C393.816 1.05048 394.105 1.23161 394.169 1.51998C394.234 1.80834 394.052 2.09433 393.764 2.15868C392.96 2.3398 392.159 2.58765 391.379 2.89747C391.314 2.92369 391.248 2.9356 391.181 2.9356H391.186ZM403.838 2.83312C403.778 2.83312 403.716 2.82359 403.654 2.79976C403.256 2.65438 402.853 2.53284 402.45 2.43274C402.039 2.33027 401.631 2.23971 401.238 2.16344C400.947 2.10625 400.759 1.82503 400.816 1.53427C400.873 1.24352 401.154 1.05525 401.445 1.11245C401.856 1.19348 402.28 1.2888 402.707 1.39367C403.146 1.50091 403.587 1.63675 404.019 1.79404C404.298 1.89414 404.441 2.20157 404.338 2.48041C404.26 2.69728 404.055 2.83312 403.835 2.83312H403.838ZM398.784 1.82026C398.77 1.82026 398.755 1.82026 398.743 1.82026C397.892 1.75591 397.052 1.75115 396.239 1.80358C395.943 1.82264 395.688 1.601 395.669 1.30549C395.65 1.00997 395.872 0.754966 396.168 0.7359C397.033 0.678703 397.923 0.683469 398.824 0.752582C399.12 0.774031 399.34 1.03142 399.318 1.32694C399.297 1.60815 399.063 1.82026 398.784 1.82026Z" fill="#F78E48"/>
<path d="M407.58 368.17H470.479V369.855C470.479 374.03 467.088 377.419 462.909 377.419H415.765C411.248 377.419 407.58 373.754 407.58 369.24V368.17Z" fill="#163560"/>
<path d="M472.635 290.525V365.536C472.635 366.44 472.535 367.321 472.342 368.17H463.537C462.17 368.17 460.894 368.568 459.821 369.254C459.156 369.676 458.571 370.21 458.09 370.829C457.171 372.002 456.628 373.477 456.628 375.079V377.417H422.135V375.079C422.135 372.667 420.902 370.543 419.027 369.307C418.498 368.956 417.916 368.677 417.296 368.484C416.642 368.279 415.946 368.17 415.226 368.17H405.71C405.519 367.321 405.417 366.44 405.417 365.536V290.525C405.417 283.961 410.735 278.645 417.296 278.645H460.751C467.312 278.645 472.63 283.964 472.63 290.525H472.635Z" fill="#F78248"/>
<path d="M451.684 278.602C436.117 272.47 425.259 278.504 425.152 278.566L424.591 277.589C424.708 277.522 427.482 275.949 432.278 275.153C436.683 274.421 443.697 274.243 452.099 277.553L451.686 278.602H451.684Z" fill="#163560"/>
<path d="M416.38 373.944H411.827V380.141H416.38V373.944Z" fill="#163560"/>
<path d="M410.864 381.08C410.864 379.29 412.314 377.841 414.102 377.841C415.891 377.841 417.341 379.292 417.341 381.08C417.341 382.867 415.891 384.318 414.102 384.318C412.314 384.318 410.864 382.867 410.864 381.08Z" fill="#1F4777"/>
<path d="M412.137 381.08C412.137 379.993 413.017 379.114 414.102 379.114C415.188 379.114 416.07 379.993 416.07 381.08C416.07 382.166 415.19 383.046 414.102 383.046C413.015 383.046 412.137 382.166 412.137 381.08Z" fill="#163560"/>
<path d="M463.203 373.944H458.65V380.141H463.203V373.944Z" fill="#163560"/>
<path d="M457.687 381.08C457.687 379.29 459.137 377.841 460.925 377.841C462.714 377.841 464.164 379.292 464.164 381.08C464.164 382.867 462.714 384.318 460.925 384.318C459.137 384.318 457.687 382.867 457.687 381.08Z" fill="#1F4777"/>
<path d="M458.96 381.08C458.96 379.993 459.84 379.114 460.925 379.114C462.01 379.114 462.893 379.993 462.893 381.08C462.893 382.166 462.013 383.046 460.925 383.046C459.838 383.046 458.96 382.166 458.96 381.08Z" fill="#163560"/>
<path d="M419.032 278.642V369.306C418.503 368.956 417.921 368.677 417.301 368.484V278.642H419.032Z" fill="#E06832"/>
<path d="M432.893 278.642H431.162V377.417H432.893V278.642Z" fill="#E06832"/>
<path d="M445.829 278.642H444.097V377.417H445.829V278.642Z" fill="#E06832"/>
<path d="M459.823 278.642V369.254C459.158 369.676 458.574 370.21 458.092 370.829V278.644H459.823V278.642Z" fill="#E06832"/>
<path d="M367.878 239.805C367.878 239.677 369.774 235.759 369.171 235.458C368.567 235.158 367.487 235.203 367.363 235.89C367.237 236.576 367.881 239.808 367.881 239.808L367.878 239.805Z" fill="#FFB27D"/>
<path d="M368.594 242.143C368.594 241.76 368.15 235.895 367.16 234.727C366.171 233.559 364.151 231.9 363.514 231.95C362.877 232 360.392 235.301 361.138 237.832C361.885 240.361 365.04 243.785 365.04 243.785L368.594 242.143Z" fill="#FFB27D"/>
<path d="M372.367 235.039L366.605 236.764C366.414 236.822 366.211 236.714 366.154 236.521L362.86 225.542C362.803 225.351 362.91 225.149 363.104 225.091L368.866 223.366C369.056 223.309 369.259 223.416 369.316 223.609L372.61 234.588C372.667 234.779 372.56 234.982 372.367 235.039Z" fill="#F1A34F"/>
<path d="M370.869 235.487L365.641 237.053C365.302 237.155 364.945 236.962 364.842 236.624L361.708 226.178C361.606 225.84 361.799 225.482 362.138 225.38L367.365 223.814C367.704 223.711 368.062 223.904 368.164 224.243L371.298 234.688C371.401 235.027 371.207 235.384 370.869 235.487Z" fill="#D86713"/>
<path d="M362.918 232.377C362.918 232.377 365.317 228.688 365.903 228.893C366.741 229.186 363.728 233.867 363.728 233.867C363.728 233.867 365.961 230.368 366.309 230.63C367.103 231.231 365.839 233.428 364.585 235.113C364.585 235.113 366.829 233.059 366.903 233.428C367.158 234.724 364.439 237.863 364.439 237.863L362.918 234.393V232.375V232.377Z" fill="#FFB27D"/>
<path d="M361.117 235.804C361.234 235.354 361.818 226.543 362.069 227.377C362.319 228.213 362.915 232.832 362.915 232.832L361.115 235.802L361.117 235.804Z" fill="#FFB27D"/>
<path d="M399.414 233.378C399.414 233.378 399.163 242.958 396.397 250.689C394.212 256.795 390.461 261.748 384.024 259.92C383.366 259.731 382.729 259.531 382.111 259.314C382.107 259.312 382.104 259.312 382.104 259.312C369.028 254.76 364.797 244.341 364.797 244.341C365.77 242.737 368.591 242.146 368.591 242.146C371.224 242.286 382.796 247.198 383.535 247.348C386.211 247.887 388.374 233.187 390.113 228.097C391.851 223.004 398.97 220.725 398.97 220.725L399.411 233.38L399.414 233.378Z" fill="#4CB1FF"/>
<path d="M396.65 243.785L396.399 250.687C394.215 256.793 390.463 261.745 384.026 259.917C383.368 259.729 382.731 259.529 382.114 259.312C382.319 259.338 386.259 259.87 387.907 258.223C389.6 256.528 389.423 250.911 392.545 247.167C395.669 243.423 396.65 243.783 396.65 243.783V243.785Z" fill="#5283DB"/>
<path d="M397.01 370.024C397.01 370.024 400.227 372.958 399.6 375.043C398.973 377.128 396.068 378.518 395.674 381.068C395.281 383.615 393.711 385.007 392.3 385.007H385.565C385.565 385.007 384.525 383.213 387.036 382.674C389.547 382.133 390.494 379.137 390.337 376.359C390.179 373.577 390.573 369.871 390.573 369.871L395.91 368.637L397.01 370.026V370.024Z" fill="#133054"/>
<path d="M361.553 384.473H381.386C382.164 384.473 382.803 383.856 382.824 383.082C382.855 381.921 382.76 380.231 382.116 378.806C381.057 376.461 380.389 376.049 384.859 369.226C383.514 370.608 379.889 369.976 376.831 369.564C376.457 370.172 370.781 378.932 369.529 379.831C368.145 380.825 361.98 380.47 361.553 384.471V384.473Z" fill="#163560"/>
<path d="M392.455 274.569C392.455 274.569 378.074 301.683 374.167 316.614C371.134 328.204 389.645 373.041 389.645 373.041C389.645 373.041 391.157 372.941 393.626 371.971C396.049 371.02 396.972 368.465 396.972 368.465C396.972 368.465 395.875 336.404 392.128 320.894C391.286 317.412 396.201 306.183 404.498 300.032C412.795 293.881 416.249 274.09 411.31 272.753C406.371 271.416 392.455 274.567 392.455 274.567V274.569Z" fill="#163560"/>
<path d="M404.765 266.872C404.765 266.872 389.65 322.248 385.064 334.683C380.478 347.119 373.206 373.511 373.206 373.511C373.206 373.511 377.804 375.667 383.692 374.647C383.692 374.647 405.796 342.288 406.759 327.984C407.205 321.373 429.437 295.165 426.959 278.077L404.768 266.872H404.765Z" fill="#1C468A"/>
<path d="M426.924 284.15C426.924 284.15 423.706 285.77 418.021 286.247H418.016C411.505 286.793 401.753 285.835 389.877 279.226C389.877 279.226 386.564 276.497 390.635 264.898C393.716 256.116 395.216 237.598 398.977 220.723C398.977 220.723 411.176 216.898 420.961 220.203C428.438 222.73 427.694 234.198 429.075 246.14C429.204 247.255 429.351 248.373 429.526 249.488C431.567 262.56 426.926 284.15 426.926 284.15H426.924Z" fill="#4CB1FF"/>
<path d="M394.673 195.74C394.673 195.74 402.998 182.196 409.445 189.167C409.445 189.167 413.659 190.242 416.075 196.8C418.538 203.49 414.701 209.4 412.14 208.445C410.496 207.832 409.728 210.664 409.728 210.664L394.673 195.74Z" fill="#233862"/>
<path d="M408.169 188.099C408.169 188.099 408.741 182.492 416.94 183.037C416.94 183.037 413.063 183.107 412.23 184.722C412.23 184.722 415.049 182.906 417.105 183.791C419.161 184.675 420.034 188.519 419.922 189.744C419.809 190.969 418.231 194.791 416.85 194.992C415.467 195.192 413.656 194.215 413.656 194.215L408.166 188.099H408.169Z" fill="#233862"/>
<path d="M412.299 219.86C411.529 217.809 410.382 215.656 409.461 209.107L408.97 209.279L400.694 212.191C400.694 212.191 401.274 214.841 401.644 217.365C401.796 218.397 401.904 220.237 401.973 221.846C402.044 223.49 403.664 223.645 405.307 223.569C409.683 223.366 412.094 221.736 412.297 219.86H412.299Z" fill="#FFB27D"/>
<path d="M400.692 212.194C400.692 212.194 401.272 214.844 401.641 217.367C406.39 216.548 408.283 211.838 408.968 209.281L400.692 212.194Z" fill="#E8945B"/>
<path d="M409.714 208.226C409.714 208.226 411.644 203.922 411.756 200.461C411.837 197.992 409.321 189.243 400.53 191.822C400.53 191.822 397.959 192.454 395.748 194.46C393.988 196.057 391.586 199.301 395.855 206.636L397.053 209.15L409.714 208.226Z" fill="#233862"/>
<path d="M399.445 214.813C399.445 214.813 410.749 213.373 409.745 206.352C408.741 199.331 409.523 194.415 402.261 195.037C394.999 195.659 393.983 198.538 393.75 200.964C393.514 203.39 396.478 215.006 399.445 214.813Z" fill="#FFB27D"/>
<path d="M397.1 195.604C397.1 195.604 401.377 203.397 406.292 203.931C411.207 204.467 413.079 202.902 413.079 202.902C413.079 202.902 409.027 200.54 407.546 195.611C407.546 195.611 398.863 191.35 397.1 195.604Z" fill="#233862"/>
<path d="M397.964 196.162C397.964 196.162 395.922 198.333 395.619 200.201C395.314 202.07 395.593 205.787 394.501 205.816C394.501 205.816 391.367 200.552 393.525 197.008C395.813 193.249 397.966 196.159 397.966 196.159L397.964 196.162Z" fill="#233862"/>
<path d="M397.575 196.502C397.575 196.502 401.019 204.81 407.398 206.712C407.398 206.712 400.654 202.275 399.326 196.653C397.997 191.033 397.577 196.502 397.577 196.502H397.575Z" fill="#233862"/>
<path d="M426.924 284.15C426.924 284.15 423.706 285.77 418.021 286.247H418.016C418.016 286.247 413.344 280.394 418.557 273.833C423.771 267.272 418.15 255.168 422.166 248.585C424.961 244.005 427.68 245.07 429.075 246.14C429.204 247.255 429.351 248.373 429.526 249.489C431.567 262.56 426.926 284.15 426.926 284.15H426.924Z" fill="#5283DB"/>
<path d="M447.434 274.419C447.434 274.419 448.128 276.033 449.096 276.14C450.677 276.316 453.687 277.639 454.159 277.92C455.44 278.68 455.354 282.081 454.073 282.401C452.793 282.72 452.151 279.867 448.149 279.102C446.792 278.842 444.813 279.781 444.011 276.531L447.434 274.419Z" fill="#FFB27D"/>
<path d="M420.957 220.204C432.597 224.481 433.029 245.091 438.218 254.167C443.57 263.526 448.784 275.847 448.784 275.847C448.784 275.847 448.691 276.216 446.694 276.788C445.29 277.191 443.821 277.019 443.821 277.019C443.821 277.019 432.821 267.076 429.833 263.154C426.845 259.231 419.8 241.035 419.8 241.035C419.8 241.035 416.335 218.504 420.957 220.204Z" fill="#4CB1FF"/>
<path d="M444.298 277.336C444.298 277.336 444.581 278.721 446.296 279.841C448.013 280.961 449.389 282.081 449.556 281.388C449.723 280.694 448.602 279.948 448.335 278.668C448.068 277.389 444.298 277.336 444.298 277.336Z" fill="#FFB27D"/>
</svg>
