<svg width="128" height="128" viewBox="0 0 128 128" fill="none" xmlns="http://www.w3.org/2000/svg">
<path d="M11.7931 47.0215C11.7931 48.0634 12.6382 48.9085 13.6802 48.9085C14.7221 48.9085 15.5666 48.0634 15.5666 47.0215C15.5666 45.9789 14.7221 45.1344 13.6802 45.1344C12.6376 45.1344 11.7931 45.9789 11.7931 47.0215ZM11.7931 35.7731C11.7931 36.8157 12.6382 37.6602 13.6802 37.6602C14.7221 37.6602 15.5666 36.8157 15.5666 35.7731C15.5666 34.7312 14.7221 33.8861 13.6802 33.8861C12.6376 33.8861 11.7931 34.7312 11.7931 35.7731ZM11.7931 58.2698C11.7931 59.3118 12.6382 60.1569 13.6802 60.1569C14.7221 60.1569 15.5666 59.3118 15.5666 58.2698C15.5666 57.2273 14.7221 56.3822 13.6802 56.3822C12.6376 56.3822 11.7931 57.2273 11.7931 58.2698ZM23.0383 35.7731C23.0383 36.8157 23.8834 37.6602 24.9254 37.6602C25.9674 37.6602 26.8118 36.8157 26.8118 35.7731C26.8118 34.7312 25.9674 33.8861 24.9254 33.8861C23.8834 33.8861 23.0383 34.7312 23.0383 35.7731ZM0.547886 47.0215C0.547886 48.0634 1.39236 48.9085 2.43494 48.9085C3.4769 48.9085 4.32137 48.0634 4.32137 47.0215C4.32137 45.9789 3.4769 45.1344 2.43494 45.1344C1.39236 45.1344 0.547886 45.9789 0.547886 47.0215ZM0.547886 58.2698C0.547886 59.3118 1.39236 60.1569 2.43494 60.1569C3.4769 60.1569 4.32137 59.3118 4.32137 58.2698C4.32137 57.2273 3.4769 56.3822 2.43494 56.3822C1.39236 56.3822 0.547886 57.2273 0.547886 58.2698ZM23.0383 47.0215C23.0383 48.0634 23.8834 48.9085 24.9254 48.9085C25.9674 48.9085 26.8118 48.0634 26.8118 47.0215C26.8118 45.9789 25.9674 45.1344 24.9254 45.1344C23.8834 45.1344 23.0383 45.9789 23.0383 47.0215ZM0.547886 24.5254C0.547886 25.5673 1.39236 26.4124 2.43494 26.4124C3.4769 26.4124 4.32137 25.5673 4.32137 24.5254C4.32137 23.4828 3.4769 22.6377 2.43494 22.6377C1.39236 22.6377 0.547886 23.4828 0.547886 24.5254ZM0.547886 35.7731C0.547886 36.8157 1.39236 37.6602 2.43494 37.6602C3.4769 37.6602 4.32137 36.8157 4.32137 35.7731C4.32137 34.7312 3.4769 33.8861 2.43494 33.8861C1.39236 33.8861 0.547886 34.7312 0.547886 35.7731ZM23.0383 24.5254C23.0383 25.5673 23.8834 26.4124 24.9254 26.4124C25.9674 26.4124 26.8118 25.5673 26.8118 24.5254C26.8118 23.4828 25.9674 22.6377 24.9254 22.6377C23.8834 22.6377 23.0383 23.4828 23.0383 24.5254ZM11.7931 24.5254C11.7931 25.5673 12.6382 26.4124 13.6802 26.4124C14.7221 26.4124 15.5666 25.5673 15.5666 24.5254C15.5666 23.4828 14.7221 22.6377 13.6802 22.6377C12.6376 22.6377 11.7931 23.4828 11.7931 24.5254ZM23.0383 58.2698C23.0383 59.3118 23.8834 60.1569 24.9254 60.1569C25.9674 60.1569 26.8118 59.3118 26.8118 58.2698C26.8118 57.2273 25.9674 56.3822 24.9254 56.3822C23.8834 56.3822 23.0383 57.2273 23.0383 58.2698ZM23.0383 13.277C23.0383 14.319 23.8834 15.1641 24.9254 15.1641C25.9674 15.1641 26.8118 14.319 26.8118 13.277C26.8118 12.2344 25.9674 11.39 24.9254 11.39C23.8834 11.39 23.0383 12.2344 23.0383 13.277ZM11.7931 69.5176C11.7931 70.5602 12.6382 71.4046 13.6802 71.4046C14.7221 71.4046 15.5666 70.5602 15.5666 69.5176C15.5666 68.4756 14.7221 67.6305 13.6802 67.6305C12.6376 67.6305 11.7931 68.4756 11.7931 69.5176ZM0.547886 69.5176C0.547886 70.5602 1.39236 71.4046 2.43494 71.4046C3.4769 71.4046 4.32137 70.5602 4.32137 69.5176C4.32137 68.4756 3.4769 67.6305 2.43494 67.6305C1.39236 67.6305 0.547886 68.4756 0.547886 69.5176ZM23.0383 69.5176C23.0383 70.5602 23.8834 71.4046 24.9254 71.4046C25.9674 71.4046 26.8118 70.5602 26.8118 69.5176C26.8118 68.4756 25.9674 67.6305 24.9254 67.6305C23.8834 67.6305 23.0383 68.4756 23.0383 69.5176ZM0.547886 2.02866C0.547886 3.07124 1.39236 3.91571 2.43494 3.91571C3.4769 3.91571 4.32137 3.07124 4.32137 2.02866C4.32137 0.986702 3.4769 0.141602 2.43494 0.141602C1.39236 0.141602 0.547886 0.986702 0.547886 2.02866ZM11.7931 2.02866C11.7931 3.07124 12.6382 3.91571 13.6802 3.91571C14.7221 3.91571 15.5666 3.07124 15.5666 2.02866C15.5666 0.986702 14.7221 0.141602 13.6802 0.141602C12.6376 0.141602 11.7931 0.986702 11.7931 2.02866ZM23.0383 2.02866C23.0383 3.07124 23.8834 3.91571 24.9254 3.91571C25.9674 3.91571 26.8118 3.07124 26.8118 2.02866C26.8118 0.986702 25.9674 0.141602 24.9254 0.141602C23.8834 0.141602 23.0383 0.986702 23.0383 2.02866ZM0.547886 13.277C0.547886 14.319 1.39236 15.1641 2.43494 15.1641C3.4769 15.1641 4.32137 14.319 4.32137 13.277C4.32137 12.2344 3.4769 11.39 2.43494 11.39C1.39236 11.39 0.547886 12.2344 0.547886 13.277ZM11.7931 13.277C11.7931 14.319 12.6382 15.1641 13.6802 15.1641C14.7221 15.1641 15.5666 14.319 15.5666 13.277C15.5666 12.2344 14.7221 11.39 13.6802 11.39C12.6376 11.39 11.7931 12.2344 11.7931 13.277ZM45.2937 47.0215C45.2937 48.0634 46.1382 48.9085 47.1801 48.9085C48.2221 48.9085 49.0672 48.0634 49.0672 47.0215C49.0672 45.9789 48.2221 45.1344 47.1801 45.1344C46.1382 45.1344 45.2937 45.9789 45.2937 47.0215ZM45.2937 35.7731C45.2937 36.8157 46.1382 37.6602 47.1801 37.6602C48.2221 37.6602 49.0672 36.8157 49.0672 35.7731C49.0672 34.7312 48.2221 33.8861 47.1801 33.8861C46.1382 33.8861 45.2937 34.7312 45.2937 35.7731ZM45.2937 58.2698C45.2937 59.3118 46.1382 60.1569 47.1801 60.1569C48.2221 60.1569 49.0672 59.3118 49.0672 58.2698C49.0672 57.2273 48.2221 56.3822 47.1801 56.3822C46.1382 56.3822 45.2937 57.2273 45.2937 58.2698ZM56.5389 35.7731C56.5389 36.8157 57.3834 37.6602 58.4254 37.6602C59.4679 37.6602 60.3124 36.8157 60.3124 35.7731C60.3124 34.7312 59.4679 33.8861 58.4254 33.8861C57.3834 33.8861 56.5389 34.7312 56.5389 35.7731ZM34.0485 47.0215C34.0485 48.0634 34.8929 48.9085 35.9349 48.9085C36.9769 48.9085 37.822 48.0634 37.822 47.0215C37.822 45.9789 36.9769 45.1344 35.9349 45.1344C34.8929 45.1344 34.0485 45.9789 34.0485 47.0215ZM34.0485 58.2698C34.0485 59.3118 34.8929 60.1569 35.9349 60.1569C36.9769 60.1569 37.822 59.3118 37.822 58.2698C37.822 57.2273 36.9769 56.3822 35.9349 56.3822C34.8929 56.3822 34.0485 57.2273 34.0485 58.2698ZM56.5389 47.0215C56.5389 48.0634 57.3834 48.9085 58.4254 48.9085C59.4679 48.9085 60.3124 48.0634 60.3124 47.0215C60.3124 45.9789 59.4679 45.1344 58.4254 45.1344C57.3834 45.1344 56.5389 45.9789 56.5389 47.0215ZM34.0485 24.5254C34.0485 25.5673 34.8929 26.4124 35.9349 26.4124C36.9769 26.4124 37.822 25.5673 37.822 24.5254C37.822 23.4828 36.9769 22.6377 35.9349 22.6377C34.8929 22.6377 34.0485 23.4828 34.0485 24.5254ZM34.0485 35.7731C34.0485 36.8157 34.8929 37.6602 35.9349 37.6602C36.9769 37.6602 37.822 36.8157 37.822 35.7731C37.822 34.7312 36.9769 33.8861 35.9349 33.8861C34.8929 33.8861 34.0485 34.7312 34.0485 35.7731ZM56.5389 24.5254C56.5389 25.5673 57.3834 26.4124 58.4254 26.4124C59.4679 26.4124 60.3124 25.5673 60.3124 24.5254C60.3124 23.4828 59.4679 22.6377 58.4254 22.6377C57.3834 22.6377 56.5389 23.4828 56.5389 24.5254ZM45.2937 24.5254C45.2937 25.5673 46.1382 26.4124 47.1801 26.4124C48.2221 26.4124 49.0672 25.5673 49.0672 24.5254C49.0672 23.4828 48.2221 22.6377 47.1801 22.6377C46.1382 22.6377 45.2937 23.4828 45.2937 24.5254ZM56.5389 58.2698C56.5389 59.3118 57.3834 60.1569 58.4254 60.1569C59.4679 60.1569 60.3124 59.3118 60.3124 58.2698C60.3124 57.2273 59.4679 56.3822 58.4254 56.3822C57.3834 56.3822 56.5389 57.2273 56.5389 58.2698ZM56.5389 13.277C56.5389 14.319 57.3834 15.1641 58.4254 15.1641C59.4679 15.1641 60.3124 14.319 60.3124 13.277C60.3124 12.2344 59.4679 11.39 58.4254 11.39C57.3834 11.39 56.5389 12.2344 56.5389 13.277ZM45.2937 69.5176C45.2937 70.5602 46.1382 71.4046 47.1801 71.4046C48.2221 71.4046 49.0672 70.5602 49.0672 69.5176C49.0672 68.4756 48.2221 67.6305 47.1801 67.6305C46.1382 67.6305 45.2937 68.4756 45.2937 69.5176ZM34.0485 69.5176C34.0485 70.5602 34.8929 71.4046 35.9349 71.4046C36.9769 71.4046 37.822 70.5602 37.822 69.5176C37.822 68.4756 36.9769 67.6305 35.9349 67.6305C34.8929 67.6305 34.0485 68.4756 34.0485 69.5176ZM56.5389 69.5176C56.5389 70.5602 57.3834 71.4046 58.4254 71.4046C59.4679 71.4046 60.3124 70.5602 60.3124 69.5176C60.3124 68.4756 59.4679 67.6305 58.4254 67.6305C57.3834 67.6305 56.5389 68.4756 56.5389 69.5176ZM34.0485 2.02866C34.0485 3.07124 34.8929 3.91571 35.9349 3.91571C36.9769 3.91571 37.822 3.07124 37.822 2.02866C37.822 0.986702 36.9769 0.141602 35.9349 0.141602C34.8929 0.141602 34.0485 0.986702 34.0485 2.02866ZM45.2937 2.02866C45.2937 3.07124 46.1382 3.91571 47.1801 3.91571C48.2221 3.91571 49.0672 3.07124 49.0672 2.02866C49.0672 0.986702 48.2221 0.141602 47.1801 0.141602C46.1382 0.141602 45.2937 0.986702 45.2937 2.02866ZM56.5389 2.02866C56.5389 3.07124 57.3834 3.91571 58.4254 3.91571C59.4679 3.91571 60.3124 3.07124 60.3124 2.02866C60.3124 0.986702 59.4679 0.141602 58.4254 0.141602C57.3834 0.141602 56.5389 0.986702 56.5389 2.02866ZM34.0485 13.277C34.0485 14.319 34.8929 15.1641 35.9349 15.1641C36.9769 15.1641 37.822 14.319 37.822 13.277C37.822 12.2344 36.9769 11.39 35.9349 11.39C34.8929 11.39 34.0485 12.2344 34.0485 13.277ZM45.2937 13.277C45.2937 14.319 46.1382 15.1641 47.1801 15.1641C48.2221 15.1641 49.0672 14.319 49.0672 13.277C49.0672 12.2344 48.2221 11.39 47.1801 11.39C46.1382 11.39 45.2937 12.2344 45.2937 13.277ZM78.894 47.0215C78.894 48.0634 79.7384 48.9085 80.781 48.9085C81.823 48.9085 82.6674 48.0634 82.6674 47.0215C82.6674 45.9789 81.823 45.1344 80.781 45.1344C79.7384 45.1344 78.894 45.9789 78.894 47.0215ZM78.894 35.7731C78.894 36.8157 79.7384 37.6602 80.781 37.6602C81.823 37.6602 82.6674 36.8157 82.6674 35.7731C82.6674 34.7312 81.823 33.8861 80.781 33.8861C79.7384 33.8861 78.894 34.7312 78.894 35.7731ZM78.894 58.2698C78.894 59.3118 79.7384 60.1569 80.781 60.1569C81.823 60.1569 82.6674 59.3118 82.6674 58.2698C82.6674 57.2273 81.823 56.3822 80.781 56.3822C79.7384 56.3822 78.894 57.2273 78.894 58.2698ZM90.1392 35.7731C90.1392 36.8157 90.9843 37.6602 92.0262 37.6602C93.0682 37.6602 93.9127 36.8157 93.9127 35.7731C93.9127 34.7312 93.0682 33.8861 92.0262 33.8861C90.9843 33.8861 90.1392 34.7312 90.1392 35.7731ZM67.6487 47.0215C67.6487 48.0634 68.4932 48.9085 69.5358 48.9085C70.5771 48.9085 71.4222 48.0634 71.4222 47.0215C71.4222 45.9789 70.5777 45.1344 69.5358 45.1344C68.4932 45.1344 67.6487 45.9789 67.6487 47.0215ZM67.6487 58.2698C67.6487 59.3118 68.4932 60.1569 69.5358 60.1569C70.5771 60.1569 71.4222 59.3118 71.4222 58.2698C71.4222 57.2273 70.5777 56.3822 69.5358 56.3822C68.4932 56.3822 67.6487 57.2273 67.6487 58.2698ZM90.1392 47.0215C90.1392 48.0634 90.9843 48.9085 92.0262 48.9085C93.0682 48.9085 93.9127 48.0634 93.9127 47.0215C93.9127 45.9789 93.0682 45.1344 92.0262 45.1344C90.9843 45.1344 90.1392 45.9789 90.1392 47.0215ZM67.6487 24.5254C67.6487 25.5673 68.4932 26.4124 69.5358 26.4124C70.5771 26.4124 71.4222 25.5673 71.4222 24.5254C71.4222 23.4828 70.5777 22.6377 69.5358 22.6377C68.4932 22.6377 67.6487 23.4828 67.6487 24.5254ZM67.6487 35.7731C67.6487 36.8157 68.4932 37.6602 69.5358 37.6602C70.5771 37.6602 71.4222 36.8157 71.4222 35.7731C71.4222 34.7312 70.5777 33.8861 69.5358 33.8861C68.4932 33.8861 67.6487 34.7312 67.6487 35.7731ZM90.1392 24.5254C90.1392 25.5673 90.9843 26.4124 92.0262 26.4124C93.0682 26.4124 93.9127 25.5673 93.9127 24.5254C93.9127 23.4828 93.0682 22.6377 92.0262 22.6377C90.9843 22.6377 90.1392 23.4828 90.1392 24.5254ZM78.894 24.5254C78.894 25.5673 79.7384 26.4124 80.781 26.4124C81.823 26.4124 82.6674 25.5673 82.6674 24.5254C82.6674 23.4828 81.823 22.6377 80.781 22.6377C79.7384 22.6377 78.894 23.4828 78.894 24.5254ZM90.1392 58.2698C90.1392 59.3118 90.9843 60.1569 92.0262 60.1569C93.0682 60.1569 93.9127 59.3118 93.9127 58.2698C93.9127 57.2273 93.0682 56.3822 92.0262 56.3822C90.9843 56.3822 90.1392 57.2273 90.1392 58.2698ZM90.1392 13.277C90.1392 14.319 90.9843 15.1641 92.0262 15.1641C93.0682 15.1641 93.9127 14.319 93.9127 13.277C93.9127 12.2344 93.0682 11.39 92.0262 11.39C90.9843 11.39 90.1392 12.2344 90.1392 13.277ZM78.894 69.5176C78.894 70.5602 79.7384 71.4046 80.781 71.4046C81.823 71.4046 82.6674 70.5602 82.6674 69.5176C82.6674 68.4756 81.823 67.6305 80.781 67.6305C79.7384 67.6305 78.894 68.4756 78.894 69.5176ZM67.6487 69.5176C67.6487 70.5602 68.4932 71.4046 69.5358 71.4046C70.5771 71.4046 71.4222 70.5602 71.4222 69.5176C71.4222 68.4756 70.5777 67.6305 69.5358 67.6305C68.4932 67.6305 67.6487 68.4756 67.6487 69.5176ZM90.1392 69.5176C90.1392 70.5602 90.9843 71.4046 92.0262 71.4046C93.0682 71.4046 93.9127 70.5602 93.9127 69.5176C93.9127 68.4756 93.0682 67.6305 92.0262 67.6305C90.9843 67.6305 90.1392 68.4756 90.1392 69.5176ZM67.6487 2.02866C67.6487 3.07124 68.4932 3.91571 69.5358 3.91571C70.5771 3.91571 71.4222 3.07124 71.4222 2.02866C71.4222 0.986702 70.5777 0.141602 69.5358 0.141602C68.4932 0.141602 67.6487 0.986702 67.6487 2.02866ZM78.894 2.02866C78.894 3.07124 79.7384 3.91571 80.781 3.91571C81.823 3.91571 82.6674 3.07124 82.6674 2.02866C82.6674 0.986702 81.823 0.141602 80.781 0.141602C79.7384 0.141602 78.894 0.986702 78.894 2.02866ZM90.1392 2.02866C90.1392 3.07124 90.9843 3.91571 92.0262 3.91571C93.0682 3.91571 93.9127 3.07124 93.9127 2.02866C93.9127 0.986702 93.0682 0.141602 92.0262 0.141602C90.9843 0.141602 90.1392 0.986702 90.1392 2.02866ZM67.6487 13.277C67.6487 14.319 68.4932 15.1641 69.5358 15.1641C70.5771 15.1641 71.4222 14.319 71.4222 13.277C71.4222 12.2344 70.5777 11.39 69.5358 11.39C68.4932 11.39 67.6487 12.2344 67.6487 13.277ZM78.894 13.277C78.894 14.319 79.7384 15.1641 80.781 15.1641C81.823 15.1641 82.6674 14.319 82.6674 13.277C82.6674 12.2344 81.823 11.39 80.781 11.39C79.7384 11.39 78.894 12.2344 78.894 13.277ZM112.395 47.0215C112.395 48.0634 113.239 48.9085 114.281 48.9085C115.323 48.9085 116.168 48.0634 116.168 47.0215C116.168 45.9789 115.323 45.1344 114.281 45.1344C113.239 45.1344 112.395 45.9789 112.395 47.0215ZM112.395 35.7731C112.395 36.8157 113.239 37.6602 114.281 37.6602C115.323 37.6602 116.168 36.8157 116.168 35.7731C116.168 34.7312 115.323 33.8861 114.281 33.8861C113.239 33.8861 112.395 34.7312 112.395 35.7731ZM112.395 58.2698C112.395 59.3118 113.239 60.1569 114.281 60.1569C115.323 60.1569 116.168 59.3118 116.168 58.2698C116.168 57.2273 115.323 56.3822 114.281 56.3822C113.239 56.3822 112.395 57.2273 112.395 58.2698ZM123.64 35.7731C123.64 36.8157 124.484 37.6602 125.526 37.6602C126.568 37.6602 127.413 36.8157 127.413 35.7731C127.413 34.7312 126.569 33.8861 125.526 33.8861C124.484 33.8861 123.64 34.7312 123.64 35.7731ZM101.149 47.0215C101.149 48.0634 101.994 48.9085 103.036 48.9085C104.078 48.9085 104.923 48.0634 104.923 47.0215C104.923 45.9789 104.078 45.1344 103.036 45.1344C101.994 45.1344 101.149 45.9789 101.149 47.0215ZM101.149 58.2698C101.149 59.3118 101.994 60.1569 103.036 60.1569C104.078 60.1569 104.923 59.3118 104.923 58.2698C104.923 57.2273 104.078 56.3822 103.036 56.3822C101.994 56.3822 101.149 57.2273 101.149 58.2698ZM123.64 47.0215C123.64 48.0634 124.484 48.9085 125.526 48.9085C126.568 48.9085 127.413 48.0634 127.413 47.0215C127.413 45.9789 126.569 45.1344 125.526 45.1344C124.484 45.1344 123.64 45.9789 123.64 47.0215ZM101.149 24.5254C101.149 25.5673 101.994 26.4124 103.036 26.4124C104.078 26.4124 104.923 25.5673 104.923 24.5254C104.923 23.4828 104.078 22.6377 103.036 22.6377C101.994 22.6377 101.149 23.4828 101.149 24.5254ZM101.149 35.7731C101.149 36.8157 101.994 37.6602 103.036 37.6602C104.078 37.6602 104.923 36.8157 104.923 35.7731C104.923 34.7312 104.078 33.8861 103.036 33.8861C101.994 33.8861 101.149 34.7312 101.149 35.7731ZM123.64 24.5254C123.64 25.5673 124.484 26.4124 125.526 26.4124C126.568 26.4124 127.413 25.5673 127.413 24.5254C127.413 23.4828 126.569 22.6377 125.526 22.6377C124.484 22.6377 123.64 23.4828 123.64 24.5254ZM112.395 24.5254C112.395 25.5673 113.239 26.4124 114.281 26.4124C115.323 26.4124 116.168 25.5673 116.168 24.5254C116.168 23.4828 115.323 22.6377 114.281 22.6377C113.239 22.6377 112.395 23.4828 112.395 24.5254ZM123.64 58.2698C123.64 59.3118 124.484 60.1569 125.526 60.1569C126.568 60.1569 127.413 59.3118 127.413 58.2698C127.413 57.2273 126.569 56.3822 125.526 56.3822C124.484 56.3822 123.64 57.2273 123.64 58.2698ZM123.64 13.277C123.64 14.319 124.484 15.1641 125.526 15.1641C126.568 15.1641 127.413 14.319 127.413 13.277C127.413 12.2344 126.569 11.39 125.526 11.39C124.484 11.39 123.64 12.2344 123.64 13.277ZM112.395 69.5176C112.395 70.5602 113.239 71.4046 114.281 71.4046C115.323 71.4046 116.168 70.5602 116.168 69.5176C116.168 68.4756 115.323 67.6305 114.281 67.6305C113.239 67.6305 112.395 68.4756 112.395 69.5176ZM101.149 69.5176C101.149 70.5602 101.994 71.4046 103.036 71.4046C104.078 71.4046 104.923 70.5602 104.923 69.5176C104.923 68.4756 104.078 67.6305 103.036 67.6305C101.994 67.6305 101.149 68.4756 101.149 69.5176ZM123.64 69.5176C123.64 70.5602 124.484 71.4046 125.526 71.4046C126.568 71.4046 127.413 70.5602 127.413 69.5176C127.413 68.4756 126.569 67.6305 125.526 67.6305C124.484 67.6305 123.64 68.4756 123.64 69.5176ZM101.149 2.02866C101.149 3.07124 101.994 3.91571 103.036 3.91571C104.078 3.91571 104.923 3.07124 104.923 2.02866C104.923 0.986702 104.078 0.141602 103.036 0.141602C101.994 0.141602 101.149 0.986702 101.149 2.02866ZM112.395 2.02866C112.395 3.07124 113.239 3.91571 114.281 3.91571C115.323 3.91571 116.168 3.07124 116.168 2.02866C116.168 0.986702 115.323 0.141602 114.281 0.141602C113.239 0.141602 112.395 0.986702 112.395 2.02866ZM123.64 2.02866C123.64 3.07124 124.484 3.91571 125.526 3.91571C126.568 3.91571 127.413 3.07124 127.413 2.02866C127.413 0.986702 126.569 0.141602 125.526 0.141602C124.484 0.141602 123.64 0.986702 123.64 2.02866ZM101.149 13.277C101.149 14.319 101.994 15.1641 103.036 15.1641C104.078 15.1641 104.923 14.319 104.923 13.277C104.923 12.2344 104.078 11.39 103.036 11.39C101.994 11.39 101.149 12.2344 101.149 13.277ZM112.395 13.277C112.395 14.319 113.239 15.1641 114.281 15.1641C115.323 15.1641 116.168 14.319 116.168 13.277C116.168 12.2344 115.323 11.39 114.281 11.39C113.239 11.39 112.395 12.2344 112.395 13.277ZM11.7931 125.971C11.7931 127.013 12.6382 127.858 13.6802 127.858C14.7221 127.858 15.5666 127.013 15.5666 125.971C15.5666 124.929 14.7221 124.084 13.6802 124.084C12.6376 124.084 11.7931 124.929 11.7931 125.971ZM11.7931 114.723C11.7931 115.765 12.6382 116.61 13.6802 116.61C14.7221 116.61 15.5666 115.765 15.5666 114.723C15.5666 113.68 14.7221 112.836 13.6802 112.836C12.6376 112.836 11.7931 113.68 11.7931 114.723ZM23.0383 114.723C23.0383 115.765 23.8834 116.61 24.9254 116.61C25.9674 116.61 26.8118 115.765 26.8118 114.723C26.8118 113.68 25.9674 112.836 24.9254 112.836C23.8834 112.836 23.0383 113.68 23.0383 114.723ZM0.547886 125.971C0.547886 127.013 1.39236 127.858 2.43494 127.858C3.4769 127.858 4.32137 127.013 4.32137 125.971C4.32137 124.929 3.4769 124.084 2.43494 124.084C1.39236 124.084 0.547886 124.929 0.547886 125.971ZM23.0383 125.971C23.0383 127.013 23.8834 127.858 24.9254 127.858C25.9674 127.858 26.8118 127.013 26.8118 125.971C26.8118 124.929 25.9674 124.084 24.9254 124.084C23.8834 124.084 23.0383 124.929 23.0383 125.971ZM0.547886 103.475C0.547886 104.517 1.39236 105.362 2.43494 105.362C3.4769 105.362 4.32137 104.517 4.32137 103.475C4.32137 102.433 3.4769 101.588 2.43494 101.588C1.39236 101.588 0.547886 102.433 0.547886 103.475ZM0.547886 114.723C0.547886 115.765 1.39236 116.61 2.43494 116.61C3.4769 116.61 4.32137 115.765 4.32137 114.723C4.32137 113.68 3.4769 112.836 2.43494 112.836C1.39236 112.836 0.547886 113.68 0.547886 114.723ZM23.0383 103.475C23.0383 104.517 23.8834 105.362 24.9254 105.362C25.9674 105.362 26.8118 104.517 26.8118 103.475C26.8118 102.433 25.9674 101.588 24.9254 101.588C23.8834 101.588 23.0383 102.433 23.0383 103.475ZM11.7931 103.475C11.7931 104.517 12.6382 105.362 13.6802 105.362C14.7221 105.362 15.5666 104.517 15.5666 103.475C15.5666 102.433 14.7221 101.588 13.6802 101.588C12.6376 101.588 11.7931 102.433 11.7931 103.475ZM23.0383 92.2268C23.0383 93.2688 23.8834 94.1139 24.9254 94.1139C25.9674 94.1139 26.8118 93.2688 26.8118 92.2268C26.8118 91.1842 25.9674 90.3391 24.9254 90.3391C23.8834 90.3391 23.0383 91.1842 23.0383 92.2268ZM0.547886 80.9785C0.547886 82.0204 1.39236 82.8655 2.43494 82.8655C3.4769 82.8655 4.32137 82.0204 4.32137 80.9785C4.32137 79.9359 3.4769 79.0914 2.43494 79.0914C1.39236 79.0914 0.547886 79.9359 0.547886 80.9785ZM11.7931 80.9785C11.7931 82.0204 12.6382 82.8655 13.6802 82.8655C14.7221 82.8655 15.5666 82.0204 15.5666 80.9785C15.5666 79.9359 14.7221 79.0914 13.6802 79.0914C12.6376 79.0914 11.7931 79.9359 11.7931 80.9785ZM23.0383 80.9785C23.0383 82.0204 23.8834 82.8655 24.9254 82.8655C25.9674 82.8655 26.8118 82.0204 26.8118 80.9785C26.8118 79.9359 25.9674 79.0914 24.9254 79.0914C23.8834 79.0914 23.0383 79.9359 23.0383 80.9785ZM0.547886 92.2268C0.547886 93.2688 1.39236 94.1139 2.43494 94.1139C3.4769 94.1139 4.32137 93.2688 4.32137 92.2268C4.32137 91.1842 3.4769 90.3391 2.43494 90.3391C1.39236 90.3391 0.547886 91.1842 0.547886 92.2268ZM11.7931 92.2268C11.7931 93.2688 12.6382 94.1139 13.6802 94.1139C14.7221 94.1139 15.5666 93.2688 15.5666 92.2268C15.5666 91.1842 14.7221 90.3391 13.6802 90.3391C12.6376 90.3391 11.7931 91.1842 11.7931 92.2268ZM45.2937 125.971C45.2937 127.013 46.1382 127.858 47.1801 127.858C48.2221 127.858 49.0672 127.013 49.0672 125.971C49.0672 124.929 48.2221 124.084 47.1801 124.084C46.1382 124.084 45.2937 124.929 45.2937 125.971ZM45.2937 114.723C45.2937 115.765 46.1382 116.61 47.1801 116.61C48.2221 116.61 49.0672 115.765 49.0672 114.723C49.0672 113.68 48.2221 112.836 47.1801 112.836C46.1382 112.836 45.2937 113.68 45.2937 114.723ZM56.5389 114.723C56.5389 115.765 57.3834 116.61 58.4254 116.61C59.4679 116.61 60.3124 115.765 60.3124 114.723C60.3124 113.68 59.4679 112.836 58.4254 112.836C57.3834 112.836 56.5389 113.68 56.5389 114.723ZM34.0485 125.971C34.0485 127.013 34.8929 127.858 35.9349 127.858C36.9769 127.858 37.822 127.013 37.822 125.971C37.822 124.929 36.9769 124.084 35.9349 124.084C34.8929 124.084 34.0485 124.929 34.0485 125.971ZM56.5389 125.971C56.5389 127.013 57.3834 127.858 58.4254 127.858C59.4679 127.858 60.3124 127.013 60.3124 125.971C60.3124 124.929 59.4679 124.084 58.4254 124.084C57.3834 124.084 56.5389 124.929 56.5389 125.971ZM34.0485 103.475C34.0485 104.517 34.8929 105.362 35.9349 105.362C36.9769 105.362 37.822 104.517 37.822 103.475C37.822 102.433 36.9769 101.588 35.9349 101.588C34.8929 101.588 34.0485 102.433 34.0485 103.475ZM34.0485 114.723C34.0485 115.765 34.8929 116.61 35.9349 116.61C36.9769 116.61 37.822 115.765 37.822 114.723C37.822 113.68 36.9769 112.836 35.9349 112.836C34.8929 112.836 34.0485 113.68 34.0485 114.723ZM56.5389 103.475C56.5389 104.517 57.3834 105.362 58.4254 105.362C59.4679 105.362 60.3124 104.517 60.3124 103.475C60.3124 102.433 59.4679 101.588 58.4254 101.588C57.3834 101.588 56.5389 102.433 56.5389 103.475ZM45.2937 103.475C45.2937 104.517 46.1382 105.362 47.1801 105.362C48.2221 105.362 49.0672 104.517 49.0672 103.475C49.0672 102.433 48.2221 101.588 47.1801 101.588C46.1382 101.588 45.2937 102.433 45.2937 103.475ZM56.5389 92.2268C56.5389 93.2688 57.3834 94.1139 58.4254 94.1139C59.4679 94.1139 60.3124 93.2688 60.3124 92.2268C60.3124 91.1842 59.4679 90.3391 58.4254 90.3391C57.3834 90.3391 56.5389 91.1842 56.5389 92.2268ZM34.0485 80.9785C34.0485 82.0204 34.8929 82.8655 35.9349 82.8655C36.9769 82.8655 37.822 82.0204 37.822 80.9785C37.822 79.9359 36.9769 79.0914 35.9349 79.0914C34.8929 79.0914 34.0485 79.9359 34.0485 80.9785ZM45.2937 80.9785C45.2937 82.0204 46.1382 82.8655 47.1801 82.8655C48.2221 82.8655 49.0672 82.0204 49.0672 80.9785C49.0672 79.9359 48.2221 79.0914 47.1801 79.0914C46.1382 79.0914 45.2937 79.9359 45.2937 80.9785ZM56.5389 80.9785C56.5389 82.0204 57.3834 82.8655 58.4254 82.8655C59.4679 82.8655 60.3124 82.0204 60.3124 80.9785C60.3124 79.9359 59.4679 79.0914 58.4254 79.0914C57.3834 79.0914 56.5389 79.9359 56.5389 80.9785ZM34.0485 92.2268C34.0485 93.2688 34.8929 94.1139 35.9349 94.1139C36.9769 94.1139 37.822 93.2688 37.822 92.2268C37.822 91.1842 36.9769 90.3391 35.9349 90.3391C34.8929 90.3391 34.0485 91.1842 34.0485 92.2268ZM45.2937 92.2268C45.2937 93.2688 46.1382 94.1139 47.1801 94.1139C48.2221 94.1139 49.0672 93.2688 49.0672 92.2268C49.0672 91.1842 48.2221 90.3391 47.1801 90.3391C46.1382 90.3391 45.2937 91.1842 45.2937 92.2268ZM78.894 125.971C78.894 127.013 79.7384 127.858 80.781 127.858C81.823 127.858 82.6674 127.013 82.6674 125.971C82.6674 124.929 81.823 124.084 80.781 124.084C79.7384 124.084 78.894 124.929 78.894 125.971ZM78.894 114.723C78.894 115.765 79.7384 116.61 80.781 116.61C81.823 116.61 82.6674 115.765 82.6674 114.723C82.6674 113.68 81.823 112.836 80.781 112.836C79.7384 112.836 78.894 113.68 78.894 114.723ZM90.1392 114.723C90.1392 115.765 90.9843 116.61 92.0262 116.61C93.0682 116.61 93.9127 115.765 93.9127 114.723C93.9127 113.68 93.0682 112.836 92.0262 112.836C90.9843 112.836 90.1392 113.68 90.1392 114.723ZM67.6487 125.971C67.6487 127.013 68.4932 127.858 69.5358 127.858C70.5771 127.858 71.4222 127.013 71.4222 125.971C71.4222 124.929 70.5777 124.084 69.5358 124.084C68.4932 124.084 67.6487 124.929 67.6487 125.971ZM90.1392 125.971C90.1392 127.013 90.9843 127.858 92.0262 127.858C93.0682 127.858 93.9127 127.013 93.9127 125.971C93.9127 124.929 93.0682 124.084 92.0262 124.084C90.9843 124.084 90.1392 124.929 90.1392 125.971ZM67.6487 103.475C67.6487 104.517 68.4932 105.362 69.5358 105.362C70.5771 105.362 71.4222 104.517 71.4222 103.475C71.4222 102.433 70.5777 101.588 69.5358 101.588C68.4932 101.588 67.6487 102.433 67.6487 103.475ZM67.6487 114.723C67.6487 115.765 68.4932 116.61 69.5358 116.61C70.5771 116.61 71.4222 115.765 71.4222 114.723C71.4222 113.68 70.5777 112.836 69.5358 112.836C68.4932 112.836 67.6487 113.68 67.6487 114.723ZM90.1392 103.475C90.1392 104.517 90.9843 105.362 92.0262 105.362C93.0682 105.362 93.9127 104.517 93.9127 103.475C93.9127 102.433 93.0682 101.588 92.0262 101.588C90.9843 101.588 90.1392 102.433 90.1392 103.475ZM78.894 103.475C78.894 104.517 79.7384 105.362 80.781 105.362C81.823 105.362 82.6674 104.517 82.6674 103.475C82.6674 102.433 81.823 101.588 80.781 101.588C79.7384 101.588 78.894 102.433 78.894 103.475ZM90.1392 92.2268C90.1392 93.2688 90.9843 94.1139 92.0262 94.1139C93.0682 94.1139 93.9127 93.2688 93.9127 92.2268C93.9127 91.1842 93.0682 90.3391 92.0262 90.3391C90.9843 90.3391 90.1392 91.1842 90.1392 92.2268ZM67.6487 80.9785C67.6487 82.0204 68.4932 82.8655 69.5358 82.8655C70.5771 82.8655 71.4222 82.0204 71.4222 80.9785C71.4222 79.9359 70.5777 79.0914 69.5358 79.0914C68.4932 79.0914 67.6487 79.9359 67.6487 80.9785ZM78.894 80.9785C78.894 82.0204 79.7384 82.8655 80.781 82.8655C81.823 82.8655 82.6674 82.0204 82.6674 80.9785C82.6674 79.9359 81.823 79.0914 80.781 79.0914C79.7384 79.0914 78.894 79.9359 78.894 80.9785ZM90.1392 80.9785C90.1392 82.0204 90.9843 82.8655 92.0262 82.8655C93.0682 82.8655 93.9127 82.0204 93.9127 80.9785C93.9127 79.9359 93.0682 79.0914 92.0262 79.0914C90.9843 79.0914 90.1392 79.9359 90.1392 80.9785ZM67.6487 92.2268C67.6487 93.2688 68.4932 94.1139 69.5358 94.1139C70.5771 94.1139 71.4222 93.2688 71.4222 92.2268C71.4222 91.1842 70.5777 90.3391 69.5358 90.3391C68.4932 90.3391 67.6487 91.1842 67.6487 92.2268ZM78.894 92.2268C78.894 93.2688 79.7384 94.1139 80.781 94.1139C81.823 94.1139 82.6674 93.2688 82.6674 92.2268C82.6674 91.1842 81.823 90.3391 80.781 90.3391C79.7384 90.3391 78.894 91.1842 78.894 92.2268ZM112.395 125.971C112.395 127.013 113.239 127.858 114.281 127.858C115.323 127.858 116.168 127.013 116.168 125.971C116.168 124.929 115.323 124.084 114.281 124.084C113.239 124.084 112.395 124.929 112.395 125.971ZM112.395 114.723C112.395 115.765 113.239 116.61 114.281 116.61C115.323 116.61 116.168 115.765 116.168 114.723C116.168 113.68 115.323 112.836 114.281 112.836C113.239 112.836 112.395 113.68 112.395 114.723ZM123.64 114.723C123.64 115.765 124.484 116.61 125.526 116.61C126.568 116.61 127.413 115.765 127.413 114.723C127.413 113.68 126.569 112.836 125.526 112.836C124.484 112.836 123.64 113.68 123.64 114.723ZM101.149 125.971C101.149 127.013 101.994 127.858 103.036 127.858C104.078 127.858 104.923 127.013 104.923 125.971C104.923 124.929 104.078 124.084 103.036 124.084C101.994 124.084 101.149 124.929 101.149 125.971ZM123.64 125.971C123.64 127.013 124.484 127.858 125.526 127.858C126.568 127.858 127.413 127.013 127.413 125.971C127.413 124.929 126.569 124.084 125.526 124.084C124.484 124.084 123.64 124.929 123.64 125.971ZM101.149 103.475C101.149 104.517 101.994 105.362 103.036 105.362C104.078 105.362 104.923 104.517 104.923 103.475C104.923 102.433 104.078 101.588 103.036 101.588C101.994 101.588 101.149 102.433 101.149 103.475ZM101.149 114.723C101.149 115.765 101.994 116.61 103.036 116.61C104.078 116.61 104.923 115.765 104.923 114.723C104.923 113.68 104.078 112.836 103.036 112.836C101.994 112.836 101.149 113.68 101.149 114.723ZM123.64 103.475C123.64 104.517 124.484 105.362 125.526 105.362C126.568 105.362 127.413 104.517 127.413 103.475C127.413 102.433 126.569 101.588 125.526 101.588C124.484 101.588 123.64 102.433 123.64 103.475ZM112.395 103.475C112.395 104.517 113.239 105.362 114.281 105.362C115.323 105.362 116.168 104.517 116.168 103.475C116.168 102.433 115.323 101.588 114.281 101.588C113.239 101.588 112.395 102.433 112.395 103.475ZM123.64 92.2268C123.64 93.2688 124.484 94.1139 125.526 94.1139C126.568 94.1139 127.413 93.2688 127.413 92.2268C127.413 91.1842 126.569 90.3391 125.526 90.3391C124.484 90.3391 123.64 91.1842 123.64 92.2268ZM101.149 80.9785C101.149 82.0204 101.994 82.8655 103.036 82.8655C104.078 82.8655 104.923 82.0204 104.923 80.9785C104.923 79.9359 104.078 79.0914 103.036 79.0914C101.994 79.0914 101.149 79.9359 101.149 80.9785ZM112.395 80.9785C112.395 82.0204 113.239 82.8655 114.281 82.8655C115.323 82.8655 116.168 82.0204 116.168 80.9785C116.168 79.9359 115.323 79.0914 114.281 79.0914C113.239 79.0914 112.395 79.9359 112.395 80.9785ZM123.64 80.9785C123.64 82.0204 124.484 82.8655 125.526 82.8655C126.568 82.8655 127.413 82.0204 127.413 80.9785C127.413 79.9359 126.569 79.0914 125.526 79.0914C124.484 79.0914 123.64 79.9359 123.64 80.9785ZM101.149 92.2268C101.149 93.2688 101.994 94.1139 103.036 94.1139C104.078 94.1139 104.923 93.2688 104.923 92.2268C104.923 91.1842 104.078 90.3391 103.036 90.3391C101.994 90.3391 101.149 91.1842 101.149 92.2268ZM112.395 92.2268C112.395 93.2688 113.239 94.1139 114.281 94.1139C115.323 94.1139 116.168 93.2688 116.168 92.2268C116.168 91.1842 115.323 90.3391 114.281 90.3391C113.239 90.3391 112.395 91.1842 112.395 92.2268Z" fill="#444F60" fill-opacity="0.83"/>
</svg>
