<svg width="534" height="330" viewBox="0 0 534 330" fill="none" xmlns="http://www.w3.org/2000/svg">
<g clip-path="url(#clip0_1_28097)">
<path d="M514.672 187.431C497.296 181.753 521.547 166.393 521.547 166.393C521.547 166.393 532.047 193.11 514.672 187.431ZM519.02 174.124C517.859 173.745 516.611 173.72 515.434 174.054C514.256 174.387 513.202 175.063 512.405 175.996C511.609 176.93 511.104 178.079 510.957 179.298C510.809 180.517 511.024 181.752 511.575 182.846C512.127 183.94 512.989 184.844 514.053 185.444C515.118 186.044 516.336 186.313 517.555 186.217C518.774 186.12 519.938 185.663 520.901 184.903C521.863 184.143 522.58 183.114 522.962 181.947C523.216 181.171 523.315 180.354 523.254 179.541C523.194 178.728 522.974 177.936 522.608 177.21C522.242 176.483 521.737 175.837 521.121 175.307C520.505 174.778 519.792 174.376 519.02 174.124Z" fill="#4CB1FF"/>
<path d="M515.425 185.127C514.422 184.799 513.539 184.18 512.888 183.347C512.237 182.514 511.848 181.506 511.769 180.448C511.689 179.391 511.924 178.333 512.443 177.408C512.962 176.483 513.742 175.732 514.684 175.251C515.626 174.769 516.688 174.579 517.736 174.704C518.784 174.828 519.771 175.263 520.571 175.951C521.371 176.64 521.95 177.552 522.233 178.573C522.516 179.594 522.491 180.677 522.162 181.685C521.943 182.355 521.596 182.976 521.139 183.511C520.682 184.047 520.125 184.487 519.499 184.807C518.873 185.127 518.191 185.32 517.492 185.374C516.793 185.429 516.09 185.345 515.425 185.127ZM518.488 175.752C517.647 175.478 516.743 175.461 515.891 175.703C515.039 175.945 514.276 176.435 513.699 177.112C513.123 177.788 512.758 178.62 512.652 179.503C512.545 180.386 512.702 181.28 513.101 182.072C513.5 182.864 514.125 183.518 514.896 183.953C515.667 184.387 516.549 184.581 517.432 184.511C518.314 184.441 519.157 184.11 519.854 183.56C520.551 183.009 521.07 182.264 521.347 181.419C521.53 180.857 521.602 180.265 521.558 179.676C521.513 179.087 521.354 178.513 521.088 177.987C520.823 177.461 520.457 176.992 520.011 176.609C519.564 176.226 519.047 175.935 518.488 175.752Z" fill="#4CB1FF"/>
<path d="M524.862 162.928C524.99 162.536 525 162.114 524.89 161.717C524.78 161.321 524.555 160.966 524.243 160.698C523.932 160.43 523.548 160.261 523.141 160.213C522.733 160.164 522.32 160.238 521.954 160.425C521.587 160.613 521.284 160.905 521.082 161.264C520.881 161.624 520.789 162.036 520.82 162.447C520.851 162.858 521.003 163.25 521.256 163.574C521.509 163.898 521.852 164.139 522.242 164.266C522.765 164.437 523.335 164.392 523.826 164.141C524.318 163.89 524.69 163.454 524.862 162.928Z" fill="#4CB1FF"/>
<path d="M49.6285 37.438C50.583 37.2713 51.5636 37.3603 52.4714 37.6958C53.3792 38.0314 54.182 38.6017 54.7991 39.3494L67.6175 54.8259C68.0557 55.3539 68.6234 55.7579 69.2649 55.9983C69.9064 56.2388 70.5997 56.3073 71.2766 56.1973L78.8483 54.9595C80.7385 54.6592 82.6704 54.7932 84.4988 55.3513L85.6844 55.7053C85.9009 55.7656 86.0956 55.8864 86.246 56.0539C86.3963 56.2213 86.4961 56.4284 86.5336 56.6509C86.5711 56.8735 86.5448 57.1024 86.4578 57.311C86.3708 57.5195 86.2266 57.6991 86.0422 57.8288L85.0375 58.5624C83.4917 59.6924 81.7124 60.4572 79.8332 60.7996L72.2859 62.1792C71.6115 62.3038 70.9804 62.6023 70.4545 63.0453C69.9285 63.4883 69.5258 64.0606 69.2858 64.7062L62.2651 83.6446C61.9255 84.556 61.3543 85.3628 60.6084 85.9846C59.8625 86.6064 58.9679 87.0214 58.014 87.1883C60.7952 78.9962 61.523 69.2385 61.7122 65.1867C61.7186 65.0565 61.6957 64.9266 61.6451 64.8067C61.5946 64.6868 61.5177 64.58 61.4202 64.4943C61.3227 64.4086 61.2072 64.3462 61.0822 64.3117C60.9571 64.2772 60.8259 64.2715 60.6982 64.2951L60.5665 65.9702C60.5329 66.3622 60.353 66.7274 60.0627 66.9924C59.7725 67.2574 59.3936 67.4026 59.0021 67.3988L56.8202 67.3839C56.5254 67.379 56.2404 67.2785 56.0076 67.0974C55.7639 66.909 55.4629 66.8106 55.1549 66.8187L54.3673 66.8247L55.1962 66.5271C55.4542 66.4343 55.6772 66.2631 55.8343 66.0374L56.099 65.6599L56.5578 65.0323L54.9437 65.3409C53.9166 65.5293 52.8701 65.5849 51.8298 65.5063L46.5932 65.1202L45.4911 70.9095C45.3773 71.5113 45.065 72.0577 44.6045 72.4602C44.144 72.8628 43.5623 73.098 42.9535 73.1278L41.0547 73.2138L42.656 64.8284L41.1989 64.7201C41.1469 64.7176 41.0973 64.6974 41.0584 64.6628C41.0195 64.6282 40.9934 64.5813 40.9846 64.5297C40.9758 64.4782 40.9848 64.4251 41.01 64.3793C41.0352 64.3334 41.0751 64.2975 41.1233 64.2774L42.4486 63.6821L38.204 56.3168L40.0496 55.7578C40.6305 55.5785 41.2539 55.6009 41.8192 55.8213C42.3845 56.0417 42.8588 56.4473 43.1655 56.9725L46.1389 62.0453L50.8999 59.9433C51.8568 59.5192 52.863 59.2187 53.8944 59.0491L55.4974 58.787L54.8855 58.3697L54.5118 58.1012C54.2924 57.9444 54.0303 57.8587 53.7606 57.8557L52.8803 57.8523L53.627 57.603C53.9189 57.503 54.1683 57.3056 54.3335 57.0438C54.4913 56.7934 54.7277 56.6028 55.0052 56.5025L57.06 55.7484C57.4283 55.6143 57.8329 55.6246 58.1931 55.7772C58.5532 55.9297 58.8424 56.2134 59.0027 56.5714L59.6543 58.1013C59.7818 58.0807 59.9032 58.0315 60.0093 57.9574C60.1155 57.8833 60.2037 57.7861 60.2674 57.6731C60.3311 57.5601 60.3686 57.4342 60.3772 57.3048C60.3858 57.1754 60.3652 57.0458 60.317 56.9257C58.8209 53.1843 54.9384 44.2276 49.6285 37.438Z" fill="#4CB1FF"/>
<path d="M106.245 51.9441C106.047 51.8793 105.836 51.8679 105.632 51.911C104.349 52.1857 103.043 52.482 101.751 52.7831C101.444 52.8552 101.178 53.0468 101.011 53.3156C100.844 53.5844 100.79 53.9085 100.861 54.2166C100.931 54.5247 101.121 54.7915 101.388 54.9583C101.655 55.1252 101.978 55.1784 102.285 55.1063C103.56 54.804 104.852 54.5155 106.122 54.2408C106.377 54.1851 106.606 54.0468 106.775 53.8472C106.944 53.6477 107.043 53.398 107.057 53.1368C107.071 52.8755 106.999 52.6171 106.853 52.4016C106.706 52.186 106.492 52.0253 106.245 51.9441Z" fill="#4CB1FF"/>
<path d="M439.78 125.223L438.822 124.909C438.523 124.812 438.197 124.838 437.917 124.981C437.636 125.124 437.423 125.374 437.325 125.674C437.227 125.975 437.251 126.302 437.393 126.583C437.535 126.865 437.782 127.078 438.081 127.176L439.035 127.488C441.18 128.188 443.39 128.932 445.606 129.693C445.905 129.791 446.231 129.765 446.512 129.622C446.792 129.479 447.005 129.229 447.103 128.929C447.202 128.628 447.177 128.301 447.035 128.02C446.893 127.738 446.646 127.525 446.347 127.427C444.161 126.675 441.936 125.927 439.78 125.223ZM431.234 122.534L431.208 122.526C428.642 121.75 426.065 121 423.542 120.296C423.239 120.212 422.915 120.252 422.64 120.407C422.366 120.563 422.163 120.822 422.078 121.126C421.993 121.431 422.031 121.757 422.185 122.032C422.34 122.308 422.596 122.51 422.9 122.595C425.407 123.293 427.966 124.037 430.516 124.808C430.816 124.902 431.141 124.873 431.42 124.727C431.7 124.581 431.91 124.329 432.005 124.028C432.1 123.726 432.073 123.4 431.928 123.12C431.783 122.839 431.534 122.629 431.234 122.534ZM453.867 130.086C453.57 129.983 453.244 130.004 452.961 130.144C452.678 130.283 452.462 130.529 452.359 130.828C452.256 131.127 452.276 131.454 452.414 131.738C452.551 132.022 452.796 132.239 453.093 132.341C455.517 133.217 458.023 134.149 460.539 135.1C460.685 135.155 460.84 135.181 460.996 135.176C461.152 135.171 461.305 135.135 461.447 135.07C461.589 135.005 461.718 134.913 461.825 134.798C461.931 134.684 462.015 134.55 462.07 134.403C462.125 134.256 462.152 134.1 462.147 133.944C462.142 133.787 462.107 133.633 462.043 133.491C461.979 133.348 461.887 133.22 461.774 133.113C461.66 133.006 461.527 132.922 461.381 132.867C458.854 131.912 456.339 130.981 453.905 130.098L453.867 130.086ZM415.903 118.268L415.817 118.24C413.215 117.578 410.6 116.953 408.05 116.375C407.742 116.305 407.418 116.361 407.151 116.531C406.883 116.701 406.693 116.97 406.623 117.28C406.553 117.589 406.608 117.914 406.776 118.182C406.944 118.45 407.211 118.64 407.519 118.71C410.047 119.281 412.642 119.903 415.23 120.557C415.532 120.644 415.857 120.608 416.133 120.455C416.409 120.302 416.614 120.045 416.702 119.742C416.79 119.438 416.755 119.112 416.604 118.835C416.453 118.558 416.198 118.353 415.896 118.266L415.903 118.268ZM468.752 135.715C468.456 135.608 468.13 135.624 467.845 135.759C467.56 135.894 467.34 136.137 467.232 136.435C467.125 136.733 467.14 137.06 467.274 137.346C467.407 137.632 467.648 137.853 467.944 137.959C470.346 138.903 472.828 139.894 475.325 140.906C475.469 140.965 475.624 140.994 475.78 140.993C475.936 140.991 476.091 140.959 476.234 140.897C476.378 140.836 476.509 140.746 476.618 140.634C476.728 140.522 476.815 140.39 476.873 140.244C476.932 140.099 476.962 139.943 476.961 139.786C476.96 139.629 476.928 139.474 476.867 139.33C476.806 139.186 476.718 139.055 476.607 138.945C476.496 138.836 476.364 138.749 476.219 138.691C473.716 137.676 471.226 136.682 468.816 135.736L468.752 135.715ZM483.499 141.692C483.204 141.583 482.877 141.596 482.591 141.729C482.305 141.862 482.082 142.103 481.973 142.4C481.863 142.696 481.875 143.024 482.006 143.312C482.137 143.599 482.377 143.821 482.672 143.93C485.025 144.909 487.493 145.945 489.981 147.005C490.125 147.066 490.28 147.098 490.436 147.099C490.592 147.1 490.747 147.07 490.892 147.011C491.037 146.951 491.17 146.864 491.281 146.754C491.393 146.644 491.482 146.512 491.543 146.368C491.604 146.223 491.636 146.068 491.638 145.911C491.639 145.754 491.61 145.598 491.552 145.452C491.493 145.307 491.407 145.175 491.297 145.063C491.188 144.951 491.057 144.862 490.914 144.801C488.402 143.734 485.931 142.696 483.574 141.717L483.499 141.692ZM400.385 114.768C400.34 114.75 400.293 114.735 400.246 114.723C397.625 114.205 394.98 113.726 392.398 113.295C392.087 113.244 391.768 113.318 391.512 113.503C391.255 113.687 391.082 113.966 391.029 114.278C390.977 114.59 391.05 114.91 391.232 115.167C391.415 115.424 391.692 115.598 392.003 115.649C394.571 116.071 397.195 116.552 399.797 117.064C400.101 117.143 400.426 117.098 400.698 116.938C400.97 116.777 401.168 116.515 401.248 116.209C401.329 115.902 401.285 115.577 401.126 115.304C400.967 115.031 400.707 114.833 400.402 114.753L400.385 114.768ZM498.151 147.894C497.856 147.783 497.53 147.794 497.243 147.924C496.955 148.055 496.731 148.295 496.62 148.591C496.508 148.887 496.518 149.215 496.647 149.503C496.776 149.791 497.014 150.016 497.309 150.127C499.737 151.177 502.164 152.231 504.59 153.288C504.88 153.414 505.208 153.42 505.502 153.303C505.796 153.186 506.033 152.957 506.159 152.666C506.286 152.375 506.292 152.045 506.177 151.75C506.062 151.455 505.835 151.218 505.545 151.092C503.123 150.022 500.689 148.966 498.241 147.923L498.151 147.894ZM225.047 59.2062L224.093 58.8945C223.794 58.7968 223.469 58.8225 223.188 58.9659C222.907 59.1094 222.694 59.3588 222.596 59.6593C222.498 59.9599 222.522 60.2869 222.664 60.5684C222.806 60.85 223.054 61.0631 223.353 61.1607C225.854 61.9782 228.38 62.8245 230.835 63.7064C231.131 63.812 231.456 63.7954 231.741 63.6602C232.025 63.5251 232.244 63.2823 232.351 62.9853C232.404 62.838 232.428 62.6817 232.421 62.5253C232.414 62.3689 232.377 62.2155 232.31 62.074C232.244 61.9324 232.151 61.8054 232.036 61.7002C231.921 61.5951 231.786 61.5138 231.64 61.461C229.476 60.7037 227.252 59.9394 225.044 59.2176L225.047 59.2062ZM216.489 56.5808L216.444 56.566C213.898 55.8343 211.299 55.1355 208.726 54.4868C208.42 54.4102 208.096 54.4588 207.825 54.622C207.555 54.7851 207.359 55.0495 207.282 55.3568C207.204 55.6642 207.252 55.9894 207.413 56.2609C207.575 56.5324 207.837 56.728 208.143 56.8047C210.69 57.4448 213.265 58.1399 215.786 58.8593C215.935 58.9052 216.091 58.9212 216.246 58.9063C216.402 58.8914 216.552 58.846 216.69 58.7727C216.828 58.6993 216.95 58.5995 217.05 58.4788C217.149 58.3581 217.224 58.219 217.271 58.0694C217.317 57.9198 217.333 57.7626 217.319 57.6069C217.305 57.4511 217.26 57.2997 217.187 57.1615C217.115 57.0233 217.016 56.9008 216.896 56.8012C216.776 56.7016 216.638 56.6267 216.489 56.5808ZM239.073 64.2708C238.777 64.1641 238.451 64.18 238.166 64.315C237.881 64.45 237.661 64.693 237.554 64.9906C237.446 65.2882 237.461 65.616 237.595 65.9019C237.728 66.1878 237.969 66.4083 238.265 66.515C240.706 67.4799 243.165 68.505 245.586 69.5555C245.876 69.6817 246.203 69.687 246.498 69.5703C246.792 69.4536 247.028 69.2244 247.155 68.9332C247.282 68.6419 247.288 68.3125 247.173 68.0173C247.058 67.7221 246.83 67.4854 246.541 67.3592C244.106 66.3 241.621 65.2663 239.155 64.289L239.073 64.2708ZM384.691 112.148C384.625 112.12 384.558 112.098 384.488 112.082C381.832 111.724 379.158 111.41 376.542 111.157C376.234 111.134 375.928 111.233 375.69 111.433C375.453 111.633 375.302 111.918 375.27 112.227C375.239 112.537 375.329 112.846 375.521 113.089C375.713 113.332 375.993 113.489 376.3 113.528C378.888 113.788 381.52 114.092 384.163 114.45C384.456 114.489 384.753 114.417 384.997 114.247C385.24 114.078 385.412 113.823 385.478 113.533C385.545 113.244 385.501 112.94 385.356 112.682C385.211 112.423 384.975 112.229 384.695 112.137L384.691 112.148ZM201.058 52.6999L200.941 52.6618C198.341 52.0962 195.703 51.5686 193.101 51.0947C192.946 51.0597 192.784 51.0568 192.627 51.086C192.47 51.1153 192.32 51.1762 192.186 51.265C192.053 51.3538 191.939 51.4688 191.85 51.603C191.762 51.7371 191.702 51.8878 191.673 52.0458C191.644 52.2038 191.647 52.3659 191.682 52.5225C191.717 52.679 191.783 52.8268 191.877 52.9568C191.97 53.0868 192.089 53.1964 192.225 53.279C192.362 53.3617 192.514 53.4157 192.673 53.4377C195.245 53.9106 197.857 54.4296 200.433 54.9916C200.737 55.0743 201.062 55.0322 201.335 54.8747C201.609 54.7172 201.81 54.4571 201.893 54.1517C201.976 53.8463 201.935 53.5206 201.779 53.2462C201.623 52.9718 201.365 52.7712 201.061 52.6886L201.058 52.6999ZM253.66 70.6222C253.515 70.5644 253.36 70.5359 253.204 70.5383C253.048 70.5407 252.894 70.5739 252.75 70.6361C252.461 70.7617 252.232 70.9977 252.115 71.292C251.998 71.5863 252.002 71.915 252.126 72.2056C252.25 72.4963 252.484 72.7251 252.777 72.8418C255.158 73.9755 257.544 75.1606 259.869 76.3638C260.148 76.5103 260.473 76.5394 260.774 76.4448C261.075 76.3502 261.326 76.1396 261.473 75.8593C261.619 75.5791 261.65 75.2522 261.556 74.9505C261.463 74.6487 261.254 74.397 260.976 74.2505C258.626 73.0312 256.218 71.8387 253.823 70.6963L253.66 70.6222ZM185.401 49.8656C185.337 49.8459 185.272 49.8317 185.207 49.8231C182.578 49.4323 179.912 49.0795 177.28 48.7753C176.971 48.7447 176.661 48.8375 176.418 49.0338C176.175 49.2302 176.019 49.5143 175.982 49.8249C175.946 50.1355 176.032 50.4477 176.223 50.6941C176.413 50.9406 176.693 51.1016 177.001 51.1424C179.61 51.4429 182.248 51.7909 184.853 52.1781C185.16 52.2508 185.483 52.1978 185.752 52.0309C186.021 51.864 186.214 51.5968 186.287 51.2881C186.36 50.9795 186.309 50.6546 186.143 50.385C185.978 50.1154 185.713 49.9231 185.406 49.8505L185.401 49.8656ZM368.844 110.594C368.749 110.563 368.651 110.543 368.552 110.536C365.899 110.371 363.204 110.26 360.543 110.209C360.234 110.211 359.937 110.335 359.717 110.553C359.496 110.771 359.368 111.067 359.361 111.377C359.354 111.688 359.468 111.988 359.678 112.215C359.889 112.442 360.179 112.577 360.488 112.591C363.119 112.644 365.778 112.752 368.398 112.914C368.685 112.93 368.968 112.841 369.195 112.663C369.422 112.485 369.577 112.231 369.632 111.947C369.686 111.663 369.637 111.37 369.492 111.121C369.347 110.872 369.117 110.685 368.844 110.594ZM267.782 77.963C267.503 77.8735 267.2 77.8913 266.932 78.0129C266.664 78.1345 266.451 78.3514 266.332 78.6216C266.214 78.8918 266.2 79.1961 266.292 79.4757C266.384 79.7553 266.576 79.9904 266.831 80.1354C269.128 81.4255 271.428 82.7708 273.664 84.1328C273.933 84.2967 274.256 84.3463 274.563 84.2707C274.869 84.1952 275.133 84.0006 275.297 83.7299C275.461 83.4592 275.511 83.1345 275.437 82.8272C275.363 82.5199 275.17 82.2553 274.901 82.0914C272.64 80.717 270.315 79.3593 267.992 78.0569C267.929 78.0144 267.861 77.9783 267.791 77.9492L267.782 77.963ZM169.592 48.0435C169.503 48.0156 169.411 47.9969 169.319 47.9878C166.665 47.7768 163.981 47.6062 161.34 47.4704C161.18 47.4563 161.02 47.4748 160.868 47.5246C160.715 47.5745 160.575 47.6547 160.454 47.7605C160.333 47.8663 160.235 47.9954 160.165 48.1402C160.095 48.2849 160.055 48.4423 160.047 48.6028C160.039 48.7633 160.064 48.9236 160.119 49.0742C160.175 49.2247 160.26 49.3623 160.37 49.4787C160.48 49.5951 160.612 49.6879 160.759 49.7515C160.905 49.8151 161.063 49.8482 161.223 49.8488C163.84 49.9722 166.498 50.143 169.127 50.3416C169.417 50.3658 169.706 50.282 169.939 50.1064C170.172 49.9307 170.333 49.6753 170.391 49.3888C170.45 49.1023 170.401 48.8046 170.255 48.5524C170.109 48.3002 169.875 48.111 169.599 48.0209L169.592 48.0435ZM281.386 86.2258C281.113 86.1352 280.815 86.1479 280.549 86.2617C280.284 86.3755 280.068 86.5824 279.943 86.8439C279.818 87.1054 279.792 87.4034 279.869 87.6822C279.947 87.961 280.123 88.2015 280.365 88.3586C282.569 89.8063 284.767 91.3106 286.9 92.823C287.157 93.0054 287.475 93.0778 287.785 93.0244C288.095 92.9709 288.372 92.7959 288.555 92.5379C288.737 92.2799 288.81 91.96 288.758 91.6485C288.706 91.3371 288.533 91.0596 288.276 90.8772C286.123 89.3374 283.897 87.8282 281.666 86.3631C281.58 86.3028 281.487 86.2541 281.389 86.2183L281.386 86.2258ZM352.932 110.272C352.803 110.231 352.67 110.211 352.535 110.213C349.867 110.274 347.176 110.393 344.521 110.567C344.215 110.598 343.933 110.747 343.734 110.982C343.534 111.218 343.434 111.522 343.453 111.83C343.472 112.137 343.609 112.426 343.835 112.633C344.062 112.841 344.36 112.952 344.667 112.943C347.279 112.773 349.937 112.655 352.57 112.599C352.85 112.593 353.119 112.487 353.329 112.3C353.54 112.113 353.677 111.858 353.719 111.58C353.76 111.301 353.702 111.017 353.554 110.779C353.407 110.54 353.18 110.361 352.914 110.275L352.932 110.272ZM153.693 47.3085C153.58 47.2702 153.461 47.2511 153.342 47.2521C150.68 47.2182 147.989 47.2336 145.341 47.2963C145.185 47.3003 145.032 47.335 144.889 47.3986C144.747 47.4622 144.618 47.5533 144.51 47.6668C144.402 47.7802 144.318 47.9138 144.261 48.0599C144.205 48.206 144.178 48.3618 144.181 48.5183C144.185 48.6748 144.219 48.8289 144.281 48.972C144.344 49.1151 144.435 49.2442 144.547 49.352C144.66 49.4599 144.792 49.5443 144.938 49.6005C145.083 49.6567 145.238 49.6836 145.394 49.6796C148.012 49.6196 150.677 49.6045 153.308 49.6323C153.591 49.6345 153.865 49.5352 154.082 49.3523C154.299 49.1694 154.444 48.915 154.491 48.6348C154.537 48.3547 154.483 48.0673 154.338 47.8243C154.192 47.5814 153.965 47.3989 153.697 47.3097L153.693 47.3085ZM294.362 95.4454C294.096 95.358 293.808 95.3682 293.548 95.474C293.288 95.5798 293.073 95.7744 292.942 96.0235C292.811 96.2725 292.772 96.5599 292.831 96.8346C292.89 97.1094 293.045 97.3539 293.267 97.5247C295.362 99.129 297.447 100.789 299.457 102.474C299.577 102.573 299.715 102.648 299.864 102.693C300.013 102.739 300.17 102.754 300.325 102.739C300.48 102.724 300.631 102.678 300.769 102.604C300.906 102.531 301.028 102.43 301.128 102.309C301.227 102.188 301.302 102.049 301.348 101.899C301.393 101.749 301.409 101.592 301.395 101.436C301.38 101.28 301.335 101.129 301.262 100.991C301.189 100.853 301.09 100.731 300.969 100.631C298.931 98.945 296.823 97.2655 294.697 95.6551C294.6 95.5633 294.487 95.4898 294.365 95.4379L294.362 95.4454ZM337.045 111.321C336.885 111.27 336.716 111.253 336.549 111.272C333.894 111.563 331.222 111.914 328.603 112.321C328.449 112.345 328.301 112.399 328.167 112.481C328.034 112.562 327.918 112.669 327.825 112.795C327.733 112.922 327.666 113.065 327.628 113.217C327.591 113.37 327.584 113.528 327.607 113.682C327.631 113.837 327.684 113.986 327.765 114.12C327.845 114.253 327.951 114.37 328.077 114.462C328.203 114.555 328.345 114.621 328.496 114.658C328.648 114.695 328.805 114.702 328.959 114.678C331.546 114.269 334.192 113.93 336.783 113.636C337.054 113.607 337.306 113.486 337.499 113.292C337.692 113.099 337.813 112.845 337.842 112.573C337.871 112.302 337.806 112.028 337.658 111.8C337.51 111.571 337.288 111.4 337.03 111.317L337.045 111.321ZM137.782 47.6812C137.642 47.636 137.494 47.6175 137.347 47.6268C134.684 47.785 132.001 47.995 129.365 48.2498C129.06 48.2893 128.781 48.4466 128.588 48.6884C128.395 48.9301 128.303 49.2374 128.332 49.5453C128.36 49.8532 128.507 50.1376 128.74 50.3382C128.974 50.5389 129.276 50.6401 129.584 50.6206C132.19 50.3685 134.847 50.1625 137.479 50.007C137.757 49.9922 138.021 49.8801 138.225 49.6902C138.429 49.5003 138.561 49.2447 138.597 48.9679C138.633 48.691 138.571 48.4106 138.422 48.1755C138.273 47.9403 138.047 47.7654 137.782 47.6812ZM306.632 105.592C306.373 105.507 306.092 105.515 305.838 105.614C305.583 105.712 305.37 105.896 305.234 106.133C305.097 106.371 305.047 106.648 305.09 106.918C305.133 107.188 305.268 107.435 305.471 107.617C306.976 108.965 308.485 110.353 309.943 111.741L311.267 113.01C311.495 113.218 311.795 113.329 312.104 113.318C312.412 113.307 312.705 113.176 312.92 112.952C313.134 112.728 313.254 112.429 313.252 112.119C313.251 111.809 313.13 111.511 312.913 111.291L311.572 110.016C310.093 108.613 308.569 107.208 307.044 105.844C306.926 105.731 306.786 105.644 306.633 105.588L306.632 105.592ZM321.313 113.764C321.12 113.701 320.913 113.69 320.713 113.731C318.081 114.267 315.449 114.866 312.893 115.514C312.587 115.592 312.325 115.788 312.162 116.06C312 116.331 311.952 116.656 312.028 116.963C312.105 117.269 312.299 117.532 312.569 117.694C312.839 117.856 313.162 117.903 313.467 117.826C314.574 117.544 315.693 117.274 316.819 117.011C316.623 117.235 316.519 117.525 316.525 117.823C316.532 118.121 316.649 118.405 316.854 118.619C318.716 120.553 320.495 122.514 322.2 124.459C322.297 124.594 322.421 124.707 322.565 124.79C322.708 124.874 322.867 124.926 323.032 124.944C323.197 124.962 323.364 124.944 323.522 124.893C323.68 124.842 323.826 124.758 323.95 124.647C324.074 124.536 324.174 124.4 324.242 124.248C324.311 124.096 324.347 123.931 324.348 123.764C324.35 123.598 324.316 123.433 324.25 123.28C324.184 123.127 324.086 122.99 323.964 122.878C322.239 120.906 320.416 118.914 318.551 116.962C318.443 116.85 318.315 116.76 318.173 116.696C319.163 116.477 320.16 116.263 321.157 116.062C321.415 116.011 321.65 115.875 321.823 115.676C321.997 115.476 322.1 115.225 322.115 114.961C322.131 114.697 322.059 114.435 321.911 114.217C321.762 114 321.545 113.838 321.295 113.758L321.313 113.764ZM121.943 49.1939C121.774 49.139 121.595 49.1232 121.418 49.1476C118.779 49.5016 116.114 49.9224 113.504 50.3654C113.193 50.4192 112.917 50.5946 112.734 50.8529C112.552 51.1113 112.479 51.4314 112.532 51.743C112.584 52.0545 112.758 52.3319 113.015 52.5142C113.271 52.6964 113.59 52.7686 113.9 52.7147C116.484 52.2632 119.119 51.8577 121.727 51.5102C121.994 51.4753 122.243 51.3499 122.43 51.1546C122.618 50.9594 122.734 50.7059 122.759 50.4361C122.784 50.1663 122.717 49.8962 122.569 49.6703C122.421 49.4445 122.2 49.2765 121.943 49.1939ZM305.886 117.668C305.654 117.594 305.405 117.593 305.172 117.665C302.601 118.459 300.053 119.337 297.56 120.236C297.413 120.29 297.279 120.372 297.164 120.478C297.049 120.584 296.956 120.712 296.89 120.854C296.824 120.996 296.787 121.15 296.78 121.306C296.773 121.463 296.797 121.619 296.85 121.766C296.903 121.913 296.985 122.048 297.09 122.163C297.195 122.278 297.322 122.371 297.463 122.437C297.605 122.503 297.757 122.54 297.913 122.546C298.069 122.552 298.224 122.528 298.371 122.474C300.81 121.574 303.332 120.726 305.851 119.939C306.093 119.866 306.305 119.716 306.457 119.512C306.609 119.309 306.693 119.062 306.695 118.808C306.698 118.554 306.62 118.306 306.472 118.101C306.325 117.895 306.115 117.742 305.875 117.665L305.886 117.668ZM328.584 128.636C328.342 128.556 328.079 128.557 327.837 128.639C327.594 128.721 327.384 128.879 327.238 129.09C327.092 129.301 327.018 129.554 327.026 129.811C327.034 130.067 327.125 130.314 327.284 130.514C328.945 132.595 330.55 134.717 332.061 136.824C332.15 136.955 332.265 137.066 332.398 137.151C332.531 137.236 332.679 137.294 332.835 137.32C332.991 137.347 333.15 137.342 333.304 137.306C333.458 137.27 333.603 137.203 333.731 137.11C333.859 137.017 333.968 136.899 334.05 136.764C334.132 136.628 334.187 136.477 334.211 136.321C334.234 136.164 334.227 136.004 334.188 135.85C334.149 135.696 334.08 135.552 333.985 135.426C332.455 133.291 330.815 131.133 329.14 129.022C328.994 128.845 328.799 128.716 328.579 128.651L328.584 128.636ZM290.933 123.187C290.657 123.095 290.357 123.109 290.089 123.225C287.613 124.301 285.163 125.452 282.805 126.651C282.523 126.794 282.31 127.043 282.212 127.344C282.113 127.644 282.137 127.972 282.279 128.254C282.42 128.535 282.668 128.749 282.967 128.847C283.266 128.945 283.591 128.92 283.873 128.777C286.186 127.601 288.593 126.469 291.025 125.412C291.247 125.316 291.435 125.154 291.563 124.948C291.691 124.742 291.754 124.501 291.742 124.259C291.731 124.017 291.647 123.784 291.5 123.592C291.353 123.4 291.152 123.257 290.922 123.183L290.933 123.187ZM337.864 141.597C337.697 141.542 337.52 141.526 337.346 141.549C337.172 141.571 337.005 141.632 336.856 141.728C336.591 141.898 336.404 142.167 336.336 142.476C336.268 142.784 336.325 143.107 336.493 143.373C337.926 145.618 339.286 147.906 340.539 150.163C340.692 150.439 340.948 150.642 341.251 150.728C341.553 150.813 341.878 150.774 342.153 150.62C342.428 150.465 342.631 150.207 342.717 149.903C342.803 149.599 342.765 149.273 342.612 148.997C341.335 146.699 339.967 144.37 338.495 142.083C338.343 141.857 338.118 141.691 337.859 141.612L337.864 141.597ZM276.718 130.443C276.559 130.39 276.39 130.372 276.223 130.39C276.056 130.407 275.895 130.46 275.749 130.545C273.42 131.924 271.136 133.389 268.961 134.894C268.702 135.074 268.523 135.349 268.466 135.66C268.408 135.971 268.476 136.292 268.654 136.552C268.832 136.812 269.106 136.989 269.415 137.046C269.724 137.103 270.044 137.034 270.303 136.854C272.446 135.385 274.671 133.946 276.951 132.593C277.221 132.432 277.418 132.17 277.497 131.864C277.575 131.558 277.53 131.234 277.371 130.962C277.224 130.715 276.991 130.531 276.718 130.443ZM345.581 155.561C345.36 155.488 345.123 155.482 344.898 155.544C344.674 155.605 344.472 155.732 344.318 155.907C344.164 156.083 344.065 156.299 344.033 156.531C344 156.762 344.036 156.998 344.136 157.208C345.271 159.611 346.296 162.049 347.249 164.463C347.368 164.748 347.594 164.975 347.878 165.096C348.162 165.216 348.482 165.22 348.77 165.108C349.057 164.995 349.291 164.774 349.42 164.492C349.549 164.21 349.563 163.889 349.461 163.597C348.507 161.133 347.439 158.639 346.28 156.182C346.212 156.037 346.115 155.907 345.995 155.801C345.876 155.694 345.736 155.613 345.584 155.562L345.581 155.561ZM263.617 139.531C263.429 139.47 263.229 139.458 263.035 139.494C262.841 139.531 262.658 139.615 262.505 139.74C260.398 141.443 258.353 143.233 256.429 145.062C256.317 145.171 256.227 145.302 256.165 145.445C256.102 145.589 256.069 145.744 256.066 145.9C256.063 146.057 256.091 146.213 256.148 146.358C256.205 146.504 256.29 146.637 256.398 146.749C256.506 146.862 256.635 146.952 256.778 147.014C256.921 147.076 257.075 147.109 257.231 147.112C257.387 147.114 257.542 147.086 257.687 147.028C257.832 146.97 257.965 146.885 258.077 146.776C259.954 144.989 261.951 143.242 264.004 141.576C264.171 141.442 264.299 141.265 264.374 141.063C264.449 140.862 264.468 140.645 264.43 140.433C264.392 140.222 264.298 140.026 264.158 139.864C264.018 139.703 263.837 139.582 263.634 139.516L263.617 139.531ZM351.312 170.448C351.106 170.381 350.886 170.373 350.675 170.423C350.464 170.473 350.27 170.58 350.115 170.733C349.961 170.886 349.85 171.078 349.796 171.289C349.742 171.5 349.747 171.722 349.809 171.93C350.194 173.222 350.558 174.537 350.89 175.837C351.222 177.136 351.489 178.328 351.748 179.57C351.813 179.88 351.997 180.151 352.26 180.324C352.524 180.497 352.845 180.557 353.154 180.491C353.462 180.426 353.733 180.24 353.906 179.975C354.079 179.71 354.14 179.386 354.076 179.077C353.811 177.799 353.515 176.506 353.193 175.239C352.871 173.972 352.482 172.557 352.087 171.232C352.031 171.048 351.931 170.88 351.796 170.744C351.661 170.607 351.495 170.506 351.312 170.448ZM252.064 150.534C251.845 150.462 251.609 150.456 251.386 150.517C251.163 150.578 250.963 150.702 250.809 150.876C249.013 152.898 247.297 155.008 245.707 157.151C245.526 157.406 245.452 157.721 245.5 158.029C245.548 158.337 245.715 158.613 245.964 158.799C246.213 158.984 246.525 159.064 246.832 159.021C247.14 158.977 247.419 158.815 247.609 158.568C249.157 156.477 250.831 154.42 252.581 152.45C252.712 152.302 252.805 152.124 252.85 151.931C252.896 151.738 252.893 151.538 252.842 151.347C252.791 151.156 252.693 150.981 252.558 150.837C252.422 150.694 252.254 150.587 252.066 150.526L252.064 150.534ZM354.527 186.08C354.338 186.018 354.136 186.005 353.941 186.042C353.745 186.078 353.562 186.164 353.407 186.291C353.253 186.417 353.133 186.58 353.057 186.766C352.982 186.951 352.954 187.152 352.977 187.35C353.269 189.954 353.438 192.605 353.475 195.213C353.482 195.53 353.613 195.831 353.841 196.049C354.069 196.267 354.374 196.385 354.689 196.377C355.004 196.369 355.303 196.236 355.521 196.007C355.739 195.777 355.858 195.471 355.851 195.154C355.809 192.473 355.637 189.754 355.34 187.065C355.312 186.84 355.221 186.627 355.076 186.453C354.932 186.278 354.742 186.149 354.527 186.08ZM242.562 163.364C242.308 163.281 242.032 163.287 241.781 163.381C241.53 163.476 241.318 163.652 241.179 163.882C239.776 166.207 238.515 168.615 237.401 171.092C237.271 171.382 237.26 171.712 237.372 172.009C237.484 172.306 237.709 172.545 237.998 172.675C238.286 172.805 238.614 172.814 238.91 172.701C239.206 172.587 239.445 172.361 239.575 172.07C240.648 169.683 241.863 167.362 243.215 165.12C243.296 164.987 243.35 164.838 243.375 164.683C243.399 164.529 243.393 164.371 243.356 164.219C243.32 164.067 243.254 163.924 243.163 163.797C243.071 163.671 242.955 163.564 242.823 163.483C242.74 163.434 242.653 163.394 242.562 163.364ZM354.756 202.041C354.668 202.012 354.576 201.995 354.482 201.989C354.169 201.964 353.859 202.065 353.619 202.27C353.379 202.474 353.229 202.766 353.203 203.08C352.985 205.697 352.633 208.302 352.149 210.884C352.12 211.037 352.122 211.195 352.154 211.349C352.185 211.502 352.247 211.647 352.335 211.776C352.422 211.905 352.535 212.015 352.665 212.101C352.795 212.186 352.941 212.244 353.094 212.273C353.247 212.302 353.404 212.3 353.557 212.267C353.709 212.235 353.854 212.173 353.983 212.084C354.112 211.995 354.222 211.882 354.307 211.751C354.393 211.62 354.451 211.473 354.48 211.319C354.979 208.657 355.341 205.97 355.564 203.271C355.587 203.004 355.52 202.738 355.373 202.514C355.227 202.291 355.009 202.125 354.756 202.041ZM235.998 177.916C235.699 177.819 235.373 177.844 235.093 177.988C234.812 178.131 234.599 178.381 234.501 178.681C233.681 181.266 233.003 183.895 232.468 186.553C232.406 186.866 232.469 187.19 232.644 187.454C232.819 187.719 233.092 187.902 233.402 187.964C233.713 188.026 234.035 187.962 234.299 187.785C234.563 187.609 234.747 187.334 234.81 187.022C235.328 184.451 235.986 181.909 236.778 179.409C236.825 179.259 236.842 179.101 236.828 178.945C236.814 178.789 236.77 178.637 236.697 178.499C236.625 178.36 236.525 178.237 236.406 178.137C236.286 178.037 236.147 177.962 235.998 177.916ZM351.797 217.737L351.774 217.73C351.625 217.685 351.469 217.669 351.314 217.684C351.159 217.7 351.008 217.746 350.87 217.82C350.733 217.893 350.611 217.994 350.512 218.115C350.412 218.236 350.338 218.375 350.292 218.525C350.142 218.986 349.992 219.443 349.843 219.9C349.175 221.943 348.408 223.958 347.564 225.894C347.437 226.185 347.43 226.515 347.545 226.81C347.659 227.105 347.886 227.343 348.176 227.469C348.465 227.596 348.793 227.602 349.088 227.486C349.382 227.369 349.619 227.141 349.746 226.85C350.619 224.84 351.413 222.754 352.104 220.639C352.258 220.167 352.414 219.691 352.568 219.219C352.66 218.919 352.63 218.595 352.486 218.318C352.341 218.041 352.094 217.832 351.797 217.737ZM232.843 193.574C232.758 193.547 232.67 193.529 232.582 193.522C232.268 193.493 231.956 193.591 231.714 193.793C231.472 193.995 231.319 194.286 231.29 194.6C231.043 197.299 230.938 200.008 230.977 202.717C230.981 202.874 231.015 203.028 231.078 203.172C231.141 203.315 231.231 203.444 231.344 203.552C231.456 203.661 231.589 203.745 231.735 203.802C231.88 203.858 232.035 203.885 232.191 203.881C232.348 203.877 232.501 203.842 232.644 203.779C232.787 203.715 232.916 203.624 233.024 203.51C233.132 203.397 233.217 203.263 233.273 203.117C233.33 202.97 233.357 202.815 233.354 202.658C233.314 200.039 233.412 197.42 233.649 194.811C233.673 194.543 233.607 194.275 233.461 194.051C233.315 193.826 233.097 193.658 232.843 193.574ZM345.404 232.362C345.148 232.278 344.87 232.285 344.617 232.381C344.365 232.477 344.152 232.656 344.014 232.89C342.682 235.149 341.208 237.32 339.599 239.39C339.433 239.641 339.368 239.946 339.417 240.243C339.466 240.54 339.625 240.807 339.862 240.99C340.099 241.173 340.396 241.26 340.695 241.231C340.993 241.203 341.27 241.063 341.47 240.838C343.139 238.695 344.669 236.447 346.052 234.108C346.132 233.973 346.184 233.824 346.206 233.669C346.228 233.514 346.22 233.356 346.182 233.204C346.143 233.053 346.075 232.91 345.982 232.785C345.889 232.66 345.771 232.555 345.637 232.476C345.564 232.429 345.486 232.391 345.404 232.362ZM233.082 209.534C232.915 209.48 232.739 209.463 232.565 209.486C232.41 209.506 232.261 209.556 232.125 209.634C231.99 209.712 231.87 209.816 231.775 209.94C231.679 210.064 231.608 210.205 231.567 210.357C231.526 210.508 231.515 210.666 231.534 210.821C231.867 213.512 232.349 216.182 232.978 218.818C233.052 219.125 233.244 219.39 233.513 219.555C233.646 219.636 233.794 219.69 233.948 219.714C234.102 219.738 234.26 219.731 234.411 219.694C234.563 219.657 234.706 219.59 234.832 219.497C234.958 219.405 235.065 219.288 235.146 219.154C235.228 219.02 235.282 218.872 235.306 218.717C235.331 218.562 235.324 218.404 235.288 218.252C234.675 215.707 234.208 213.128 233.887 210.528C233.862 210.302 233.773 210.088 233.63 209.912C233.487 209.736 233.297 209.604 233.082 209.534ZM335.601 244.931C335.396 244.866 335.177 244.857 334.967 244.907C334.758 244.958 334.565 245.064 334.411 245.215C332.543 247.034 330.551 248.72 328.451 250.261C328.304 250.344 328.176 250.457 328.076 250.593C327.976 250.729 327.906 250.884 327.87 251.049C327.834 251.214 327.834 251.385 327.868 251.55C327.903 251.715 327.972 251.87 328.071 252.006C328.171 252.142 328.297 252.255 328.443 252.338C328.589 252.421 328.751 252.471 328.919 252.487C329.086 252.502 329.255 252.481 329.413 252.426C329.572 252.371 329.718 252.282 329.84 252.166C332.035 250.563 334.113 248.804 336.058 246.903C336.278 246.683 336.403 246.385 336.406 246.074C336.41 245.762 336.293 245.462 336.079 245.238C335.948 245.097 335.783 244.992 335.601 244.931ZM236.824 225.025C236.57 224.942 236.296 224.948 236.045 225.042C235.899 225.097 235.765 225.18 235.65 225.287C235.536 225.393 235.443 225.522 235.378 225.664C235.313 225.807 235.277 225.961 235.271 226.117C235.265 226.274 235.29 226.43 235.344 226.577C236.287 229.119 237.388 231.599 238.643 234.001C238.794 234.27 239.044 234.468 239.339 234.555C239.634 234.642 239.952 234.609 240.225 234.465C240.498 234.321 240.705 234.076 240.801 233.782C240.898 233.488 240.877 233.168 240.743 232.89C239.536 230.576 238.475 228.188 237.567 225.74C237.505 225.572 237.406 225.421 237.278 225.297C237.149 225.173 236.994 225.08 236.824 225.025ZM322.784 254.371C322.628 254.323 322.463 254.307 322.3 254.326C322.137 254.345 321.98 254.397 321.838 254.48C319.549 255.736 317.186 256.85 314.762 257.815C314.469 257.932 314.234 258.16 314.108 258.451C313.982 258.741 313.977 259.069 314.092 259.362C314.207 259.656 314.434 259.892 314.722 260.017C315.011 260.142 315.337 260.147 315.63 260.03C318.144 259.031 320.595 257.877 322.97 256.576C323.173 256.465 323.34 256.296 323.45 256.09C323.559 255.885 323.607 255.652 323.586 255.42C323.566 255.189 323.478 254.968 323.334 254.786C323.19 254.605 322.996 254.469 322.775 254.397L322.784 254.371ZM244.212 239.107C243.975 239.03 243.719 239.03 243.482 239.107C243.245 239.184 243.037 239.335 242.889 239.537C242.741 239.739 242.66 239.982 242.658 240.233C242.655 240.483 242.731 240.728 242.875 240.932C244.444 243.147 246.168 245.248 248.034 247.216C248.14 247.336 248.268 247.434 248.412 247.503C248.556 247.572 248.712 247.611 248.872 247.618C249.032 247.624 249.191 247.599 249.341 247.542C249.49 247.486 249.627 247.399 249.743 247.288C249.858 247.178 249.951 247.044 250.014 246.897C250.078 246.749 250.111 246.591 250.112 246.43C250.113 246.27 250.081 246.111 250.02 245.963C249.958 245.816 249.867 245.682 249.753 245.57C247.963 243.682 246.31 241.668 244.805 239.543C244.66 239.34 244.455 239.188 244.219 239.109L244.212 239.107ZM308.004 260.276C307.787 260.205 307.554 260.199 307.333 260.258C304.81 260.932 302.251 261.456 299.669 261.829C299.369 261.887 299.104 262.058 298.926 262.307C298.748 262.557 298.673 262.865 298.715 263.167C298.757 263.47 298.914 263.745 299.152 263.934C299.391 264.124 299.693 264.214 299.996 264.185C302.677 263.806 305.334 263.267 307.953 262.571C308.2 262.505 308.42 262.361 308.58 262.159C308.74 261.957 308.83 261.709 308.838 261.452C308.846 261.195 308.77 260.942 308.623 260.732C308.476 260.522 308.265 260.366 308.022 260.286L308.004 260.276ZM292.28 262.533C292.152 262.492 292.018 262.472 291.883 262.474C289.28 262.532 286.676 262.428 284.086 262.163C283.928 262.139 283.766 262.148 283.611 262.189C283.456 262.23 283.31 262.302 283.183 262.4C283.057 262.499 282.951 262.623 282.873 262.763C282.795 262.904 282.745 263.059 282.729 263.22C282.712 263.38 282.727 263.541 282.774 263.695C282.821 263.849 282.899 263.991 283.003 264.114C283.106 264.236 283.233 264.337 283.377 264.408C283.52 264.48 283.676 264.522 283.836 264.531C286.524 264.812 289.228 264.922 291.931 264.86C292.211 264.853 292.48 264.747 292.69 264.561C292.9 264.374 293.038 264.119 293.079 263.84C293.121 263.562 293.062 263.278 292.915 263.039C292.768 262.801 292.541 262.622 292.275 262.535L292.28 262.533ZM255.155 250.614C254.89 250.529 254.604 250.541 254.346 250.648C254.089 250.754 253.876 250.947 253.746 251.195C253.616 251.442 253.576 251.727 253.633 252C253.691 252.273 253.843 252.517 254.061 252.689C256.196 254.36 258.448 255.874 260.8 257.22C261.073 257.376 261.397 257.417 261.7 257.333C262.004 257.249 262.263 257.048 262.419 256.773C262.576 256.498 262.618 256.172 262.535 255.868C262.453 255.563 262.253 255.304 261.98 255.147C259.728 253.858 257.572 252.409 255.528 250.81C255.417 250.722 255.291 250.655 255.155 250.614ZM276.495 260.878L276.405 260.848C273.879 260.24 271.398 259.458 268.98 258.509C268.686 258.394 268.359 258.401 268.07 258.528C267.781 258.655 267.554 258.892 267.438 259.187C267.323 259.481 267.328 259.81 267.454 260.1C267.579 260.39 267.814 260.617 268.107 260.733C270.628 261.722 273.213 262.536 275.846 263.17C276.149 263.255 276.473 263.216 276.748 263.062C277.023 262.907 277.227 262.649 277.313 262.345C277.399 262.04 277.361 261.714 277.208 261.438C277.055 261.163 276.799 260.96 276.496 260.874L276.495 260.878Z" fill="#4CB1FF"/>
<path d="M512.816 154.296C512.671 154.241 512.516 154.215 512.36 154.219C512.204 154.224 512.05 154.26 511.908 154.324C511.765 154.388 511.637 154.48 511.53 154.594C511.422 154.708 511.339 154.842 511.283 154.989C511.227 155.135 511.2 155.291 511.205 155.448C511.209 155.604 511.244 155.759 511.307 155.901C511.371 156.044 511.462 156.173 511.575 156.28C511.688 156.388 511.821 156.472 511.967 156.527L515.581 158.126C515.87 158.253 516.198 158.26 516.493 158.144C516.787 158.028 517.025 157.8 517.152 157.509C517.28 157.218 517.287 156.889 517.173 156.593C517.059 156.297 516.832 156.06 516.543 155.932L512.91 154.327L512.816 154.296Z" fill="#4CB1FF"/>
</g>
<defs>
<clipPath id="clip0_1_28097">
<rect width="501.75" height="182.233" fill="white" transform="matrix(0.950528 0.310638 0.310638 -0.950528 0 173.218)"/>
</clipPath>
</defs>
</svg>
